#N canvas 0 22 450 300 10;
#X obj 91 56 inlet;
#X obj 91 174 outlet;
#X msg 150 101 0;
#X msg 152 167 1;
#X obj 91 122 t a b b b;
#X msg 173 123 stop;
#X obj 91 100 spigot 1;
#X obj 152 145 delay \$1;
#X connect 0 0 6 0;
#X connect 2 0 6 1;
#X connect 3 0 6 1;
#X connect 4 0 1 0;
#X connect 4 1 2 0;
#X connect 4 2 7 0;
#X connect 4 3 5 0;
#X connect 5 0 7 0;
#X connect 6 0 4 0;
#X connect 7 0 3 0;
