#N canvas 132 236 664 487 10;
#X obj 215 180 moses 10;
#X obj 259 214 print \$1_spike;
#X text 257 26 Group processing;
#X obj 61 25 r group_\$1_hit;
#X msg 61 47 1;
#X obj 61 69 +;
#X obj 90 70 f;
#X obj 61 91 t f b b;
#X obj 115 206 metro 1000;
#X obj 126 164 del 1000;
#X msg 126 186 1;
#X msg 137 140 stop;
#X msg 115 228 -1;
#X obj 81 133 sel 0;
#X msg 81 155 0;
#X msg 132 76 5;
#X obj 200 150 nbx 2 25 -1e+37 1e+37 0 0 empty empty empty 0 -8 0 15
-262144 -1 -1 0 256;
#X obj 61 271 s group_\$1_level;
#X obj 377 39 r group_\$1_level;
#X obj 404 63 r light_sensitivity;
#X obj 404 85 t f f;
#X obj 431 133 /;
#X obj 377 367 \$1;
#X obj 377 399 pack f f f f;
#X obj 377 421 s toDMX;
#X msg 377 175 \$1 1000;
#X obj 377 197 line;
#X obj 377 121 min 6;
#X obj 377 219 change;
#X obj 496 162 r group_\$1_colour;
#X obj 411 341 swap 255;
#X obj 411 363 -;
#X obj 411 319 * 128;
#X obj 411 298 + 1;
#X obj 471 341 swap 255;
#X obj 471 363 -;
#X obj 471 319 * 128;
#X obj 471 276 * -1;
#X obj 471 298 + 1;
#X obj 531 341 swap 255;
#X obj 531 363 -;
#X obj 531 319 * 128;
#X obj 531 276 * -1;
#X obj 531 298 + 1;
#X obj 496 184 unpack f f f;
#X obj 377 245 t b f f f;
#X obj 411 276 * -1;
#X floatatom 496 258 5 0 0 0 - - -;
#X floatatom 536 258 5 0 0 0 - - -;
#X floatatom 576 258 5 0 0 0 - - -;
#X msg 431 111 1 \$1;
#X obj 377 153 * 0.166667;
#X obj 476 91 r resting_colour_brightness;
#N canvas 213 224 563 585 recording 0;
#X obj 278 187 f;
#X obj 304 187 + 1;
#X msg 50 250 1;
#X obj 50 89 t b b;
#X obj 77 114 spigot;
#X msg 164 120 0;
#X obj 50 272 t f b b;
#X msg 90 297 stop;
#X obj 69 324 del 1000;
#X obj 278 296 list prepend 0;
#X obj 278 318 list trim;
#X obj 278 340 route 0 1;
#X msg 93 379 1;
#X msg 293 165 0;
#X obj 115 278 bng 15 250 50 0 empty empty empty 17 7 0 10 -262144
-1 -1;
#X obj 303 412 sel 1;
#X obj 303 434 bng 15 50 50 0 empty empty empty 17 7 0 10 -262144 -1
-1;
#X msg 143 66 1;
#X obj 77 137 t b b b b;
#X msg 285 110 1;
#X obj 278 231 t f f;
#X msg 365 197 0;
#X msg 342 482 stop;
#X obj 322 509 del 1000;
#X obj 303 457 t b b b;
#X obj 278 209 mod 1000;
#X obj 365 175 sel 999;
#X obj 278 133 metro 10;
#X floatatom 296 260 5 0 0 0 - - -;
#X obj 50 442 table group_\$1_recording 1000;
#X obj 50 420 tabwrite group_\$1_recording;
#X obj 50 45 r group_\$1_hit;
#X obj 143 44 r arm_\$1_recording;
#X obj 94 180 \$1;
#X obj 21 35 bng 15 250 50 0 empty empty empty 17 7 0 10 -262144 -1
-1;
#X obj 50 67 spigot;
#X obj 69 346 t b b b;
#X obj 193 77 print group_\$1_armed;
#X obj 124 504 print group_\$1_recording;
#X obj 347 437 print group_\$1_recorded_out;
#X obj 303 380 tabread group_\$1_recording;
#X msg 94 204 \; group_\$1_recording const 0 \;;
#X msg 135 332 0;
#X obj 399 504 s call_response_\$1;
#X connect 0 0 1 0;
#X connect 0 0 25 0;
#X connect 1 0 0 1;
#X connect 2 0 6 0;
#X connect 3 0 2 0;
#X connect 3 1 4 0;
#X connect 4 0 18 0;
#X connect 5 0 4 1;
#X connect 5 0 9 1;
#X connect 5 0 0 0;
#X connect 5 0 27 0;
#X connect 6 0 30 0;
#X connect 6 1 8 0;
#X connect 6 2 7 0;
#X connect 7 0 8 0;
#X connect 8 0 36 0;
#X connect 9 0 10 0;
#X connect 10 0 11 0;
#X connect 11 0 30 1;
#X connect 11 1 40 0;
#X connect 12 0 9 1;
#X connect 13 0 0 1;
#X connect 15 0 16 0;
#X connect 15 0 39 0;
#X connect 15 0 43 0;
#X connect 16 0 24 0;
#X connect 17 0 4 1;
#X connect 17 0 35 1;
#X connect 17 0 37 0;
#X connect 18 0 19 0;
#X connect 18 1 33 0;
#X connect 18 2 38 0;
#X connect 18 3 5 0;
#X connect 19 0 27 0;
#X connect 20 0 9 0;
#X connect 20 0 28 0;
#X connect 20 1 26 0;
#X connect 21 0 27 0;
#X connect 22 0 23 0;
#X connect 23 0 21 0;
#X connect 24 1 23 0;
#X connect 24 2 22 0;
#X connect 25 0 20 0;
#X connect 26 0 21 0;
#X connect 27 0 0 0;
#X connect 31 0 35 0;
#X connect 32 0 17 0;
#X connect 33 0 41 0;
#X connect 34 0 35 0;
#X connect 35 0 3 0;
#X connect 36 0 13 0;
#X connect 36 1 12 0;
#X connect 36 2 42 0;
#X connect 40 0 15 0;
#X connect 42 0 35 1;
#X restore 61 318 pd recording;
#X floatatom 299 324 5 0 0 0 - - -;
#X msg 580 128 255 0 0;
#X obj 496 206 * 0.5;
#X obj 536 206 * 0.5;
#X obj 576 206 * 0.5;
#X connect 3 0 4 0;
#X connect 4 0 5 0;
#X connect 5 0 6 0;
#X connect 5 0 7 0;
#X connect 6 0 5 1;
#X connect 7 0 13 0;
#X connect 7 0 16 0;
#X connect 7 0 17 0;
#X connect 7 1 9 0;
#X connect 7 2 11 0;
#X connect 8 0 12 0;
#X connect 9 0 10 0;
#X connect 10 0 8 0;
#X connect 11 0 9 0;
#X connect 12 0 5 0;
#X connect 13 0 14 0;
#X connect 13 0 11 0;
#X connect 14 0 8 0;
#X connect 15 0 6 0;
#X connect 18 0 27 0;
#X connect 19 0 20 0;
#X connect 20 0 27 1;
#X connect 20 1 50 0;
#X connect 21 0 51 1;
#X connect 22 0 23 0;
#X connect 23 0 24 0;
#X connect 25 0 26 0;
#X connect 26 0 28 0;
#X connect 27 0 51 0;
#X connect 28 0 45 0;
#X connect 29 0 44 0;
#X connect 30 0 31 0;
#X connect 30 1 31 1;
#X connect 31 0 23 1;
#X connect 32 0 30 0;
#X connect 33 0 32 0;
#X connect 34 0 35 0;
#X connect 34 1 35 1;
#X connect 35 0 23 2;
#X connect 36 0 34 0;
#X connect 37 0 38 0;
#X connect 38 0 36 0;
#X connect 39 0 40 0;
#X connect 39 1 40 1;
#X connect 40 0 23 3;
#X connect 41 0 39 0;
#X connect 42 0 43 0;
#X connect 43 0 41 0;
#X connect 44 0 56 0;
#X connect 44 1 57 0;
#X connect 44 2 58 0;
#X connect 45 0 22 0;
#X connect 45 1 46 0;
#X connect 45 2 37 0;
#X connect 45 3 42 0;
#X connect 46 0 33 0;
#X connect 50 0 21 0;
#X connect 51 0 25 0;
#X connect 52 0 56 1;
#X connect 52 0 57 1;
#X connect 52 0 58 1;
#X connect 54 0 45 0;
#X connect 55 0 44 0;
#X connect 56 0 32 1;
#X connect 56 0 47 0;
#X connect 57 0 36 1;
#X connect 57 0 48 0;
#X connect 58 0 41 1;
#X connect 58 0 49 0;
#X coords 0 -1 1 1 50 25 1 200 150;
