#N canvas 194 132 701 319 10;
#X obj 215 180 moses 10;
#X obj 259 214 print \$1_spike;
#N canvas 15 207 606 448 RGB_____________ 0;
#X obj 97 56 inlet;
#X obj 262 53 inlet;
#X obj 339 55 inlet;
#X obj 405 56 inlet;
#X obj 249 385 outlet;
#X text 93 33 select;
#X text 267 28 red;
#X text 337 30 green;
#X text 409 30 blue;
#X obj 405 102 t b f;
#X obj 339 160 +;
#X obj 339 185 t b f;
#X obj 339 216 +;
#X obj 296 385 outlet;
#X obj 343 385 outlet;
#X obj 28 180 loadbang;
#X obj 97 135 route back front label bang;
#X obj 343 362 f;
#X obj 296 361 f;
#X obj 249 361 f;
#X obj 262 79 * -65536;
#X obj 339 80 * -256;
#X obj 405 80 * -1;
#X obj 339 247 - 1;
#X obj 235 168 t b b b b;
#X connect 0 0 16 0;
#X connect 1 0 20 0;
#X connect 2 0 21 0;
#X connect 3 0 22 0;
#X connect 9 0 10 0;
#X connect 9 1 10 1;
#X connect 10 0 11 0;
#X connect 11 0 12 0;
#X connect 11 1 12 1;
#X connect 12 0 23 0;
#X connect 16 3 24 0;
#X connect 17 0 14 0;
#X connect 18 0 13 0;
#X connect 19 0 4 0;
#X connect 20 0 12 0;
#X connect 21 0 10 0;
#X connect 22 0 9 0;
#X connect 23 0 4 0;
#X connect 24 0 19 0;
#X connect 24 1 18 0;
#X connect 24 2 17 0;
#X connect 24 3 23 0;
#X restore 451 214 pd RGB_____________;
#X obj 451 236 pack f f f \$0;
#X msg 451 259 \; \$4_proc_slider color \$1 \$2 \$3;
#X msg 488 189 255;
#X msg 523 189 0;
#X text 257 26 Group processing;
#X obj 61 25 r group_\$1_hit;
#X msg 61 47 1;
#X obj 61 69 +;
#X obj 90 70 f;
#X obj 61 91 t f b b;
#X obj 115 206 metro 1000;
#X obj 126 164 del 1000;
#X msg 126 186 1;
#X msg 137 140 stop;
#X msg 115 228 -1;
#X obj 81 133 sel 0;
#X msg 81 155 0;
#X msg 132 76 5;
#X obj 200 150 nbx 2 25 -1e+37 1e+37 0 0 empty empty empty 0 -8 0 15
-262144 -1 -1 0 256;
#X obj 61 271 s group_\$1_level;
#X connect 0 1 1 0;
#X connect 2 0 3 0;
#X connect 3 0 4 0;
#X connect 5 0 2 1;
#X connect 6 0 2 1;
#X connect 8 0 9 0;
#X connect 9 0 10 0;
#X connect 10 0 11 0;
#X connect 10 0 12 0;
#X connect 11 0 10 1;
#X connect 12 0 18 0;
#X connect 12 0 21 0;
#X connect 12 0 22 0;
#X connect 12 1 14 0;
#X connect 12 2 16 0;
#X connect 13 0 17 0;
#X connect 14 0 15 0;
#X connect 15 0 13 0;
#X connect 16 0 14 0;
#X connect 17 0 10 0;
#X connect 18 0 19 0;
#X connect 18 0 16 0;
#X connect 19 0 13 0;
#X connect 20 0 11 0;
#X coords 0 -1 1 1 50 25 1 200 150;
