#N canvas 276 259 142 234 10;
#X obj 21 14 inlet;
#X obj 21 118 line;
#X obj 21 36 t b b;
#X obj 65 62 del 5;
#X msg 65 84 0 100;
#X msg 21 58 100 5;
#X obj 21 140 pack f \$1;
#X msg 21 162 \$2 \$1;
#X obj 21 184 s piezo_input;
#X connect 0 0 2 0;
#X connect 1 0 6 0;
#X connect 2 0 5 0;
#X connect 2 1 3 0;
#X connect 3 0 4 0;
#X connect 4 0 1 0;
#X connect 5 0 1 0;
#X connect 6 0 7 0;
#X connect 7 0 8 0;
#X coords 0 234 1 233 25 25 0;
