#N canvas 123 312 900 418 10;
#X obj 110 23 r piezo_input;
#X obj 110 45 route \$1;
#X obj 110 67 t f f;
#X obj 110 111 -;
#X obj 110 177 s piezo_\$1_hit;
#X obj 215 180 moses 10;
#X obj 259 214 print \$1_spike;
#X obj 200 152 vsl 25 20 0 100 0 0 empty \$0_proc_slider empty 0 -9
0 10 -1 -262144 -262144 0 1;
#X obj 199 80 f;
#X obj 199 57 r gui_tick;
#N canvas 15 207 606 448 RGB_____________ 0;
#X obj 97 56 inlet;
#X obj 262 53 inlet;
#X obj 339 55 inlet;
#X obj 405 56 inlet;
#X obj 249 385 outlet;
#X text 93 33 select;
#X text 267 28 red;
#X text 337 30 green;
#X text 409 30 blue;
#X obj 405 102 t b f;
#X obj 339 160 +;
#X obj 339 185 t b f;
#X obj 339 216 +;
#X obj 296 385 outlet;
#X obj 343 385 outlet;
#X obj 28 180 loadbang;
#X obj 97 135 route back front label bang;
#X obj 343 362 f;
#X obj 296 361 f;
#X obj 249 361 f;
#X obj 262 79 * -65536;
#X obj 339 80 * -256;
#X obj 405 80 * -1;
#X obj 339 247 - 1;
#X obj 235 168 t b b b b;
#X connect 0 0 16 0;
#X connect 1 0 20 0;
#X connect 2 0 21 0;
#X connect 3 0 22 0;
#X connect 9 0 10 0;
#X connect 9 1 10 1;
#X connect 10 0 11 0;
#X connect 11 0 12 0;
#X connect 11 1 12 1;
#X connect 12 0 23 0;
#X connect 16 3 24 0;
#X connect 17 0 14 0;
#X connect 18 0 13 0;
#X connect 19 0 4 0;
#X connect 20 0 12 0;
#X connect 21 0 10 0;
#X connect 22 0 9 0;
#X connect 23 0 4 0;
#X connect 24 0 19 0;
#X connect 24 1 18 0;
#X connect 24 2 17 0;
#X connect 24 3 23 0;
#X restore 126 242 pd RGB_____________;
#X obj 126 264 pack f f f \$0;
#X msg 126 287 \; \$4_proc_slider color \$1 \$2 \$3;
#X msg 163 217 255;
#X msg 198 217 0;
#X obj 110 155 sel 1 0;
#X text 239 23 Piezo processing;
#X obj 576 154 line;
#X obj 576 72 t b b;
#X obj 620 98 del 5;
#X msg 620 120 0 100;
#X msg 576 94 100 5;
#X obj 576 176 pack f \$1;
#X msg 576 198 \$2 \$1;
#X obj 576 220 s piezo_input;
#X obj 576 20 r kbd_input;
#X obj 576 42 sel \$1;
#X obj 22 217 s group_\$2_hit;
#X obj 22 197 debounce 100;
#X obj 110 89 pipe 100;
#X obj 447 137 loadbang;
#X obj 447 159 \$1;
#X obj 447 181 * 1.5;
#X obj 407 223 f;
#X obj 407 245 int;
#X obj 407 267 s single-on;
#X obj 384 190 spigot;
#X obj 417 103 r mic_to_poofer_on;
#X text 6 141 avoid crosstalk;
#X obj 110 133 > 60;
#X text 6 126 60 threshold to;
#X obj 138 111 r Threshold;
#X connect 0 0 1 0;
#X connect 1 0 2 0;
#X connect 1 0 8 1;
#X connect 2 0 29 0;
#X connect 2 1 3 1;
#X connect 3 0 5 0;
#X connect 3 0 39 0;
#X connect 8 0 7 0;
#X connect 9 0 8 0;
#X connect 10 0 11 0;
#X connect 11 0 12 0;
#X connect 13 0 10 1;
#X connect 14 0 10 1;
#X connect 15 0 4 0;
#X connect 15 0 13 0;
#X connect 15 0 28 0;
#X connect 15 0 36 0;
#X connect 15 1 14 0;
#X connect 17 0 22 0;
#X connect 18 0 21 0;
#X connect 18 1 19 0;
#X connect 19 0 20 0;
#X connect 20 0 17 0;
#X connect 21 0 17 0;
#X connect 22 0 23 0;
#X connect 23 0 24 0;
#X connect 25 0 26 0;
#X connect 26 0 18 0;
#X connect 28 0 27 0;
#X connect 29 0 3 0;
#X connect 30 0 31 0;
#X connect 31 0 32 0;
#X connect 32 0 33 1;
#X connect 33 0 34 0;
#X connect 34 0 35 0;
#X connect 36 0 33 0;
#X connect 37 0 36 1;
#X connect 39 0 15 0;
#X connect 41 0 39 1;
#X coords 0 -1 1 1 25 25 1 200 150;
