#N canvas 376 354 313 250 10;
#X obj 40 23 r piezo_input;
#X obj 40 45 route \$1;
#X obj 105 94 print \$1;
#X obj 40 67 t f f;
#X obj 40 89 pipe 5;
#X obj 40 111 -;
#X obj 40 133 > 10;
#X obj 40 155 sel 1;
#X obj 40 177 s piezo_\$1_hit;
#X obj 151 149 moses 10;
#X obj 195 183 print \$1_spike;
#X connect 0 0 1 0;
#X connect 1 0 3 0;
#X connect 3 0 4 0;
#X connect 3 1 5 1;
#X connect 4 0 5 0;
#X connect 5 0 6 0;
#X connect 5 0 9 0;
#X connect 6 0 7 0;
#X connect 7 0 8 0;
#X connect 9 1 10 0;
