#N canvas 643 127 449 353 10;
#X obj 82 91 noise~;
#X obj 82 205 *~;
#X obj 82 317 dac~;
#X obj 82 287 *~;
#X obj 112 287 *~;
#X obj 247 38 loadbang;
#X obj 246 65 \$1;
#X obj 160 116 r #toGPIO;
#X obj 160 140 route \$1;
#X obj 299 224 swap 1;
#X obj 299 246 -;
#X obj 247 158 * 20;
#X obj 247 180 + 1200;
#X obj 247 104 - 1;
#X obj 247 136 mod 12;
#X floatatom 247 202 5 0 0 0 - - -, f 5;
#X obj 299 158 < 13;
#X obj 160 162 lop~ 20;
#X obj 82 153 bp~ 100 10;
#X connect 0 0 18 0;
#X connect 1 0 3 0;
#X connect 1 0 4 0;
#X connect 3 0 2 0;
#X connect 4 0 2 1;
#X connect 5 0 6 0;
#X connect 6 0 13 0;
#X connect 6 0 16 0;
#X connect 7 0 8 0;
#X connect 8 0 17 0;
#X connect 9 0 10 0;
#X connect 9 1 10 1;
#X connect 10 0 4 1;
#X connect 11 0 12 0;
#X connect 12 0 15 0;
#X connect 12 0 18 1;
#X connect 13 0 14 0;
#X connect 14 0 11 0;
#X connect 16 0 9 0;
#X connect 16 0 3 1;
#X connect 17 0 1 1;
#X connect 18 0 1 0;
