#N canvas 246 506 450 300 10;
#X declare -path abs;
#X obj 59 22 declare -path abs;
#X obj 104 125 comport 2 9600;
#X obj 117 52 tgl 15 0 empty empty empty 17 7 0 10 -262144 -1 -1 0
1;
#X obj 117 72 sel 0 1;
#X msg 117 94 close;
#X msg 157 94 open 2;
#X obj 213 159 sel 10 20;
#X obj 213 181 bng 15 250 50 0 empty empty empty 17 7 0 10 -262144
-1 -1;
#X obj 233 181 bng 15 250 50 0 empty empty empty 17 7 0 10 -262144
-1 -1;
#X floatatom 359 65 5 0 0 0 - - -, f 5;
#X msg 246 54 disconnect;
#X msg 228 26 connect localhost 10000;
#X msg 291 68 send \$1 \;;
#N canvas 0 22 513 298 float2bin 1;
#X floatatom 43 33 5 0 255 0 - - -, f 5;
#X floatatom 43 166 5 0 0 0 - - -, f 5;
#X floatatom 93 166 5 0 0 0 - - -, f 5;
#X floatatom 143 166 5 0 0 0 - - -, f 5;
#X floatatom 193 166 5 0 0 0 - - -, f 5;
#X floatatom 243 166 5 0 0 0 - - -, f 5;
#X floatatom 293 166 5 0 0 0 - - -, f 5;
#X floatatom 343 166 5 0 0 0 - - -, f 5;
#X floatatom 393 166 5 0 0 0 - - -, f 5;
#X obj 393 108 mod 2;
#X obj 343 128 div 2;
#X obj 343 108 mod 4;
#X obj 293 108 mod 8;
#X obj 293 128 div 4;
#X obj 243 108 mod 16;
#X obj 243 128 div 8;
#X obj 193 108 mod 32;
#X obj 193 128 div 16;
#X obj 143 108 mod 64;
#X obj 143 128 div 32;
#X obj 93 128 div 64;
#X obj 93 108 mod 128;
#X obj 43 128 div 128;
#X obj 43 108 mod 256;
#X obj 43 76 int;
#X connect 0 0 24 0;
#X connect 9 0 8 0;
#X connect 10 0 7 0;
#X connect 11 0 10 0;
#X connect 11 0 9 0;
#X connect 12 0 11 0;
#X connect 12 0 13 0;
#X connect 13 0 6 0;
#X connect 14 0 12 0;
#X connect 14 0 15 0;
#X connect 15 0 5 0;
#X connect 16 0 14 0;
#X connect 16 0 17 0;
#X connect 17 0 4 0;
#X connect 18 0 16 0;
#X connect 18 0 19 0;
#X connect 19 0 3 0;
#X connect 20 0 2 0;
#X connect 21 0 18 0;
#X connect 21 0 20 0;
#X connect 22 0 1 0;
#X connect 23 0 21 0;
#X connect 23 0 22 0;
#X connect 24 0 23 0;
#X restore 329 137 pd float2bin;
#X obj 228 102 netsend -b;
#X connect 1 0 6 0;
#X connect 2 0 3 0;
#X connect 3 0 4 0;
#X connect 3 1 5 0;
#X connect 4 0 1 0;
#X connect 5 0 1 0;
#X connect 6 0 7 0;
#X connect 6 1 8 0;
#X connect 9 0 12 0;
#X connect 10 0 14 0;
#X connect 11 0 14 0;
#X connect 12 0 14 0;
