#N canvas 442 93 988 571 10;
#X declare -path abs;
#X declare -path oscx;
#X obj 59 22 declare -path abs;
#X obj 289 521 sendOSC;
#X obj 59 42 declare -path oscx;
#X msg 302 493 disconnect \, connect localhost 5005;
#X text 476 381 r \, g \, b \, start \, end;
#X msg 340 240 0 128 255 15 30;
#X obj 452 217 pack f f f;
#X msg 452 239 \$1 \$2 \$3 0 14;
#X obj 452 172 * 255;
#X obj 492 172 * 0;
#X obj 532 172 * 128;
#X floatatom 450 151 5 0 0 0 - - -, f 5;
#X obj 452 194 int;
#X obj 492 194 int;
#X obj 532 194 int;
#X msg 589 185 1 \, 0 1000;
#X obj 666 270 pack f f f;
#X floatatom 664 204 5 0 0 0 - - -, f 5;
#X obj 666 247 int;
#X obj 706 247 int;
#X obj 746 247 int;
#X obj 666 225 * 0;
#X obj 706 225 * 128;
#X obj 746 225 * 255;
#X msg 666 292 \$1 \$2 \$3 15 30;
#X msg 376 190;
#X msg 422 407 send /fillRGB \$1 \$2 \$3 \$4 \$5;
#X msg 267 313 send /singleLED \$1 \$2 \$3 \$4;
#X text 361 295 index \, r \, g \, b;
#X msg 267 268 \$1 255 0 128;
#X floatatom 221 247 5 0 0 0 - - -, f 5;
#X msg 158 419 send /update;
#X msg 262 385 send /allOff;
#X msg 149 279 \$1 255 0 128;
#X msg 149 258 4;
#N canvas 463 104 636 900 dot 0;
#X obj 88 51 inlet centre;
#X obj 102 139 t a b;
#X obj 185 183 s allOff;
#X msg 102 161 \$1 255 255 0;
#X obj 102 183 s singleLED;
#X floatatom 106 101 5 0 0 0 - - -, f 5;
#X obj 274 181 until;
#X obj 274 106 f 30;
#X obj 274 128 max 1;
#X obj 274 233 f;
#X obj 300 233 + 1;
#X msg 289 211 0;
#X obj 274 150 t f b;
#X msg 261 81 30;
#X obj 295 83 r \$0-led_count;
#X obj 274 275 t f f;
#X obj 301 304 -;
#X obj 360 21 r \$0-dot_centre;
#X obj 360 43 t b f;
#X obj 301 626 / 30;
#X obj 322 584 r \$0-led_count;
#X obj 301 670 -;
#X msg 301 648 1 \$1;
#X obj 274 833 s singleLED;
#X obj 274 811 pack f f f f;
#X obj 301 784 int;
#X obj 301 723 pow 3;
#X floatatom 421 159 5 0 0 0 - - -, f 5;
#X msg 428 108 12;
#X obj 301 752 * 128;
#X obj 301 535 abs;
#X obj 301 421 moses 0;
#X obj 301 398 * -1;
#X obj 301 326 list prepend;
#X obj 301 348 list trim;
#X obj 301 370 route -1 1 0;
#X msg 301 443 bang;
#X obj 322 468 r \$0-led_count;
#X obj 301 510 f 30;
#X obj 461 731 * 1;
#X msg 529 685 1;
#X obj 529 642 r \$0-direction;
#X obj 529 664 sel 0;
#X obj 370 305 r \$0-direction;
#X msg 501 102 -1;
#X msg 532 102 0;
#X msg 561 102 1;
#X obj 501 124 s \$0-direction;
#X msg 559 685 0.5;
#X obj 47 375 r \$0-tick;
#X obj 47 419 s \$0-dot_centre;
#X obj 529 707 t b f;
#X obj 461 614 r \$0-trail_length;
#X obj 461 701 pow 2;
#X msg 461 636 1 \$1;
#X obj 461 658 -;
#X obj 461 680 * 17;
#X floatatom 475 168 5 0 0 0 - - -, f 5;
#X obj 474 188 s \$0-trail_length;
#X obj 335 713 print;
#X obj 359 498 r oversampling;
#X obj 359 613 r oversampling;
#X msg 458 408 2;
#X obj 458 430 s oversampling;
#X obj 499 511 s \$0-led_count;
#X msg 499 482 30;
#X msg 434 391 1;
#X obj 322 490 * 1;
#X obj 322 605 * 1;
#X obj 301 557 mod 30;
#X obj 337 529 r \$0-led_count;
#X obj 47 397 * 1;
#X connect 1 0 3 0;
#X connect 1 1 2 0;
#X connect 3 0 4 0;
#X connect 5 0 1 0;
#X connect 6 0 9 0;
#X connect 7 0 8 0;
#X connect 8 0 12 0;
#X connect 9 0 10 0;
#X connect 9 0 15 0;
#X connect 10 0 9 1;
#X connect 11 0 9 1;
#X connect 12 0 6 0;
#X connect 12 1 11 0;
#X connect 13 0 7 0;
#X connect 14 0 7 1;
#X connect 15 0 24 0;
#X connect 15 1 16 0;
#X connect 16 0 33 0;
#X connect 17 0 18 0;
#X connect 18 0 13 0;
#X connect 18 1 16 1;
#X connect 19 0 22 0;
#X connect 20 0 68 0;
#X connect 21 0 26 0;
#X connect 22 0 21 0;
#X connect 24 0 23 0;
#X connect 25 0 24 1;
#X connect 25 0 24 2;
#X connect 25 0 24 3;
#X connect 26 0 29 0;
#X connect 27 0 18 0;
#X connect 28 0 18 0;
#X connect 29 0 25 0;
#X connect 30 0 69 0;
#X connect 31 0 36 0;
#X connect 31 1 30 0;
#X connect 32 0 31 0;
#X connect 33 0 34 0;
#X connect 34 0 35 0;
#X connect 35 0 32 0;
#X connect 35 1 31 0;
#X connect 35 2 30 0;
#X connect 36 0 38 0;
#X connect 37 0 67 0;
#X connect 38 0 30 0;
#X connect 39 0 26 1;
#X connect 40 0 51 0;
#X connect 41 0 42 0;
#X connect 42 0 40 0;
#X connect 42 1 48 0;
#X connect 43 0 33 1;
#X connect 44 0 47 0;
#X connect 45 0 47 0;
#X connect 46 0 47 0;
#X connect 48 0 51 0;
#X connect 49 0 71 0;
#X connect 51 0 39 0;
#X connect 51 1 39 1;
#X connect 52 0 54 0;
#X connect 53 0 39 0;
#X connect 54 0 55 0;
#X connect 55 0 56 0;
#X connect 56 0 53 0;
#X connect 57 0 58 0;
#X connect 60 0 67 1;
#X connect 61 0 68 1;
#X connect 62 0 63 0;
#X connect 65 0 64 0;
#X connect 66 0 63 0;
#X connect 67 0 38 1;
#X connect 68 0 19 1;
#X connect 69 0 19 0;
#X connect 70 0 69 1;
#X connect 71 0 50 0;
#X restore 275 183 pd dot;
#N canvas 0 22 420 454 arduino-in 0;
#X obj 85 73 tgl 15 0 empty empty empty 17 7 0 10 -262144 -1 -1 0 1
;
#X obj 85 93 sel 0 1;
#X msg 85 115 close;
#X msg 13 113 devices;
#X obj 72 146 comport 1 9600;
#X obj 72 168 t f f;
#X obj 117 217 list prepend;
#X obj 117 239 list trim;
#X obj 186 195 moses 10;
#X obj 72 194 moses 10;
#X obj 117 261 route 0 1;
#X obj 117 283 print a;
#X obj 127 303 print b;
#N canvas 235 180 450 300 debounce 0;
#X obj 91 56 inlet;
#X obj 91 174 outlet;
#X msg 150 101 0;
#X obj 152 145 delay 100;
#X msg 152 167 1;
#X obj 91 122 t a b b b;
#X msg 173 123 stop;
#X obj 91 100 spigot 1;
#X connect 0 0 7 0;
#X connect 2 0 7 1;
#X connect 3 0 4 0;
#X connect 4 0 7 1;
#X connect 5 0 1 0;
#X connect 5 1 2 0;
#X connect 5 2 3 0;
#X connect 5 3 6 0;
#X connect 6 0 3 0;
#X connect 7 0 5 0;
#X restore 165 304 pd debounce;
#N canvas 235 180 450 300 debounce 0;
#X obj 91 56 inlet;
#X obj 91 174 outlet;
#X msg 150 101 0;
#X obj 152 145 delay 100;
#X msg 152 167 1;
#X obj 91 122 t a b b b;
#X msg 173 123 stop;
#X obj 91 100 spigot 1;
#X connect 0 0 7 0;
#X connect 2 0 7 1;
#X connect 3 0 4 0;
#X connect 4 0 7 1;
#X connect 5 0 1 0;
#X connect 5 1 2 0;
#X connect 5 2 3 0;
#X connect 5 3 6 0;
#X connect 6 0 3 0;
#X connect 7 0 5 0;
#X restore 105 335 pd debounce;
#X msg 125 115 open 2;
#X connect 0 0 1 0;
#X connect 1 0 2 0;
#X connect 1 1 15 0;
#X connect 2 0 4 0;
#X connect 3 0 4 0;
#X connect 4 0 5 0;
#X connect 5 0 9 0;
#X connect 5 1 8 0;
#X connect 6 0 7 0;
#X connect 7 0 10 0;
#X connect 8 0 6 1;
#X connect 9 1 6 0;
#X connect 10 0 11 0;
#X connect 10 0 14 0;
#X connect 10 1 12 0;
#X connect 10 1 13 0;
#X connect 15 0 4 0;
#X restore 45 83 pd arduino-in;
#X obj 187 218 r singleLED;
#X obj 262 364 r allOff;
#X obj 229 452 spigot;
#X obj 262 407 t b a;
#X msg 262 429 1;
#X obj 229 474 t a b;
#X msg 277 463 0;
#N canvas 0 22 450 300 timebase 0;
#X obj 50 38 tgl 15 0 empty empty empty 17 7 0 10 -262144 -1 -1 0 1
;
#X obj 50 60 metro 16;
#X obj 50 83 s \$0-update_tick;
#X obj 190 38 tgl 15 0 empty empty empty 17 7 0 10 -262144 -1 -1 0
1;
#X obj 190 82 f;
#X obj 217 82 + 1;
#X obj 190 104 s \$0-tick;
#X obj 190 60 metro 60;
#X msg 236 32 60;
#X msg 272 51 120;
#X connect 0 0 1 0;
#X connect 1 0 2 0;
#X connect 3 0 7 0;
#X connect 4 0 5 0;
#X connect 4 0 6 0;
#X connect 5 0 4 1;
#X connect 7 0 4 0;
#X connect 8 0 7 1;
#X connect 9 0 7 1;
#X restore 58 120 pd timebase;
#X obj 158 397 r \$0-update_tick;
#X connect 3 0 1 0;
#X connect 5 0 27 0;
#X connect 6 0 7 0;
#X connect 7 0 27 0;
#X connect 8 0 12 0;
#X connect 9 0 13 0;
#X connect 10 0 14 0;
#X connect 11 0 8 0;
#X connect 11 0 9 0;
#X connect 11 0 10 0;
#X connect 12 0 6 0;
#X connect 13 0 6 1;
#X connect 14 0 6 2;
#X connect 16 0 24 0;
#X connect 17 0 21 0;
#X connect 17 0 22 0;
#X connect 17 0 23 0;
#X connect 18 0 16 0;
#X connect 19 0 16 1;
#X connect 20 0 16 2;
#X connect 21 0 18 0;
#X connect 22 0 19 0;
#X connect 23 0 20 0;
#X connect 24 0 27 0;
#X connect 27 0 40 0;
#X connect 29 0 27 0;
#X connect 30 0 29 0;
#X connect 31 0 39 0;
#X connect 32 0 40 0;
#X connect 33 0 27 0;
#X connect 34 0 33 0;
#X connect 37 0 27 0;
#X connect 38 0 32 0;
#X connect 39 0 42 0;
#X connect 40 0 41 0;
#X connect 40 1 1 0;
#X connect 41 0 39 1;
#X connect 42 0 1 0;
#X connect 42 1 43 0;
#X connect 43 0 39 1;
#X connect 45 0 31 0;
