#N canvas 730 98 1179 573 10;
#X declare -path abs;
#X declare -path oscx;
#X declare -path abs;
#X obj 59 22 declare -path abs;
#X obj 289 521 sendOSC;
#X obj 59 42 declare -path oscx;
#X msg 302 493 disconnect \, connect localhost 5005;
#X text 406 384 r \, g \, b \, start \, end;
#X msg 728 39 1 \, 0 1000;
#X obj 728 189 pack f f f;
#X floatatom 728 83 5 0 0 0 - - -, f 5;
#X obj 728 146 int;
#X obj 788 146 int;
#X obj 848 146 int;
#X obj 728 124 * 0;
#X obj 788 124 * 128;
#X obj 848 124 * 255;
#X msg 352 410 send /fillRGB \$1 \$2 \$3 \$4 \$5;
#X msg 267 313 send /singleLED \$1 \$2 \$3 \$4;
#X msg 158 419 send /update;
#X msg 262 385 send /allOff;
#X msg 149 279 \$1 255 0 128;
#X msg 149 258 4;
#N canvas 475 300 420 454 arduino-in 0;
#X obj 85 73 tgl 15 0 empty empty empty 17 7 0 10 -262144 -1 -1 0 1
;
#X obj 85 93 sel 0 1;
#X msg 85 115 close;
#X msg 13 113 devices;
#X obj 72 168 t f f;
#X obj 117 217 list prepend;
#X obj 117 239 list trim;
#X obj 186 195 moses 10;
#X obj 72 194 moses 10;
#N canvas 235 180 450 300 debounce 0;
#X obj 91 56 inlet;
#X obj 91 174 outlet;
#X msg 150 101 0;
#X obj 152 145 delay 100;
#X msg 152 167 1;
#X obj 91 122 t a b b b;
#X msg 173 123 stop;
#X obj 91 100 spigot 1;
#X connect 0 0 7 0;
#X connect 2 0 7 1;
#X connect 3 0 4 0;
#X connect 4 0 7 1;
#X connect 5 0 1 0;
#X connect 5 1 2 0;
#X connect 5 2 3 0;
#X connect 5 3 6 0;
#X connect 6 0 3 0;
#X connect 7 0 5 0;
#X restore 308 208 pd debounce;
#N canvas 235 180 450 300 debounce 0;
#X obj 91 56 inlet;
#X obj 91 174 outlet;
#X msg 150 101 0;
#X obj 152 145 delay 100;
#X msg 152 167 1;
#X obj 91 122 t a b b b;
#X msg 173 123 stop;
#X obj 91 100 spigot 1;
#X connect 0 0 7 0;
#X connect 2 0 7 1;
#X connect 3 0 4 0;
#X connect 4 0 7 1;
#X connect 5 0 1 0;
#X connect 5 1 2 0;
#X connect 5 2 3 0;
#X connect 5 3 6 0;
#X connect 6 0 3 0;
#X connect 7 0 5 0;
#X restore 248 239 pd debounce;
#X msg 125 115 open 2;
#X obj 117 261 s piezo_input;
#X obj 109 346 piezo_processing 0;
#X obj 109 366 piezo_processing 1;
#X obj 72 146 comport 1 9600;
#X obj 152 70 loadbang;
#X connect 0 0 1 0;
#X connect 1 0 2 0;
#X connect 1 1 11 0;
#X connect 2 0 15 0;
#X connect 3 0 15 0;
#X connect 4 0 8 0;
#X connect 4 1 7 0;
#X connect 5 0 6 0;
#X connect 6 0 12 0;
#X connect 7 0 5 1;
#X connect 8 1 5 0;
#X connect 11 0 15 0;
#X connect 15 0 4 0;
#X connect 16 0 2 0;
#X restore 58 170 pd arduino-in;
#X obj 187 218 r singleLED;
#X obj 262 364 r allOff;
#X obj 229 452 spigot;
#X obj 262 407 t b a;
#X msg 262 429 1;
#X obj 229 474 t a b;
#X msg 277 463 0;
#X obj 158 397 r \$0-update_tick;
#X msg 356 442 send /fillRGB 255 0 0 0 15 \, send /update;
#X obj 728 16 r piezo_0_hit;
#X text 361 295 r \, g \, b \, index;
#X obj 228 35 loadbang;
#X msg 228 57 30;
#X obj 228 79 s strip_length;
#X msg 357 133 send /singleLED 255 0 128 \$1;
#X msg 728 210 send /multipleLED \$1 \$2 \$3 0 2 4 6 8 10 12 14 16
18 20 22 24 26 28;
#X msg 729 483 send /multipleLED \$1 \$2 \$3 1 3 5 7 9 11 13 15 17
19 21 23 25 27 29;
#X obj 728 168 min 255;
#X obj 788 168 min 255;
#X obj 848 168 min 255;
#X obj 728 61 line 16;
#X obj 729 461 pack f f f;
#X obj 729 418 int;
#X obj 789 418 int;
#X obj 849 418 int;
#X obj 849 396 * 255;
#X obj 729 440 min 255;
#X obj 789 440 min 255;
#X obj 849 440 min 255;
#X obj 729 396 * 255;
#X obj 789 396 * 0;
#X obj 728 102 t f f;
#X msg 729 308 1 \, 0 1000;
#X floatatom 729 352 5 0 0 0 - - -, f 5;
#X obj 729 330 line 16;
#X obj 729 371 t f f;
#X obj 729 285 r piezo_1_hit;
#N canvas 0 22 450 300 animations 0;
#N canvas 759 125 636 900 dot-chase 0;
#X obj 102 139 t a b;
#X obj 185 183 s allOff;
#X msg 102 161 \$1 255 255 0;
#X obj 102 183 s singleLED;
#X floatatom 106 101 5 0 0 0 - - -, f 5;
#X obj 274 181 until;
#X obj 274 106 f 30;
#X obj 274 128 max 1;
#X obj 274 233 f;
#X obj 300 233 + 1;
#X msg 289 211 0;
#X obj 274 150 t f b;
#X msg 261 81 30;
#X obj 295 83 r \$0-led_count;
#X obj 274 275 t f f;
#X obj 301 304 -;
#X obj 360 21 r \$0-dot_centre;
#X obj 360 43 t b f;
#X obj 301 626 / 30;
#X obj 322 584 r \$0-led_count;
#X obj 301 670 -;
#X msg 301 648 1 \$1;
#X obj 274 833 s singleLED;
#X obj 274 811 pack f f f f;
#X obj 301 784 int;
#X obj 301 723 pow 3;
#X floatatom 421 159 5 0 0 0 - - -, f 5;
#X msg 428 108 12;
#X obj 301 752 * 128;
#X obj 301 535 abs;
#X obj 301 421 moses 0;
#X obj 301 398 * -1;
#X obj 301 348 list trim;
#X obj 301 370 route -1 1 0;
#X msg 301 443 bang;
#X obj 322 468 r \$0-led_count;
#X obj 301 510 f 30;
#X obj 461 731 * 1;
#X msg 529 685 1;
#X obj 529 642 r \$0-direction;
#X obj 529 664 sel 0;
#X obj 381 305 r \$0-direction;
#X msg 501 102 -1;
#X msg 532 102 0;
#X msg 561 102 1;
#X obj 501 124 s \$0-direction;
#X msg 559 685 0.5;
#X obj 47 375 r \$0-tick;
#X obj 47 419 s \$0-dot_centre;
#X obj 529 707 t b f;
#X obj 461 614 r \$0-trail_length;
#X obj 461 701 pow 2;
#X msg 461 636 1 \$1;
#X obj 461 658 -;
#X obj 461 680 * 17;
#X floatatom 475 168 5 0 0 0 - - -, f 5;
#X obj 474 188 s \$0-trail_length;
#X obj 335 713 print;
#X obj 359 498 r oversampling;
#X obj 359 613 r oversampling;
#X msg 458 408 2;
#X obj 458 430 s oversampling;
#X obj 499 511 s \$0-led_count;
#X msg 499 482 30;
#X msg 434 391 1;
#X obj 322 490 * 1;
#X obj 322 605 * 1;
#X obj 301 557 mod 30;
#X obj 337 529 r \$0-led_count;
#X obj 47 397 * 1;
#X obj 301 326 list prepend 0;
#X connect 0 0 2 0;
#X connect 0 1 1 0;
#X connect 2 0 3 0;
#X connect 4 0 0 0;
#X connect 5 0 8 0;
#X connect 6 0 7 0;
#X connect 7 0 11 0;
#X connect 8 0 9 0;
#X connect 8 0 14 0;
#X connect 9 0 8 1;
#X connect 10 0 8 1;
#X connect 11 0 5 0;
#X connect 11 1 10 0;
#X connect 12 0 6 0;
#X connect 13 0 6 1;
#X connect 14 0 23 0;
#X connect 14 1 15 0;
#X connect 15 0 70 0;
#X connect 16 0 17 0;
#X connect 17 0 12 0;
#X connect 17 1 15 1;
#X connect 18 0 21 0;
#X connect 19 0 66 0;
#X connect 20 0 25 0;
#X connect 21 0 20 0;
#X connect 23 0 22 0;
#X connect 24 0 23 1;
#X connect 24 0 23 2;
#X connect 24 0 23 3;
#X connect 25 0 28 0;
#X connect 26 0 17 0;
#X connect 27 0 17 0;
#X connect 28 0 24 0;
#X connect 29 0 67 0;
#X connect 30 0 34 0;
#X connect 30 1 29 0;
#X connect 31 0 30 0;
#X connect 32 0 33 0;
#X connect 33 0 31 0;
#X connect 33 1 30 0;
#X connect 33 2 29 0;
#X connect 34 0 36 0;
#X connect 35 0 65 0;
#X connect 36 0 29 0;
#X connect 37 0 25 1;
#X connect 38 0 49 0;
#X connect 39 0 40 0;
#X connect 40 0 38 0;
#X connect 40 1 46 0;
#X connect 41 0 70 1;
#X connect 42 0 45 0;
#X connect 43 0 45 0;
#X connect 44 0 45 0;
#X connect 46 0 49 0;
#X connect 47 0 69 0;
#X connect 49 0 37 0;
#X connect 49 1 37 1;
#X connect 50 0 52 0;
#X connect 51 0 37 0;
#X connect 52 0 53 0;
#X connect 53 0 54 0;
#X connect 54 0 51 0;
#X connect 55 0 56 0;
#X connect 58 0 65 1;
#X connect 59 0 66 1;
#X connect 60 0 61 0;
#X connect 63 0 62 0;
#X connect 64 0 61 0;
#X connect 65 0 36 1;
#X connect 66 0 18 1;
#X connect 67 0 18 0;
#X connect 68 0 67 1;
#X connect 69 0 48 0;
#X connect 70 0 32 0;
#X restore 68 77 pd dot-chase;
#N canvas 591 341 450 300 even/odd 0;
#X obj 135 54 inlet;
#X obj 135 129 f 30;
#X obj 156 107 r strip_length;
#X obj 135 173 max 1;
#X obj 135 195 until;
#X obj 135 217 f;
#X obj 161 217 + 2;
#X obj 135 151 / 2;
#X obj 135 239 + 0;
#X obj 135 78 t b f b;
#X msg 174 129 0;
#X obj 135 261 outlet;
#X connect 0 0 9 0;
#X connect 1 0 7 0;
#X connect 2 0 1 1;
#X connect 3 0 4 0;
#X connect 4 0 5 0;
#X connect 5 0 6 0;
#X connect 5 0 8 0;
#X connect 6 0 5 1;
#X connect 7 0 3 0;
#X connect 8 0 11 0;
#X connect 9 0 1 0;
#X connect 9 1 8 1;
#X connect 9 2 10 0;
#X connect 10 0 5 1;
#X restore 175 153 pd even/odd;
#X obj 174 135 tgl 15 0 empty empty empty 17 7 0 10 -262144 -1 -1 0
1;
#X connect 2 0 1 0;
#X restore 58 191 pd animations;
#X floatatom 366 100 5 0 0 0 - - -, f 5;
#N canvas 0 23 503 803 vis 0;
#X obj 244 715 +;
#X obj 244 659 t b f;
#X obj 94 715 +;
#X obj 94 659 t b f;
#X obj 94 737 * -1;
#X obj 141 790 +;
#X obj 141 736 t b f;
#X obj 244 690 f;
#X obj 94 685 f;
#X obj 141 763 f;
#X obj 141 812 spigot 1;
#X obj 141 914 s #force;
#X obj 197 744 r ignore-force;
#X obj 197 770 t b a;
#X obj 256 892 line;
#X obj 289 781 > 0;
#X msg 289 825 -1;
#X obj 289 803 sel 0;
#X obj 256 848 *;
#X msg 256 801 20;
#X msg 256 870 \$1 5000;
#X obj 357 417 poofer 12;
#X floatatom 155 845 5 0 0 0 - - -, f 5;
#X floatatom 138 702 5 0 0 0 - - -, f 5;
#X floatatom 224 812 5 0 0 0 - - -, f 5;
#X msg 210 856 1;
#X obj 408 66 poofer 24;
#X obj 357 475 poofer 10;
#X obj 357 590 poofer 6;
#X obj 357 764 poofer 0;
#X obj 357 503 poofer 9;
#X obj 357 359 poofer 14;
#X obj 357 388 poofer 13;
#X obj 357 735 poofer 1;
#X obj 357 446 poofer 11;
#X obj 357 619 poofer 5;
#X obj 357 301 poofer 16;
#X obj 357 706 poofer 2;
#X obj 357 330 poofer 15;
#X obj 357 561 poofer 7;
#X obj 357 243 poofer 18;
#X obj 357 214 poofer 19;
#X obj 357 677 poofer 3;
#X obj 357 648 poofer 4;
#X obj 357 272 poofer 17;
#X obj 357 532 poofer 8;
#X obj 357 185 poofer 20;
#X obj 357 156 poofer 21;
#X obj 357 98 poofer 23;
#X obj 357 127 poofer 22;
#X obj 312 63 poofer 25;
#X connect 0 0 6 0;
#X connect 0 0 23 0;
#X connect 1 0 7 0;
#X connect 1 1 0 1;
#X connect 2 0 4 0;
#X connect 3 0 8 0;
#X connect 3 1 2 1;
#X connect 4 0 9 0;
#X connect 5 0 10 0;
#X connect 5 0 15 0;
#X connect 6 0 9 0;
#X connect 6 1 5 1;
#X connect 7 0 0 0;
#X connect 8 0 2 0;
#X connect 9 0 5 0;
#X connect 10 0 11 0;
#X connect 10 0 22 0;
#X connect 12 0 13 0;
#X connect 15 0 17 0;
#X connect 16 0 18 1;
#X connect 17 0 16 0;
#X connect 17 1 18 1;
#X connect 18 0 20 0;
#X connect 19 0 18 0;
#X connect 20 0 14 0;
#X connect 21 0 34 0;
#X connect 25 0 10 1;
#X connect 26 0 48 0;
#X connect 27 0 30 0;
#X connect 28 0 35 0;
#X connect 29 0 1 0;
#X connect 30 0 45 0;
#X connect 31 0 32 0;
#X connect 32 0 21 0;
#X connect 33 0 29 0;
#X connect 34 0 27 0;
#X connect 35 0 43 0;
#X connect 36 0 38 0;
#X connect 37 0 33 0;
#X connect 38 0 31 0;
#X connect 39 0 28 0;
#X connect 40 0 44 0;
#X connect 41 0 40 0;
#X connect 42 0 37 0;
#X connect 43 0 42 0;
#X connect 44 0 36 0;
#X connect 45 0 39 0;
#X connect 46 0 41 0;
#X connect 47 0 46 0;
#X connect 48 0 49 0;
#X connect 49 0 47 0;
#X connect 50 0 26 0;
#X restore 59 217 pd vis;
#N canvas 649 371 1436 560 sequence 0;
#X obj 94 22 r #start-sequence;
#X obj 94 44 t b b;
#X obj 121 66 s reset-timebase;
#X msg 94 86 1;
#X obj 42 151 spigot;
#X obj 66 15 bng 15 250 50 0 empty empty empty 17 7 0 10 -262144 -1
-1;
#X obj 253 23 bng 15 250 50 0 empty empty empty 17 7 0 10 -262144 -1
-1;
#X obj 253 43 s #all-off;
#X obj 42 452 s settings-list;
#X obj 841 58 r settings-list;
#X obj 841 384 s mode;
#X obj 841 80 unpack s s f f;
#X obj 154 45 bng 15 250 50 0 empty empty empty 17 7 0 10 -262144 -1
-1;
#X obj 1273 237 symbol;
#X obj 1273 259 s branch;
#X obj 841 362 symbol;
#X obj 428 58 bng 50 250 50 0 empty empty Start 17 -10 0 10 -262144
-1 -1;
#X obj 429 137 s #start-sequence;
#X obj 42 108 r sequence-time-elapsed;
#X floatatom 51 131 5 0 0 0 - - -, f 5;
#X msg 841 218 cycle-up;
#X msg 850 237 cycle-down;
#X msg 856 256 cycle-up-down;
#X obj 841 102 sel any-cycle;
#X obj 42 173 moses 30;
#X obj 310 173 moses 90;
#X obj 951 175 random 8;
#X obj 951 197 + 1;
#X obj 951 269 s #branch-index;
#X msg 855 133 clear \, bang;
#X obj 265 452 s trail-length-ramp;
#X obj 952 406 line;
#X obj 952 384 r trail-length-ramp;
#X obj 952 468 s #trail-length;
#X obj 685 282 s #all-off;
#X obj 518 177 moses 120;
#X obj 957 93 s trail-length-ramp;
#X obj 1072 406 line;
#X obj 1072 384 r auto-speed-ramp;
#X obj 141 452 s auto-speed-ramp;
#X obj 948 116 s auto-speed-ramp;
#X obj 1072 468 s #auto-speed;
#X floatatom 910 470 5 0 0 0 - - -, f 5;
#X floatatom 1052 484 5 0 0 0 - - -, f 5;
#X msg 1033 226 9;
#X msg 1063 226 8;
#X msg 1093 227 3;
#X obj 1033 175 random 3;
#X obj 1033 197 sel 0 1 2;
#X obj 310 290 t b b;
#X obj 337 312 s reset-timebase;
#X obj 951 153 sel any-branch any-cw-branch any-both-branch;
#X msg 1123 226 8;
#X msg 1153 226 6;
#X obj 329 363 t b b;
#X obj 356 385 s reset-timebase;
#X obj 310 247 tgl 15 0 empty empty empty 17 7 0 10 -262144 -1 -1 0
1;
#X obj 310 267 sel 0 1;
#X obj 518 199 - 90;
#X obj 310 195 - 30;
#X obj 685 233 - 120;
#X obj 685 258 sel 0;
#X obj 1123 175 random 4;
#X msg 1183 227 3;
#X msg 1214 228 2;
#X obj 1123 197 sel 0 1 2 4;
#X msg 42 256 cycle-up all 550 700;
#X obj 230 300 sel 20 50;
#X obj 78 282 t a a;
#X msg 54 306 400 \, 100 10000;
#X msg 89 335 left cw-both 200 200;
#X msg 72 386 any-cycle any-cw-branch 200 250;
#X msg 82 406 genome cw-single 200 250;
#X msg 310 336 genome-repeat cw-single 150 250;
#X msg 329 408 euclid any-both-branch 200 150;
#X msg 518 311 any-cycle any-cw-branch 200 125;
#X floatatom 966 455 5 0 0 0 - - -, f 5;
#X obj 952 433 min 250;
#X msg 871 278 spiral;
#X msg 880 297 spiral-2;
#X msg 886 316 spiral-down;
#X msg 896 336 spiral-2-down;
#X obj 841 196 sel 0 1 2 3 4 5 6;
#X obj 841 155 c_urn7;
#X obj 1072 428 max 50;
#X msg 1129 434 50;
#X obj 540 287 t a a a;
#X msg 540 336 75 10000;
#X msg 550 356 150 10000;
#X msg 567 412 all;
#X obj 567 444 symbol;
#X obj 567 390 t a a a;
#X msg 610 413 75;
#X msg 641 413 150;
#X obj 567 468 s branch;
#X obj 310 225 sel 5;
#X obj 42 233 sel 1 8 10 11 12 13 14 15 16 17 18;
#X msg 620 345 left cw-both 150 150;
#X msg 630 369 left cw-both 200 200;
#X obj 518 252 sel 0 7 22 26 27 28 29 30;
#X msg 428 113 1;
#X connect 0 0 1 0;
#X connect 1 0 3 0;
#X connect 1 1 2 0;
#X connect 3 0 4 1;
#X connect 4 0 24 0;
#X connect 5 0 1 0;
#X connect 6 0 7 0;
#X connect 9 0 11 0;
#X connect 11 0 23 0;
#X connect 11 1 51 0;
#X connect 11 2 40 0;
#X connect 11 3 36 0;
#X connect 12 0 2 0;
#X connect 13 0 14 0;
#X connect 15 0 10 0;
#X connect 16 0 100 0;
#X connect 18 0 4 0;
#X connect 18 0 19 0;
#X connect 20 0 15 0;
#X connect 21 0 15 0;
#X connect 22 0 15 0;
#X connect 23 0 83 0;
#X connect 23 1 15 0;
#X connect 24 0 96 0;
#X connect 24 1 25 0;
#X connect 25 0 59 0;
#X connect 25 1 35 0;
#X connect 26 0 27 0;
#X connect 27 0 28 0;
#X connect 29 0 83 0;
#X connect 31 0 42 0;
#X connect 31 0 77 0;
#X connect 32 0 31 0;
#X connect 35 0 58 0;
#X connect 35 1 60 0;
#X connect 37 0 43 0;
#X connect 37 0 84 0;
#X connect 38 0 37 0;
#X connect 44 0 28 0;
#X connect 45 0 28 0;
#X connect 46 0 28 0;
#X connect 47 0 48 0;
#X connect 48 0 44 0;
#X connect 48 1 45 0;
#X connect 48 2 46 0;
#X connect 49 0 73 0;
#X connect 49 1 50 0;
#X connect 51 0 26 0;
#X connect 51 1 47 0;
#X connect 51 2 62 0;
#X connect 51 3 13 0;
#X connect 52 0 28 0;
#X connect 53 0 28 0;
#X connect 54 0 74 0;
#X connect 54 1 55 0;
#X connect 56 0 57 0;
#X connect 57 0 49 0;
#X connect 57 1 54 0;
#X connect 58 0 99 0;
#X connect 59 0 95 0;
#X connect 60 0 61 0;
#X connect 61 0 34 0;
#X connect 62 0 65 0;
#X connect 63 0 28 0;
#X connect 64 0 28 0;
#X connect 65 0 52 0;
#X connect 65 1 53 0;
#X connect 65 2 63 0;
#X connect 65 3 64 0;
#X connect 66 0 8 0;
#X connect 67 0 71 0;
#X connect 67 1 72 0;
#X connect 68 0 69 0;
#X connect 68 1 70 0;
#X connect 69 0 39 0;
#X connect 70 0 8 0;
#X connect 71 0 8 0;
#X connect 72 0 8 0;
#X connect 73 0 8 0;
#X connect 74 0 8 0;
#X connect 75 0 8 0;
#X connect 77 0 33 0;
#X connect 77 0 76 0;
#X connect 78 0 15 0;
#X connect 79 0 15 0;
#X connect 80 0 15 0;
#X connect 81 0 15 0;
#X connect 82 0 20 0;
#X connect 82 1 21 0;
#X connect 82 2 22 0;
#X connect 82 3 78 0;
#X connect 82 4 79 0;
#X connect 82 5 80 0;
#X connect 82 6 81 0;
#X connect 83 0 82 0;
#X connect 83 1 29 0;
#X connect 84 0 41 0;
#X connect 85 0 41 0;
#X connect 86 0 87 0;
#X connect 86 1 88 0;
#X connect 86 2 75 0;
#X connect 87 0 39 0;
#X connect 88 0 30 0;
#X connect 89 0 90 0;
#X connect 90 0 94 0;
#X connect 91 0 89 0;
#X connect 91 1 92 0;
#X connect 91 2 93 0;
#X connect 92 0 39 0;
#X connect 93 0 30 0;
#X connect 95 0 56 0;
#X connect 96 0 66 0;
#X connect 96 2 68 0;
#X connect 96 3 70 0;
#X connect 96 4 70 0;
#X connect 96 5 70 0;
#X connect 96 6 70 0;
#X connect 96 7 70 0;
#X connect 96 8 70 0;
#X connect 96 9 70 0;
#X connect 96 10 70 0;
#X connect 96 11 67 0;
#X connect 97 0 8 0;
#X connect 98 0 8 0;
#X connect 99 0 75 0;
#X connect 99 1 86 0;
#X connect 99 2 91 0;
#X connect 99 3 97 0;
#X connect 99 4 97 0;
#X connect 99 5 97 0;
#X connect 99 6 98 0;
#X connect 99 7 98 0;
#X connect 100 0 17 0;
#X restore 59 239 pd sequence;
#N canvas 320 128 604 825 dmx 0;
#X obj 110 604 sendOSC;
#X obj 110 508 r toDMX;
#X obj 55 54 sel 1;
#X obj 55 207 f;
#X obj 82 207 + 1;
#X obj 55 316 mod 2;
#X obj 55 339 * 255;
#X msg 55 413 send /dmx/universe/1/1 \$1 \, send /dmx/universe/1/2
\$1 \, send /dmx/universe/1/3 \$1 \, send /dmx/universe/1/5 \$1 \,
send /dmx/universe/1/6 \$1 \, send /dmx/universe/1/7 \$1 \, send /dmx/universe/1/9
\$1 \, send /dmx/universe/1/10 \$1 \, send /dmx/universe/1/11 \$1 \,
send /dmx/universe/1/13 \$1 \, send /dmx/universe/1/14 \$1 \, send
/dmx/universe/1/15 \$1;
#X obj 124 143 tgl 15 0 empty empty empty 17 7 0 10 -262144 -1 -1 0
1;
#X obj 55 387 min 255;
#X obj 55 177 metro 50;
#X obj 55 294 f;
#X obj 82 294 + 1;
#X obj 55 268 sel 0;
#X obj 55 243 mod 2;
#X obj 166 237 +~ 1;
#X obj 149 294 snapshot~;
#X obj 166 213 osc~ 0.2;
#X obj 166 262 *~ 128;
#X msg 55 111 1;
#X obj 55 85 t b b;
#X obj 91 107 del 2000;
#X msg 91 132 0;
#X obj 55 364 + 0;
#X obj 126 59 bng 15 250 50 0 empty empty empty 17 7 0 10 -262144 -1
-1;
#X obj 121 533 loadbang;
#X obj 121 555 del 500;
#X obj 110 626 sel 1;
#X text 171 704 Turn all shutters on when we know we're succesfully
connected;
#X obj 55 30 r #start-sequence;
#X msg 191 550 disconnect;
#X msg 146 394 0;
#X text 347 266 Lamp 1 - Ch 1;
#X text 347 286 Lamp 2 - Ch 9;
#X text 347 306 Lamp 3 - Ch 17;
#X text 347 326 Lamp 4 - Ch 25;
#X msg 172 610 send /dmx/universe/1/1 255 \, send /dmx/universe/1/5
0 \, send /dmx/universe/1/6 0 \, send /dmx/universe/1/9 255 \, send
/dmx/universe/1/13 0 \, send /dmx/universe/1/14 0 \, send /dmx/universe/1/17
255 \, send /dmx/universe/1/21 0 \, send /dmx/universe/1/22 0 \, send
/dmx/universe/1/25 255 \, send /dmx/universe/1/29 0 \, send /dmx/universe/1/30
0;
#X msg 265 570 connect localhost 7770;
#X msg 121 579 connect 192.168.0.52 7770;
#X msg 244 362 send /dmx/universe/1/1 \$1;
#X floatatom 242 321 5 0 0 0 - - -, f 5;
#X msg 201 128 1;
#X connect 0 0 27 0;
#X connect 2 0 20 0;
#X connect 3 0 4 0;
#X connect 3 0 14 0;
#X connect 4 0 3 1;
#X connect 5 0 6 0;
#X connect 6 0 23 0;
#X connect 8 0 10 0;
#X connect 9 0 7 0;
#X connect 10 0 3 0;
#X connect 11 0 12 0;
#X connect 11 0 5 0;
#X connect 12 0 11 1;
#X connect 13 0 11 0;
#X connect 14 0 13 0;
#X connect 15 0 18 0;
#X connect 17 0 15 0;
#X connect 18 0 16 0;
#X connect 19 0 10 0;
#X connect 20 0 19 0;
#X connect 20 1 21 0;
#X connect 21 0 22 0;
#X connect 22 0 10 0;
#X connect 23 0 9 0;
#X connect 24 0 20 0;
#X connect 26 0 38 0;
#X connect 27 0 36 0;
#X connect 29 0 2 0;
#X connect 30 0 0 0;
#X connect 31 0 7 0;
#X connect 36 0 0 0;
#X connect 38 0 0 0;
#X connect 39 0 0 0;
#X connect 40 0 39 0;
#X connect 41 0 2 0;
#X restore 58 274 pd dmx;
#N canvas 277 31 967 682 unity 1;
#X obj 162 396 sendOSC;
#X obj 173 325 loadbang;
#X obj 173 347 del 500;
#X obj 162 418 sel 1;
#X floatatom 202 432 5 0 0 0 - - -, f 5;
#X floatatom 218 407 5 0 0 0 - - -, f 5;
#X msg 173 371 disconnect \, connect localhost 55555;
#X obj 136 52 r \$0-tick;
#X obj 136 96 int;
#X obj 136 118 change;
#X obj 136 141 mod 50;
#X obj 136 163 t f f;
#X obj 188 200 div 25;
#X obj 136 199 mod 25;
#X obj 136 243 pack f f;
#X obj 136 74 / 1;
#X msg 137 274 send /poofer_\$1_\$2 16000;
#X obj 231 73 r #toGPIO;
#X obj 266 106 unpack f f;
#X floatatom 266 128 5 0 0 0 - - -, f 5;
#X floatatom 324 125 5 0 0 0 - - -, f 5;
#X msg 259 158 send /poofer_\$1_0 \$2;
#X msg 267 324 send /motorSpeed \$1;
#X floatatom 266 301 5 0 0 0 - - -, f 5;
#X obj 330 188 r #force;
#X obj 330 262 line;
#X floatatom 393 270 5 0 0 0 - - -, f 5;
#X msg 330 241 \$1 5000;
#X obj 330 210 * 10;
#X obj 477 48 r \$0-tick;
#X obj 477 92 int;
#X obj 477 114 change;
#X obj 477 70 / 1;
#X obj 477 181 change;
#X obj 477 137 mod 12;
#X obj 477 159 div 4;
#X obj 477 203 t f b;
#X obj 477 225 sel 0 1 2 3;
#X obj 477 361 pack s f f f;
#X obj 567 256 t b b b;
#X obj 567 278 random 255;
#X obj 577 298 random 255;
#X obj 587 318 random 255;
#X obj 477 551 print;
#X msg 477 247 /light_N;
#X msg 487 267 /light_E;
#X msg 497 288 /light_S;
#X msg 508 307 /light_W;
#X obj 477 383 unpack s f f f;
#X msg 504 434 \$1 \, 0 \$2;
#X obj 504 411 pack f f;
#X obj 504 456 line;
#X msg 564 434 \$1 \, 0 \$2;
#X obj 564 411 pack f f;
#X obj 564 456 line;
#X msg 624 434 \$1 \, 0 \$2;
#X obj 624 411 pack f f;
#X obj 624 456 line;
#X obj 504 478 t b f;
#X msg 477 529 send \$2 \$3 \$4 \$5;
#X obj 469 504 pack f s f f f;
#X obj 608 364 t f;
#X floatatom 644 352 5 0 0 0 - - -, f 5;
#X msg 603 534 send /light_N 0 0 0 \, send /light_E 0 0 0 \, send /light_S
0 0 0 \, send /light_W 0 0 0;
#X msg 592 159 send /light_N \$1 \$2 \$3 \, send /light_E \$1 \$2 \$3
\, send /light_S \$1 \$2 \$3 \, send /light_W \$1 \$2 \$3;
#X connect 0 0 3 0;
#X connect 0 0 4 0;
#X connect 0 1 5 0;
#X connect 1 0 2 0;
#X connect 2 0 6 0;
#X connect 6 0 0 0;
#X connect 8 0 9 0;
#X connect 9 0 10 0;
#X connect 10 0 11 0;
#X connect 11 0 13 0;
#X connect 11 1 12 0;
#X connect 12 0 14 1;
#X connect 13 0 14 0;
#X connect 14 0 16 0;
#X connect 15 0 8 0;
#X connect 16 0 0 0;
#X connect 17 0 18 0;
#X connect 17 0 21 0;
#X connect 18 0 19 0;
#X connect 18 1 20 0;
#X connect 21 0 0 0;
#X connect 22 0 0 0;
#X connect 23 0 22 0;
#X connect 24 0 26 0;
#X connect 24 0 28 0;
#X connect 25 0 22 0;
#X connect 27 0 25 0;
#X connect 28 0 27 0;
#X connect 29 0 32 0;
#X connect 30 0 31 0;
#X connect 31 0 34 0;
#X connect 32 0 30 0;
#X connect 33 0 36 0;
#X connect 34 0 35 0;
#X connect 35 0 33 0;
#X connect 36 0 37 0;
#X connect 36 1 39 0;
#X connect 37 0 44 0;
#X connect 37 1 45 0;
#X connect 37 2 46 0;
#X connect 37 3 47 0;
#X connect 38 0 48 0;
#X connect 39 0 40 0;
#X connect 39 1 41 0;
#X connect 39 2 42 0;
#X connect 40 0 38 1;
#X connect 41 0 38 2;
#X connect 42 0 38 3;
#X connect 44 0 38 0;
#X connect 45 0 38 0;
#X connect 46 0 38 0;
#X connect 47 0 38 0;
#X connect 48 0 60 1;
#X connect 48 1 50 0;
#X connect 48 2 53 0;
#X connect 48 3 56 0;
#X connect 49 0 51 0;
#X connect 50 0 49 0;
#X connect 51 0 58 0;
#X connect 52 0 54 0;
#X connect 53 0 52 0;
#X connect 54 0 60 3;
#X connect 55 0 57 0;
#X connect 56 0 55 0;
#X connect 57 0 60 4;
#X connect 58 0 60 0;
#X connect 58 1 60 2;
#X connect 59 0 0 0;
#X connect 59 0 43 0;
#X connect 61 0 50 1;
#X connect 61 0 53 1;
#X connect 61 0 56 1;
#X connect 62 0 61 0;
#X connect 63 0 0 0;
#X connect 64 0 0 0;
#X restore 53 306 pd unity;
#N canvas 107 23 1220 855 helix 0;
#X msg 31 216 chase;
#X msg 61 276 cycle-up-down;
#X obj 31 96 r #mode-index;
#X obj 31 120 swap 16;
#X obj 31 142 -;
#X obj 70 620 t b a;
#X obj 70 678 s #slider;
#X obj 70 654 random 1000;
#X obj 310 730 s single-on;
#X msg 310 202 cw-single;
#X obj 310 404 symbol;
#X msg 320 222 cw-both;
#X msg 330 242 ccw-single;
#X msg 340 262 ccw-both;
#X obj 310 426 s branch;
#N canvas 291 88 712 706 blocks 0;
#X obj 49 256 t b b;
#X obj 49 363 f;
#X obj 75 363 + 1;
#X msg 78 336 0;
#X obj 49 385 t f f;
#X obj 49 497 mod 2;
#X obj 49 621 f;
#X obj 49 519 sel 0;
#X msg 49 429 \$2 \$1;
#X obj 89 497 mod 2;
#X obj 89 519 sel 1;
#X obj 49 407 pack f s;
#X obj 101 385 symbol;
#X msg 99 181 even;
#X msg 59 181 odd;
#X obj 49 643 outlet;
#X obj 49 233 t b a;
#X obj 132 572 sel 1;
#X obj 139 93 r tick;
#X obj 139 158 sel 0;
#X obj 139 136 mod 16;
#X obj 49 22 r mode;
#X obj 49 44 symbol;
#X obj 139 114 spigot;
#X msg 189 88 1;
#X msg 220 89 0;
#X msg 139 181 all;
#X obj 189 66 sel all-flashing;
#X obj 189 44 symbol;
#X obj 178 551 +;
#X obj 178 573 sel 2;
#X obj 178 529 >= 6;
#X obj 208 529 < 12;
#X obj 178 506 t f f;
#X obj 248 551 +;
#X obj 248 573 sel 2;
#X obj 248 506 t f f;
#X obj 248 529 >= 12;
#X obj 328 551 +;
#X obj 328 573 sel 2;
#X obj 288 529 < 18;
#X obj 328 529 >= 18;
#X obj 415 543 sel 1;
#X obj 415 521 < 24;
#X obj 328 506 t f f;
#X obj 368 529 < 24;
#X obj 49 300 until;
#X msg 211 216 bottom6;
#X obj 132 550 < 6;
#X msg 211 195 bottom-middle6;
#X msg 211 153 top6;
#X msg 211 174 top-middle6;
#X msg 49 278 24;
#X msg 321 174 top8;
#X msg 321 195 middle8;
#X msg 321 216 bottom8;
#X obj 49 451 route odd even bottom6 bottom-middle6 top-middle6 top6
all bottom8 middle8 top8;
#X obj 463 543 sel 1;
#X obj 510 545 +;
#X obj 510 567 sel 2;
#X obj 510 500 t f f;
#X obj 580 546 +;
#X obj 580 568 sel 2;
#X obj 580 501 t f f;
#X obj 620 524 < 24;
#X obj 463 521 < 8;
#X obj 510 523 >= 8;
#X obj 540 523 < 16;
#X obj 580 524 >= 16;
#X connect 0 0 52 0;
#X connect 0 1 3 0;
#X connect 1 0 2 0;
#X connect 1 0 4 0;
#X connect 2 0 1 1;
#X connect 3 0 1 1;
#X connect 4 0 11 0;
#X connect 4 1 6 1;
#X connect 5 0 7 0;
#X connect 6 0 15 0;
#X connect 7 0 6 0;
#X connect 8 0 56 0;
#X connect 9 0 10 0;
#X connect 10 0 6 0;
#X connect 11 0 8 0;
#X connect 12 0 11 1;
#X connect 13 0 16 0;
#X connect 14 0 16 0;
#X connect 16 0 0 0;
#X connect 16 1 12 0;
#X connect 17 0 6 0;
#X connect 18 0 23 0;
#X connect 19 0 26 0;
#X connect 20 0 19 0;
#X connect 21 0 22 0;
#X connect 21 0 28 0;
#X connect 22 0 16 0;
#X connect 23 0 20 0;
#X connect 24 0 23 1;
#X connect 25 0 23 1;
#X connect 26 0 16 0;
#X connect 27 0 24 0;
#X connect 27 1 25 0;
#X connect 28 0 27 0;
#X connect 29 0 30 0;
#X connect 30 0 6 0;
#X connect 31 0 29 0;
#X connect 32 0 29 1;
#X connect 33 0 31 0;
#X connect 33 1 32 0;
#X connect 34 0 35 0;
#X connect 35 0 6 0;
#X connect 36 0 37 0;
#X connect 36 1 40 0;
#X connect 37 0 34 0;
#X connect 38 0 39 0;
#X connect 39 0 6 0;
#X connect 40 0 34 1;
#X connect 41 0 38 0;
#X connect 42 0 6 0;
#X connect 43 0 42 0;
#X connect 44 0 41 0;
#X connect 44 1 45 0;
#X connect 45 0 38 1;
#X connect 46 0 1 0;
#X connect 47 0 16 0;
#X connect 48 0 17 0;
#X connect 49 0 16 0;
#X connect 50 0 16 0;
#X connect 51 0 16 0;
#X connect 52 0 46 0;
#X connect 53 0 16 0;
#X connect 54 0 16 0;
#X connect 55 0 16 0;
#X connect 56 0 5 0;
#X connect 56 1 9 0;
#X connect 56 2 48 0;
#X connect 56 3 33 0;
#X connect 56 4 36 0;
#X connect 56 5 44 0;
#X connect 56 6 43 0;
#X connect 56 7 65 0;
#X connect 56 8 60 0;
#X connect 56 9 63 0;
#X connect 57 0 6 0;
#X connect 58 0 59 0;
#X connect 59 0 6 0;
#X connect 60 0 66 0;
#X connect 60 1 67 0;
#X connect 61 0 62 0;
#X connect 62 0 6 0;
#X connect 63 0 68 0;
#X connect 63 1 64 0;
#X connect 64 0 61 1;
#X connect 65 0 57 0;
#X connect 66 0 58 0;
#X connect 67 0 58 1;
#X connect 68 0 61 0;
#X restore 361 482 pd blocks;
#X msg 350 282 opposing-1;
#X msg 360 302 opposing-2;
#X obj 310 73 r #branch-index;
#N canvas 668 135 585 542 auto 0;
#X obj 77 346 int;
#X obj 122 153 r mode;
#X obj 77 82 r tick;
#X obj 77 124 spigot;
#X msg 77 218 \$2 \$1;
#X obj 77 196 pack f s;
#N canvas 599 312 304 449 chase 0;
#X obj 171 184 random 2;
#X obj 81 272 f;
#X obj 107 272 + 1;
#X obj 171 206 sel 0 1;
#X msg 171 228 -1;
#X msg 201 228 1;
#X obj 81 78 t b f;
#X obj 108 122 sel 0;
#X obj 108 149 t b b;
#X obj 108 100 mod 10;
#X obj 81 47 inlet;
#X obj 81 374 outlet;
#X obj 159 140 r layers-count;
#X obj 81 294 mod 124;
#X obj 108 184 random 24;
#X connect 0 0 3 0;
#X connect 1 0 2 0;
#X connect 1 0 13 0;
#X connect 2 0 1 1;
#X connect 3 0 4 0;
#X connect 3 1 5 0;
#X connect 4 0 2 1;
#X connect 5 0 2 1;
#X connect 6 0 1 0;
#X connect 6 1 9 0;
#X connect 7 0 8 0;
#X connect 8 0 14 0;
#X connect 8 1 0 0;
#X connect 9 0 7 0;
#X connect 10 0 6 0;
#X connect 12 0 13 1;
#X connect 12 0 14 1;
#X connect 13 0 11 0;
#X connect 14 0 1 1;
#X restore 77 286 pd chase;
#N canvas 825 357 240 369 cycle-up 0;
#X obj 81 47 inlet;
#X obj 81 274 outlet;
#X obj 81 91 mod 24;
#X obj 114 68 r layers-count;
#X connect 0 0 2 0;
#X connect 2 0 1 0;
#X connect 3 0 2 1;
#X restore 237 286 pd cycle-up;
#N canvas 172 56 291 360 cycle-down 0;
#X obj 81 47 inlet;
#X obj 81 274 outlet;
#X obj 81 195 -;
#X obj 139 65 r layers-count;
#X obj 81 91 mod 24;
#X obj 81 173 swap 24;
#X connect 0 0 4 0;
#X connect 2 0 1 0;
#X connect 3 0 4 1;
#X connect 3 0 5 1;
#X connect 4 0 5 0;
#X connect 5 0 2 0;
#X connect 5 1 2 1;
#X restore 147 286 pd cycle-down;
#N canvas 806 477 504 514 cycle-up-down 0;
#X obj 81 47 inlet;
#X obj 81 404 outlet;
#X obj 81 69 t b;
#X obj 81 91 f;
#X obj 107 91 + 1;
#X obj 81 183 t f f;
#X msg 108 367 1;
#X msg 137 367 -1;
#X obj 108 227 pack f s;
#X obj 153 206 r branch;
#X msg 108 249 \$2 \$1;
#X obj 108 279 route cw-both ccw-both cw-single ccw-single all opposing-1
opposing-2 cw-inverse ccw-inverse;
#X obj 108 345 sel 1 7;
#X obj 139 65 r layers-count;
#X obj 81 113 mod 24;
#X obj 168 345 sel 1 22;
#X connect 0 0 2 0;
#X connect 2 0 3 0;
#X connect 3 0 4 0;
#X connect 3 0 14 0;
#X connect 4 0 3 1;
#X connect 5 0 1 0;
#X connect 5 1 8 0;
#X connect 6 0 4 1;
#X connect 7 0 4 1;
#X connect 8 0 10 0;
#X connect 9 0 8 1;
#X connect 10 0 11 0;
#X connect 11 0 12 0;
#X connect 11 1 12 0;
#X connect 11 2 15 0;
#X connect 11 3 15 0;
#X connect 11 4 12 0;
#X connect 11 5 12 0;
#X connect 11 6 12 0;
#X connect 11 7 12 0;
#X connect 11 8 12 0;
#X connect 12 0 6 0;
#X connect 12 1 7 0;
#X connect 13 0 14 1;
#X connect 14 0 5 0;
#X connect 15 0 6 0;
#X connect 15 1 7 0;
#X restore 317 286 pd cycle-up-down;
#X obj 128 29 r mode;
#X msg 128 99 1;
#X msg 399 92 0;
#X obj 77 368 outlet;
#X obj 122 175 symbol;
#X obj 77 241 route chase cycle-down cycle-up cycle-inverse cycle-up-down
;
#X obj 128 52 sel chase cycle-down cycle-up cycle-inverse cycle-up-down
;
#X obj 77 318 mod 24;
#X connect 0 0 13 0;
#X connect 1 0 14 0;
#X connect 2 0 3 0;
#X connect 3 0 5 0;
#X connect 4 0 15 0;
#X connect 5 0 4 0;
#X connect 6 0 17 0;
#X connect 7 0 17 0;
#X connect 8 0 17 0;
#X connect 9 0 17 0;
#X connect 10 0 16 0;
#X connect 11 0 3 1;
#X connect 12 0 3 1;
#X connect 14 0 5 1;
#X connect 15 0 6 0;
#X connect 15 1 8 0;
#X connect 15 2 7 0;
#X connect 15 4 9 0;
#X connect 16 0 11 0;
#X connect 16 1 11 0;
#X connect 16 2 11 0;
#X connect 16 3 11 0;
#X connect 16 4 11 0;
#X connect 16 5 12 0;
#X connect 17 0 0 0;
#X restore 310 482 pd auto;
#X msg 121 435 middle3;
#X obj 219 132 loadbang;
#X obj 909 21 vsl 20 150 0 23 0 0 empty empty empty 0 -9 0 10 -262144
-1 -1 0 1;
#X obj 909 179 int;
#X obj 909 201 change;
#X obj 991 70 hsl 128 15 0 3000 0 0 empty empty empty -2 -8 0 10 -262144
-1 -1 0 1;
#X floatatom 997 90 5 0 0 0 - - -, f 5;
#X obj 991 185 hsl 128 15 1000 40 0 0 empty empty empty -2 -8 0 10
-262144 -1 -1 0 1;
#X floatatom 998 205 5 0 0 0 - - -, f 5;
#X obj 988 160 s #trail-length;
#X obj 988 223 s #auto-speed;
#X obj 909 223 s #slider;
#X obj 988 130 max 100;
#X obj 1027 109 r #auto-speed;
#X symbolatom 172 774 15 0 0 0 - - -, f 15;
#X obj 172 750 symbol;
#X obj 172 726 r mode;
#X msg 150 544 all-flashing;
#X obj 382 120 r mode;
#X obj 310 95 swap 9;
#X obj 310 117 -;
#X obj 310 174 sel 0 1 2 3 4 5 6 7 8;
#X obj 31 188 sel 0 1 2 3 4 5 6 7 8 9 10 11 12 13 14 15;
#X obj 627 23 r #start-sequence;
#X obj 627 569 s #mode-index;
#X obj 627 45 t a a a;
#X obj 745 157 s #trail-length;
#X msg 662 364 0;
#X obj 833 515 symbol;
#X msg 745 135 500;
#X obj 627 524 random 5;
#X obj 627 480 metro 4000;
#X obj 627 546 + 12;
#X obj 722 574 s #branch-index;
#X obj 722 544 + 0;
#X obj 722 522 random 9;
#X msg 370 322 cw-inverse;
#X msg 380 342 ccw-inverse;
#X msg 390 362 all;
#X msg 41 236 cycle-up;
#X msg 51 256 cycle-down;
#X obj 662 386 t b f;
#X msg 662 73 1;
#X obj 662 95 metro 1000;
#X msg 627 281 1;
#X obj 662 281 sel 0;
#X obj 745 420 s #time-remaining-label;
#X obj 790 355 mod 60;
#X floatatom 802 381 5 0 0 0 - - -, f 5;
#X floatatom 757 381 5 0 0 0 - - -, f 5;
#X obj 745 355 div 60;
#X obj 745 333 t f f;
#X obj 745 398 pack f f;
#X msg 743 73 0;
#X obj 662 333 t b b;
#X msg 833 493 Running;
#X msg 885 493 Finished;
#X obj 833 536 s #status-label;
#X obj 496 17 r #all-off;
#X obj 496 39 t b b;
#X obj 523 67 s stop-seq;
#X obj 671 305 r stop-seq;
#X msg 496 85 0;
#X obj 496 107 s all-poofers;
#X obj 164 13 declare -path abs;
#X obj 165 577 t b b;
#X msg 192 679 seq;
#X obj 165 598 s #start-sequence;
#X obj 205 627 t b b;
#X obj 205 648 s #all-off;
#X msg 662 409 seq;
#N canvas 601 22 528 803 genome 0;
#X obj 77 82 r tick;
#X obj 77 144 spigot;
#X obj 128 24 r mode;
#X msg 128 99 1;
#X msg 269 99 0;
#X obj 104 409 mod 9;
#X obj 77 855 s single-on;
#X obj 77 621 +;
#N canvas 0 22 450 278 (subpatch) 0;
#X array xenopus_tropicalis 600 float 3;
#A 0 20 0 0 0 20 0 0 30 10 0 0 0 0 30 10 20 10 0 0 10 10 0 20 0 20
0 10 0 20 20 10 10 20 0 10 0 20 10 30 0 0 20 10 10 20 0 0 30 0 10 30
20 0 10 10 30 0 20 10 30 0 0 30 10 0 20 10 20 20 0 0 30 0 0 30 0 30
0 0 10 20 0 0 20 10 0 10 0 10 10 0 30 30 30 10 30 0 30 10 30 30 10
30 20 10 30 0 20 0 0 10 10 10 30 20 10 30 0 0 10 30 30 10 0 0 0 0 0
0 0 20 0 10 0 30 20 10 0 10 10 0 0 20 10 10 0 0 0 0 30 20 0 0 0 0 20
0 30 10 30 20 20 10 0 30 30 20 30 10 10 0 30 10 10 10 0 0 30 10 10
10 20 10 10 20 20 0 0 0 10 30 10 0 0 0 30 30 10 10 0 10 30 20 10 0
20 20 10 0 30 0 30 20 0 30 20 0 20 0 10 0 30 30 0 30 10 0 30 30 20
0 0 0 0 30 0 30 30 20 0 0 30 10 30 20 10 10 0 30 0 30 10 0 20 0 0 20
10 0 20 10 10 0 30 0 0 0 30 10 0 30 30 30 30 20 0 30 20 0 10 0 0 10
10 20 20 0 0 30 0 10 0 0 0 10 10 10 0 10 0 30 10 30 30 10 0 10 30 20
0 10 0 30 20 0 0 10 0 20 0 10 0 0 10 10 10 30 0 30 10 0 0 20 10 0 0
10 0 0 10 10 0 30 0 20 20 0 0 20 20 20 20 10 10 10 10 20 10 20 10 30
20 10 20 20 10 10 10 10 0 10 30 10 20 0 30 20 10 30 10 20 0 30 20 0
0 30 0 20 10 10 10 30 30 20 20 0 0 0 0 30 30 20 10 10 10 10 20 0 10
30 20 0 20 10 20 20 10 20 0 20 10 0 0 0 30 20 10 0 30 20 30 0 30 0
0 20 20 20 20 10 10 10 0 10 20 10 10 20 0 0 10 10 0 20 20 10 0 30 20
20 0 0 0 20 0 20 0 10 10 10 30 0 10 20 10 30 30 10 0 10 30 20 0 30
20 10 10 0 0 10 10 0 10 10 10 10 0 0 10 30 10 0 0 0 0 0 30 0 0 0 10
0 0 10 30 0 0 10 0 10 0 10 0 10 10 10 0 20 20 0 10 10 10 0 0 0 0 10
0 0 0 30 0 30 10 0 0 10 0 20 10 10 30 10 10 20 0 10 20 10 30 20 0 10
30 10 0 20 10 30 10 0 10 0 20 10 0 0 20 0 10 30 10 30 0 0 30 10 10
10 30 30 10 20 0 30 30 10 30;
#X coords 0 30 600 0 100 60 1;
#X restore 329 39 graph;
#X obj 77 384 tabread xenopus_tropicalis;
#X obj 77 246 t f f;
#X obj 77 268 mod 600;
#X obj 128 67 sel genome genome-repeat;
#X obj 137 268 mod 8;
#X obj 77 174 pack f f;
#X msg 198 99 2;
#X msg 77 196 \$2 \$1;
#X obj 77 218 route 1 2;
#X obj 156 411 mod 8;
#X obj 137 350 + 0;
#X obj 176 268 mod 64;
#X obj 176 312 random 592;
#X obj 261 384 s trail-length-ramp;
#X msg 261 358 200;
#X msg 171 99 1;
#X obj 176 290 sel 0 36;
#X msg 291 358 1000 2000;
#X obj 129 559 swap 9;
#X obj 129 581 -;
#X obj 104 489 pack f f;
#X msg 104 511 \$2 \$1;
#X obj 229 460 r genome-direction;
#X obj 104 533 route 0 1;
#X obj 209 581 -;
#X obj 184 489 pack f f;
#X msg 184 511 \$2 \$1;
#X obj 184 533 route 0 1;
#X obj 209 559 swap 8;
#X obj 97 679 spigot;
#X obj 142 705 r #auto-speed;
#X obj 97 751 pipe 100;
#X obj 97 795 mod 40;
#X obj 267 679 spigot;
#X obj 325 679 r #auto-speed;
#X obj 267 773 + 10;
#X obj 267 795 mod 40;
#X obj 325 711 * 0.75;
#X obj 375 711 * 0.5;
#X obj 425 711 * 0.25;
#X obj 142 727 * 0.5;
#X obj 327 751 pipe 100;
#X obj 327 795 mod 40;
#X obj 387 795 mod 40;
#X obj 267 751 pipe 150;
#X obj 387 751 pipe 50;
#X obj 327 773 + 20;
#X obj 387 773 + 30;
#X obj 137 246 t f f f f;
#X obj 271 258 mod 128;
#X obj 271 280 sel 0;
#X obj 271 324 s genome-direction;
#X obj 271 302 tgl 15 0 empty empty empty 17 7 0 10 -262144 -1 -1 0
1;
#X obj 300 615 r genome-interval;
#X obj 300 657 == 4;
#X obj 130 655 == 2;
#X obj 368 265 s genome-interval;
#X obj 97 773 + 20;
#X obj 368 198 mod 64;
#X msg 368 243 2;
#X msg 400 243 1;
#X obj 368 221 sel 0 8 16 24;
#X connect 0 0 1 0;
#X connect 0 0 67 0;
#X connect 1 0 14 0;
#X connect 2 0 12 0;
#X connect 3 0 14 1;
#X connect 3 0 1 1;
#X connect 4 0 1 1;
#X connect 5 0 29 0;
#X connect 7 0 6 0;
#X connect 7 0 38 0;
#X connect 9 0 7 0;
#X connect 10 0 11 0;
#X connect 10 1 5 0;
#X connect 11 0 9 0;
#X connect 12 0 3 0;
#X connect 12 1 15 0;
#X connect 12 1 24 0;
#X connect 12 2 4 0;
#X connect 13 0 19 0;
#X connect 14 0 16 0;
#X connect 15 0 14 1;
#X connect 16 0 17 0;
#X connect 17 0 10 0;
#X connect 17 1 57 0;
#X connect 18 0 34 0;
#X connect 19 0 9 0;
#X connect 20 0 25 0;
#X connect 21 0 19 1;
#X connect 23 0 22 0;
#X connect 24 0 1 1;
#X connect 25 0 21 0;
#X connect 25 0 23 0;
#X connect 25 1 26 0;
#X connect 26 0 22 0;
#X connect 27 0 28 0;
#X connect 27 1 28 1;
#X connect 28 0 7 1;
#X connect 29 0 30 0;
#X connect 30 0 32 0;
#X connect 31 0 29 1;
#X connect 31 0 34 1;
#X connect 32 0 7 1;
#X connect 32 1 27 0;
#X connect 33 0 7 1;
#X connect 34 0 35 0;
#X connect 35 0 36 0;
#X connect 36 0 7 1;
#X connect 36 1 37 0;
#X connect 37 0 33 0;
#X connect 37 1 33 1;
#X connect 38 0 40 0;
#X connect 39 0 49 0;
#X connect 40 0 66 0;
#X connect 41 0 6 0;
#X connect 42 0 50 0;
#X connect 42 0 53 0;
#X connect 42 0 54 0;
#X connect 43 0 46 0;
#X connect 43 0 47 0;
#X connect 43 0 48 0;
#X connect 44 0 45 0;
#X connect 45 0 6 0;
#X connect 46 0 53 1;
#X connect 47 0 50 1;
#X connect 48 0 54 1;
#X connect 49 0 40 1;
#X connect 50 0 55 0;
#X connect 51 0 6 0;
#X connect 52 0 6 0;
#X connect 53 0 44 0;
#X connect 54 0 56 0;
#X connect 55 0 51 0;
#X connect 56 0 52 0;
#X connect 57 0 13 0;
#X connect 57 1 18 0;
#X connect 57 2 20 0;
#X connect 57 3 58 0;
#X connect 58 0 59 0;
#X connect 59 0 61 0;
#X connect 61 0 60 0;
#X connect 62 0 64 0;
#X connect 63 0 42 1;
#X connect 64 0 38 1;
#X connect 66 0 41 0;
#X connect 67 0 70 0;
#X connect 68 0 65 0;
#X connect 69 0 65 0;
#X connect 70 0 68 0;
#X connect 70 1 69 0;
#X connect 70 2 68 0;
#X connect 70 3 69 0;
#X restore 491 482 pd genome;
#X obj 31 722 symbol;
#X obj 31 744 s mode;
#X obj 662 169 swap 120;
#X obj 662 191 -;
#X obj 701 139 + 1;
#X obj 662 139 f;
#X floatatom 682 213 5 0 0 0 - - -, f 5;
#X obj 743 187 s sequence-time-elapsed;
#N canvas 88 61 1204 609 euclid 0;
#X obj 35 112 r tick;
#X obj 86 4 r mode;
#X msg 86 129 1;
#X obj 86 27 sel euclid;
#X msg 143 129 0;
#X obj 35 276 c_euclid 1 4 0;
#X obj 35 328 f 0;
#X obj 1046 249 pack f f;
#X msg 1046 271 \$2 \$1;
#X obj 135 328 f 1;
#X obj 235 328 f 2;
#X obj 335 328 f 3;
#X obj 435 328 f 4;
#X obj 535 328 f 5;
#X obj 1046 179 f;
#X obj 1071 179 + 1;
#X obj 1046 117 t b b b b b b b;
#X msg 1133 141 0;
#X obj 1046 201 t b f;
#X msg 1132 173 clear;
#X obj 35 151 spigot;
#X obj 35 174 t f f;
#X obj 235 276 c_euclid 2 7 0;
#X obj 335 276 c_euclid 3 8 1;
#X obj 435 276 c_euclid 3 8 2;
#X obj 535 276 c_euclid 4 5 0;
#X obj 916 67 / 32;
#X obj 116 240 >= 0;
#X obj 216 245 >= 1;
#X obj 316 245 >= 2;
#X obj 416 245 >= 3;
#X obj 516 245 >= 4;
#X obj 616 245 >= 5;
#X obj 135 276 c_euclid 1 3 0;
#X obj 635 276 c_euclid 3 8 1;
#X obj 735 276 c_euclid 3 8 2;
#X obj 835 276 c_euclid 4 5 0;
#X obj 635 328 f 6;
#X obj 735 328 f 7;
#X obj 835 328 f 8;
#X obj 716 245 >= 6;
#X obj 816 245 >= 7;
#X obj 916 245 >= 8;
#X obj 1046 293 route 0 1 2 3 4 5 6 7 8;
#X obj 1046 94 t b b;
#X obj 1026 227 c_urn10;
#X obj 916 219 change;
#X obj 916 89 int;
#X obj 916 111 moses 8;
#X obj 955 158 swap 8;
#X obj 955 180 -;
#X floatatom 955 202 5 0 0 0 - - -, f 5;
#X obj 916 43 mod 512;
#X obj 955 134 mod 8;
#X obj 98 54 s new-euclid;
#X obj 246 68 r new-euclid;
#X msg 246 182 number \$1;
#X msg 316 182 number \$1;
#X obj 316 138 random 2;
#X msg 386 182 number \$1;
#X msg 456 182 number \$1;
#X msg 526 182 number \$1;
#X msg 596 182 number \$1;
#X obj 456 138 random 3;
#X obj 456 160 + 2;
#X obj 526 139 random 4;
#X obj 526 160 + 2;
#X obj 596 161 + 2;
#X obj 596 139 random 2;
#X msg 666 182 number \$1;
#X obj 666 161 + 2;
#X msg 736 182 number \$1;
#X obj 736 161 + 2;
#X msg 806 182 number \$1;
#X obj 246 160 + 1;
#X obj 246 138 random 2;
#X obj 316 160 + 1;
#X obj 386 160 + 2;
#X obj 386 138 random 3;
#X obj 666 139 random 4;
#X obj 736 139 random 4;
#X obj 806 161 + 1;
#X obj 806 139 random 3;
#X obj 400 91 s trail-length-ramp;
#X msg 460 68 125;
#X obj 400 23 mod 64;
#X obj 400 46 sel 50 0;
#X msg 400 68 200 2000;
#X obj 435 360 t a a;
#X obj 462 409 pipe 50;
#X obj 501 363 r #auto-speed;
#X obj 501 385 / 2;
#X obj 462 431 - 3;
#X obj 635 360 t a a;
#X obj 662 409 pipe 50;
#X obj 701 363 r #auto-speed;
#X obj 701 385 / 2;
#X obj 662 431 - 3;
#X obj 462 453 spigot;
#X obj 934 437 random 3;
#X obj 934 459 sel 0;
#X msg 934 481 0;
#X msg 961 481 1;
#X obj 934 414 r new-euclid;
#X obj 934 503 f;
#X obj 662 453 spigot;
#X obj 519 464 t a a;
#X obj 546 513 pipe 50;
#X obj 585 467 r #auto-speed;
#X obj 585 489 / 2;
#X obj 546 535 - 3;
#X obj 546 557 spigot;
#X obj 757 456 t a a;
#X obj 784 505 pipe 50;
#X obj 823 459 r #auto-speed;
#X obj 823 481 / 2;
#X obj 784 549 spigot;
#X obj 784 527 + 2;
#X obj 1012 456 sel 0;
#X msg 1012 478 0;
#X msg 1039 478 1;
#X obj 1012 500 f;
#X obj 1012 434 random 2;
#X obj 1068 62 bng 15 250 50 0 empty empty empty 17 7 0 10 -262144
-1 -1;
#X floatatom 969 112 5 0 0 0 - - -, f 5;
#X floatatom 35 134 5 0 0 0 - - -, f 5;
#X msg 185 8 symbol euclid;
#X obj 35 586 outlet;
#X obj 54 551 + 8;
#X obj 35 524 t f f f;
#X obj 84 551 + 16;
#X connect 0 0 20 0;
#X connect 0 0 125 0;
#X connect 1 0 3 0;
#X connect 2 0 20 1;
#X connect 3 0 2 0;
#X connect 3 0 44 0;
#X connect 3 0 54 0;
#X connect 3 1 4 0;
#X connect 4 0 20 1;
#X connect 5 0 6 0;
#X connect 6 0 129 0;
#X connect 7 0 8 0;
#X connect 8 0 43 0;
#X connect 9 0 129 0;
#X connect 10 0 129 0;
#X connect 11 0 129 0;
#X connect 12 0 88 0;
#X connect 13 0 106 0;
#X connect 13 0 129 0;
#X connect 14 0 15 0;
#X connect 14 0 18 0;
#X connect 15 0 14 1;
#X connect 16 0 14 0;
#X connect 16 1 14 0;
#X connect 16 2 14 0;
#X connect 16 3 14 0;
#X connect 16 4 14 0;
#X connect 16 6 17 0;
#X connect 16 6 19 0;
#X connect 17 0 14 1;
#X connect 18 0 45 0;
#X connect 18 1 7 1;
#X connect 19 0 45 0;
#X connect 20 0 21 0;
#X connect 20 0 85 0;
#X connect 21 0 5 0;
#X connect 21 0 22 0;
#X connect 21 0 23 0;
#X connect 21 0 24 0;
#X connect 21 0 25 0;
#X connect 21 0 33 0;
#X connect 21 0 34 0;
#X connect 21 0 35 0;
#X connect 21 0 36 0;
#X connect 21 1 52 0;
#X connect 22 0 10 0;
#X connect 23 0 11 0;
#X connect 24 0 12 0;
#X connect 25 0 13 0;
#X connect 26 0 47 0;
#X connect 27 0 5 2;
#X connect 28 0 33 2;
#X connect 29 0 22 2;
#X connect 30 0 23 2;
#X connect 31 0 24 2;
#X connect 32 0 25 2;
#X connect 33 0 9 0;
#X connect 34 0 37 0;
#X connect 35 0 38 0;
#X connect 36 0 39 0;
#X connect 37 0 93 0;
#X connect 38 0 129 0;
#X connect 39 0 112 0;
#X connect 40 0 34 2;
#X connect 41 0 35 2;
#X connect 42 0 36 2;
#X connect 43 0 6 1;
#X connect 43 1 9 1;
#X connect 43 2 10 1;
#X connect 43 3 11 1;
#X connect 43 4 12 1;
#X connect 43 5 13 1;
#X connect 43 6 37 1;
#X connect 43 7 38 1;
#X connect 43 8 39 1;
#X connect 44 0 16 0;
#X connect 44 1 16 0;
#X connect 45 0 7 0;
#X connect 46 0 27 0;
#X connect 46 0 28 0;
#X connect 46 0 29 0;
#X connect 46 0 30 0;
#X connect 46 0 31 0;
#X connect 46 0 32 0;
#X connect 46 0 40 0;
#X connect 46 0 41 0;
#X connect 46 0 42 0;
#X connect 47 0 48 0;
#X connect 47 0 124 0;
#X connect 48 0 46 0;
#X connect 48 1 53 0;
#X connect 49 0 50 0;
#X connect 49 1 50 1;
#X connect 50 0 46 0;
#X connect 50 0 51 0;
#X connect 52 0 26 0;
#X connect 53 0 49 0;
#X connect 55 0 58 0;
#X connect 55 0 63 0;
#X connect 55 0 65 0;
#X connect 55 0 68 0;
#X connect 55 0 75 0;
#X connect 55 0 78 0;
#X connect 55 0 79 0;
#X connect 55 0 80 0;
#X connect 55 0 82 0;
#X connect 56 0 5 1;
#X connect 57 0 33 1;
#X connect 58 0 76 0;
#X connect 59 0 22 1;
#X connect 60 0 23 1;
#X connect 61 0 24 1;
#X connect 62 0 25 1;
#X connect 63 0 64 0;
#X connect 64 0 60 0;
#X connect 65 0 66 0;
#X connect 66 0 61 0;
#X connect 67 0 62 0;
#X connect 68 0 67 0;
#X connect 69 0 34 1;
#X connect 70 0 69 0;
#X connect 71 0 35 1;
#X connect 72 0 71 0;
#X connect 73 0 36 1;
#X connect 74 0 56 0;
#X connect 75 0 74 0;
#X connect 76 0 57 0;
#X connect 77 0 59 0;
#X connect 78 0 77 0;
#X connect 79 0 70 0;
#X connect 80 0 72 0;
#X connect 81 0 73 0;
#X connect 82 0 81 0;
#X connect 84 0 83 0;
#X connect 85 0 86 0;
#X connect 86 0 87 0;
#X connect 86 1 84 0;
#X connect 87 0 83 0;
#X connect 88 0 129 0;
#X connect 88 1 89 0;
#X connect 89 0 92 0;
#X connect 90 0 91 0;
#X connect 91 0 89 1;
#X connect 92 0 98 0;
#X connect 93 0 129 0;
#X connect 93 1 94 0;
#X connect 94 0 97 0;
#X connect 95 0 96 0;
#X connect 96 0 94 1;
#X connect 97 0 105 0;
#X connect 98 0 129 0;
#X connect 99 0 100 0;
#X connect 100 0 101 0;
#X connect 100 1 102 0;
#X connect 101 0 104 0;
#X connect 102 0 104 0;
#X connect 103 0 99 0;
#X connect 103 0 122 0;
#X connect 104 0 105 1;
#X connect 104 0 98 1;
#X connect 105 0 129 0;
#X connect 106 1 107 0;
#X connect 107 0 110 0;
#X connect 108 0 109 0;
#X connect 109 0 107 1;
#X connect 110 0 111 0;
#X connect 111 0 129 0;
#X connect 112 0 129 0;
#X connect 112 1 113 0;
#X connect 113 0 117 0;
#X connect 114 0 115 0;
#X connect 115 0 113 1;
#X connect 116 0 129 0;
#X connect 117 0 116 0;
#X connect 118 0 119 0;
#X connect 118 1 120 0;
#X connect 119 0 121 0;
#X connect 120 0 121 0;
#X connect 121 0 116 1;
#X connect 121 0 111 1;
#X connect 122 0 118 0;
#X connect 123 0 44 0;
#X connect 126 0 3 0;
#X connect 128 0 127 0;
#X connect 129 0 127 0;
#X connect 129 1 128 0;
#X connect 129 2 130 0;
#X connect 130 0 127 0;
#X restore 467 511 pd euclid;
#X obj 382 142 sel all-flashing;
#X msg 129 459 euclid;
#X obj 662 431 symbol;
#X obj 662 453 s mode;
#X obj 431 40 bng 15 250 50 0 empty empty empty 17 7 0 10 -262144 -1
-1;
#X msg 71 329 spiral;
#X msg 81 350 spiral-2;
#X msg 91 372 spiral-down;
#X msg 101 393 spiral-2-down;
#X obj 468 227 r mode;
#X obj 468 271 s reset-timebase;
#X obj 468 249 t b b;
#X msg 495 295 125;
#X obj 495 316 s #trail-length;
#X msg 677 117 0;
#X msg 137 482 slider;
#X msg 141 517 genome;
#X obj 761 228 r branch;
#X obj 761 250 sel all cw-inverse ccw-inverse opposing-1 opposing-2
;
#X msg 761 272 1;
#X obj 971 516 s ignore-force;
#X obj 971 451 f;
#X obj 971 473 +;
#X obj 971 495 > 0;
#X obj 971 430 t b f;
#X msg 1056 292 0;
#X obj 901 347 sel spiral spiral-2 spiral-down spiral-2-down;
#X obj 901 323 r mode;
#X msg 901 374 1;
#X msg 1161 376 0;
#X floatatom 1019 483 5 0 0 0 - - -, f 5;
#X msg 84 812 knightrider;
#N canvas 0 22 643 420 knightrider 0;
#X obj 35 52 r tick;
#X obj 86 24 r mode;
#X msg 86 69 1;
#X msg 143 69 0;
#X obj 35 91 spigot;
#X obj 86 47 sel knightrider;
#N canvas 0 22 291 360 cycle-down 0;
#X obj 81 47 inlet;
#X obj 81 274 outlet;
#X obj 81 195 -;
#X obj 81 113 moses 9;
#X obj 120 137 + 1;
#X obj 81 91 mod 18;
#X obj 81 173 swap 18;
#X connect 0 0 5 0;
#X connect 2 0 1 0;
#X connect 3 0 6 0;
#X connect 3 1 4 0;
#X connect 4 0 6 0;
#X connect 5 0 3 0;
#X connect 6 0 2 0;
#X connect 6 1 2 1;
#X restore 35 285 pd cycle-down;
#X obj 35 257 f;
#X obj 61 257 + 1;
#X obj 35 343 int;
#X obj 35 315 mod 20;
#X obj 35 365 outlet;
#X obj 35 185 sel 0 4 6 8 10 12 14 16 18 20 22 24 26 28 30;
#X obj 35 143 moses 128;
#X obj 35 165 mod 32;
#X obj 310 185 sel 0 4 6 8 16 20 22 24;
#X obj 310 164 mod 32;
#X obj 459 164 mod 32;
#X obj 459 185 sel 0 4 6 8 12 16 22 24;
#X obj 459 211 t b;
#X obj 310 142 moses 160;
#X obj 286 307 s trail-length-ramp;
#X msg 286 285 125;
#X obj 35 214 t b b;
#X obj 359 217 t b b;
#X obj 399 217 t b b;
#X obj 35 113 mod 192;
#X msg 317 284 175;
#X obj 528 206 t b b;
#X msg 347 284 200;
#X obj 204 92 s auto-speed-ramp;
#X msg 204 70 50;
#X obj 339 65 s reset-timebase;
#X connect 0 0 4 0;
#X connect 1 0 5 0;
#X connect 2 0 4 1;
#X connect 3 0 4 1;
#X connect 4 0 26 0;
#X connect 5 0 2 0;
#X connect 5 0 31 0;
#X connect 5 0 32 0;
#X connect 5 1 3 0;
#X connect 6 0 10 0;
#X connect 7 0 8 0;
#X connect 7 0 6 0;
#X connect 8 0 7 1;
#X connect 9 0 11 0;
#X connect 10 0 9 0;
#X connect 12 0 23 0;
#X connect 12 1 7 0;
#X connect 12 2 7 0;
#X connect 12 3 7 0;
#X connect 12 4 7 0;
#X connect 12 5 7 0;
#X connect 12 6 7 0;
#X connect 12 7 7 0;
#X connect 12 8 7 0;
#X connect 12 9 7 0;
#X connect 12 10 7 0;
#X connect 12 11 7 0;
#X connect 12 12 7 0;
#X connect 12 13 7 0;
#X connect 12 14 7 0;
#X connect 13 0 14 0;
#X connect 13 1 20 0;
#X connect 14 0 12 0;
#X connect 15 0 7 0;
#X connect 15 1 7 0;
#X connect 15 2 7 0;
#X connect 15 3 24 0;
#X connect 15 4 25 0;
#X connect 15 5 7 0;
#X connect 15 6 24 0;
#X connect 15 7 25 0;
#X connect 16 0 15 0;
#X connect 17 0 18 0;
#X connect 18 0 19 0;
#X connect 18 1 19 0;
#X connect 18 2 19 0;
#X connect 18 3 19 0;
#X connect 18 4 19 0;
#X connect 18 5 28 0;
#X connect 19 0 7 0;
#X connect 20 0 16 0;
#X connect 20 1 17 0;
#X connect 22 0 21 0;
#X connect 23 0 7 0;
#X connect 23 1 22 0;
#X connect 24 0 7 0;
#X connect 24 1 27 0;
#X connect 25 0 7 0;
#X connect 25 1 22 0;
#X connect 26 0 13 0;
#X connect 27 0 21 0;
#X connect 28 0 7 0;
#X connect 28 1 29 0;
#X connect 29 0 21 0;
#X connect 31 0 30 0;
#X restore 521 541 pd knightrider;
#X msg 111 414 knightrider;
#X obj 246 532 bng 15 250 50 0 empty empty empty 17 7 0 10 -262144
-1 -1;
#X obj 310 548 t f;
#X obj 428 482 r #slider;
#X connect 0 0 92 0;
#X connect 1 0 92 0;
#X connect 2 0 3 0;
#X connect 3 0 4 0;
#X connect 3 1 4 1;
#X connect 4 0 42 0;
#X connect 5 0 7 0;
#X connect 5 1 92 0;
#X connect 7 0 6 0;
#X connect 9 0 10 0;
#X connect 10 0 14 0;
#X connect 11 0 10 0;
#X connect 12 0 10 0;
#X connect 13 0 10 0;
#X connect 15 0 136 0;
#X connect 16 0 10 0;
#X connect 17 0 10 0;
#X connect 18 0 39 0;
#X connect 19 0 136 0;
#X connect 20 0 5 0;
#X connect 21 0 9 0;
#X connect 22 0 23 0;
#X connect 23 0 24 0;
#X connect 24 0 31 0;
#X connect 25 0 26 0;
#X connect 25 0 32 0;
#X connect 27 0 28 0;
#X connect 27 0 30 0;
#X connect 32 0 29 0;
#X connect 33 0 32 1;
#X connect 35 0 34 0;
#X connect 36 0 35 0;
#X connect 37 0 92 0;
#X connect 38 0 101 0;
#X connect 39 0 40 0;
#X connect 39 1 40 1;
#X connect 40 0 41 0;
#X connect 41 0 9 0;
#X connect 41 1 11 0;
#X connect 41 2 12 0;
#X connect 41 3 13 0;
#X connect 41 4 16 0;
#X connect 41 5 17 0;
#X connect 41 6 56 0;
#X connect 41 7 57 0;
#X connect 41 8 58 0;
#X connect 42 0 0 0;
#X connect 42 1 59 0;
#X connect 42 2 60 0;
#X connect 42 3 1 0;
#X connect 42 4 106 0;
#X connect 42 5 107 0;
#X connect 42 6 108 0;
#X connect 42 7 109 0;
#X connect 42 8 134 0;
#X connect 42 9 20 0;
#X connect 42 10 102 0;
#X connect 42 11 116 0;
#X connect 42 12 117 0;
#X connect 42 13 37 0;
#X connect 42 14 85 0;
#X connect 42 15 88 0;
#X connect 43 0 45 0;
#X connect 45 0 64 0;
#X connect 45 1 62 0;
#X connect 45 2 49 0;
#X connect 45 2 115 0;
#X connect 47 0 61 0;
#X connect 48 0 77 0;
#X connect 49 0 46 0;
#X connect 50 0 52 0;
#X connect 51 0 50 0;
#X connect 51 0 55 0;
#X connect 52 0 44 0;
#X connect 54 0 53 0;
#X connect 55 0 54 0;
#X connect 56 0 10 0;
#X connect 57 0 10 0;
#X connect 58 0 10 0;
#X connect 59 0 92 0;
#X connect 60 0 92 0;
#X connect 61 0 90 0;
#X connect 62 0 63 0;
#X connect 63 0 97 0;
#X connect 64 0 75 0;
#X connect 65 0 74 0;
#X connect 67 0 68 0;
#X connect 67 0 72 1;
#X connect 70 0 69 0;
#X connect 70 0 72 0;
#X connect 71 0 70 0;
#X connect 71 1 67 0;
#X connect 72 0 66 0;
#X connect 73 0 63 0;
#X connect 74 0 47 0;
#X connect 74 0 76 0;
#X connect 74 1 73 0;
#X connect 75 0 48 0;
#X connect 76 0 48 0;
#X connect 78 0 79 0;
#X connect 79 0 82 0;
#X connect 79 1 80 0;
#X connect 81 0 74 0;
#X connect 82 0 83 0;
#X connect 85 0 87 0;
#X connect 85 1 86 0;
#X connect 86 0 92 0;
#X connect 88 0 89 0;
#X connect 88 1 86 0;
#X connect 90 0 103 0;
#X connect 92 0 93 0;
#X connect 94 0 95 0;
#X connect 94 1 95 1;
#X connect 95 0 98 0;
#X connect 95 0 65 0;
#X connect 95 0 71 0;
#X connect 96 0 97 1;
#X connect 97 0 94 0;
#X connect 97 0 96 0;
#X connect 97 0 99 0;
#X connect 100 0 136 0;
#X connect 101 0 58 0;
#X connect 102 0 92 0;
#X connect 103 0 104 0;
#X connect 105 0 79 0;
#X connect 106 0 5 0;
#X connect 107 0 5 0;
#X connect 108 0 5 0;
#X connect 109 0 5 0;
#X connect 110 0 112 0;
#X connect 112 0 111 0;
#X connect 112 1 113 0;
#X connect 113 0 114 0;
#X connect 115 0 97 1;
#X connect 116 0 92 0;
#X connect 117 0 5 0;
#X connect 118 0 119 0;
#X connect 119 0 120 0;
#X connect 119 1 120 0;
#X connect 119 2 120 0;
#X connect 119 3 120 0;
#X connect 119 4 120 0;
#X connect 119 5 126 0;
#X connect 120 0 122 0;
#X connect 122 0 123 0;
#X connect 123 0 124 0;
#X connect 124 0 121 0;
#X connect 124 0 131 0;
#X connect 125 0 122 0;
#X connect 125 1 123 1;
#X connect 126 0 122 0;
#X connect 127 0 129 0;
#X connect 127 1 129 0;
#X connect 127 2 129 0;
#X connect 127 3 129 0;
#X connect 127 4 130 0;
#X connect 128 0 127 0;
#X connect 129 0 125 0;
#X connect 130 0 125 0;
#X connect 132 0 92 0;
#X connect 133 0 136 0;
#X connect 134 0 5 0;
#X connect 135 0 85 0;
#X connect 136 0 8 0;
#X connect 137 0 136 0;
#X restore 87 87 pd helix;
#N canvas 325 151 245 308 timebase 0;
#X obj 39 75 loadbang;
#X msg 39 127 1;
#X obj 39 179 metro 100;
#X obj 39 253 s tick;
#X obj 90 155 r #auto-speed;
#X obj 39 231 f;
#X obj 66 231 + 1;
#X msg 67 127 0;
#X obj 108 49 r reset-timebase;
#X msg 54 205 0;
#X obj 67 98 r #all-off;
#X obj 108 71 t b b;
#X obj 114 194 bng 15 250 50 0 empty empty empty 17 7 0 10 -262144
-1 -1;
#X obj 49 273 s \$0-tick;
#X connect 0 0 1 0;
#X connect 1 0 2 0;
#X connect 2 0 5 0;
#X connect 4 0 2 1;
#X connect 5 0 6 0;
#X connect 5 0 3 0;
#X connect 5 0 13 0;
#X connect 6 0 5 1;
#X connect 7 0 2 0;
#X connect 8 0 11 0;
#X connect 9 0 5 1;
#X connect 10 0 7 0;
#X connect 10 0 12 0;
#X connect 11 0 1 0;
#X connect 11 1 9 0;
#X restore 56 146 pd timebase;
#X connect 5 0 41 0;
#X connect 6 0 36 0;
#X connect 7 0 52 0;
#X connect 8 0 38 0;
#X connect 9 0 39 0;
#X connect 10 0 40 0;
#X connect 11 0 8 0;
#X connect 12 0 9 0;
#X connect 13 0 10 0;
#X connect 15 0 24 0;
#X connect 16 0 23 0;
#X connect 17 0 24 0;
#X connect 18 0 15 0;
#X connect 19 0 18 0;
#X connect 21 0 15 0;
#X connect 22 0 17 0;
#X connect 23 0 26 0;
#X connect 24 0 25 0;
#X connect 25 0 23 1;
#X connect 26 1 27 0;
#X connect 27 0 23 1;
#X connect 28 0 16 0;
#X connect 30 0 5 0;
#X connect 32 0 33 0;
#X connect 33 0 34 0;
#X connect 35 0 24 0;
#X connect 36 0 24 0;
#X connect 37 0 24 0;
#X connect 38 0 6 0;
#X connect 39 0 6 1;
#X connect 40 0 6 2;
#X connect 41 0 7 0;
#X connect 42 0 37 0;
#X connect 43 0 47 0;
#X connect 44 0 48 0;
#X connect 45 0 49 0;
#X connect 46 0 45 0;
#X connect 47 0 42 0;
#X connect 48 0 42 1;
#X connect 49 0 42 2;
#X connect 50 0 43 0;
#X connect 51 0 44 0;
#X connect 52 0 11 0;
#X connect 52 1 12 0;
#X connect 52 1 13 0;
#X connect 53 0 55 0;
#X connect 54 0 56 0;
#X connect 55 0 54 0;
#X connect 56 0 50 0;
#X connect 56 1 51 0;
#X connect 56 1 46 0;
#X connect 57 0 53 0;
#X connect 59 0 35 0;
