#N canvas 0 93 634 449 10;
#X declare -path abs;
#X declare -path oscx;
#X declare -path abs;
#X obj 59 22 declare -path abs;
#X obj 59 42 declare -path oscx;
#N canvas 28 82 416 599 arduino-in 0;
#X obj 85 53 tgl 15 0 empty empty empty 17 7 0 10 -262144 -1 -1 0 1
;
#X obj 85 73 sel 0 1;
#X msg 85 95 close;
#X msg 13 93 devices;
#X obj 72 148 t f f;
#X obj 117 197 list prepend;
#X obj 117 219 list trim;
#X obj 186 175 moses 10;
#X obj 72 174 moses 10;
#N canvas 235 180 450 300 debounce 0;
#X obj 91 56 inlet;
#X obj 91 174 outlet;
#X msg 150 101 0;
#X obj 152 145 delay 100;
#X msg 152 167 1;
#X obj 91 122 t a b b b;
#X msg 173 123 stop;
#X obj 91 100 spigot 1;
#X connect 0 0 7 0;
#X connect 2 0 7 1;
#X connect 3 0 4 0;
#X connect 4 0 7 1;
#X connect 5 0 1 0;
#X connect 5 1 2 0;
#X connect 5 2 3 0;
#X connect 5 3 6 0;
#X connect 6 0 3 0;
#X connect 7 0 5 0;
#X restore 308 188 pd debounce;
#N canvas 235 180 450 300 debounce 0;
#X obj 91 56 inlet;
#X obj 91 174 outlet;
#X msg 150 101 0;
#X obj 152 145 delay 100;
#X msg 152 167 1;
#X obj 91 122 t a b b b;
#X msg 173 123 stop;
#X obj 91 100 spigot 1;
#X connect 0 0 7 0;
#X connect 2 0 7 1;
#X connect 3 0 4 0;
#X connect 4 0 7 1;
#X connect 5 0 1 0;
#X connect 5 1 2 0;
#X connect 5 2 3 0;
#X connect 5 3 6 0;
#X connect 6 0 3 0;
#X connect 7 0 5 0;
#X restore 248 219 pd debounce;
#X msg 125 95 open 2;
#X obj 117 241 s piezo_input;
#X obj 72 126 comport 1 9600;
#X obj 152 50 loadbang;
#X connect 0 0 1 0;
#X connect 1 0 2 0;
#X connect 1 1 11 0;
#X connect 2 0 13 0;
#X connect 3 0 13 0;
#X connect 4 0 8 0;
#X connect 4 1 7 0;
#X connect 5 0 6 0;
#X connect 6 0 12 0;
#X connect 7 0 5 1;
#X connect 8 1 5 0;
#X connect 11 0 13 0;
#X connect 13 0 4 0;
#X connect 14 0 2 0;
#X restore 58 140 pd arduino-in;
#N canvas 377 85 503 738 vis 0;
#X obj 329 319 poofer 11;
#X text 21 65 Tembos;
#X text 22 386 Gongs;
#X text 183 386 Cajons;
#X text 181 65 Xylophone;
#X obj 295 175 s piezo_input;
#X msg 295 153 0 \$1;
#X floatatom 274 136 5 0 0 0 - - -, f 5;
#X obj 309 91 tgl 15 0 empty empty empty 17 7 0 10 -262144 -1 -1 0
1;
#X obj 309 113 * 20;
#N canvas 0 22 472 422 force-calc 0;
#X obj 240 129 +;
#X obj 240 73 t b f;
#X obj 90 129 +;
#X obj 90 73 t b f;
#X obj 90 151 * -1;
#X obj 137 204 +;
#X obj 137 150 t b f;
#X obj 240 104 f;
#X obj 90 99 f;
#X obj 137 177 f;
#X obj 137 226 spigot 1;
#X obj 137 328 s #force;
#X obj 193 158 r ignore-force;
#X obj 193 184 t b a;
#X obj 252 306 line;
#X obj 285 195 > 0;
#X msg 285 239 -1;
#X obj 285 217 sel 0;
#X obj 252 262 *;
#X msg 252 215 20;
#X msg 252 284 \$1 5000;
#X floatatom 151 259 5 0 0 0 - - -, f 5;
#X floatatom 134 116 5 0 0 0 - - -, f 5;
#X floatatom 220 226 5 0 0 0 - - -, f 5;
#X msg 206 270 1;
#X obj 92 36 inlet;
#X connect 0 0 6 0;
#X connect 0 0 22 0;
#X connect 1 0 7 0;
#X connect 1 1 0 1;
#X connect 2 0 4 0;
#X connect 3 0 8 0;
#X connect 3 1 2 1;
#X connect 4 0 9 0;
#X connect 5 0 10 0;
#X connect 5 0 15 0;
#X connect 6 0 9 0;
#X connect 6 1 5 1;
#X connect 7 0 0 0;
#X connect 8 0 2 0;
#X connect 9 0 5 0;
#X connect 10 0 11 0;
#X connect 10 0 21 0;
#X connect 12 0 13 0;
#X connect 15 0 17 0;
#X connect 16 0 18 1;
#X connect 17 0 16 0;
#X connect 17 1 18 1;
#X connect 18 0 20 0;
#X connect 19 0 18 0;
#X connect 20 0 14 0;
#X connect 24 0 10 1;
#X connect 25 0 3 0;
#X restore 329 637 pd force-calc;
#N canvas 474 58 523 593 overall 0;
#X obj 81 43 r group_0_level;
#X obj 81 103 +;
#X obj 81 143 +;
#X obj 81 183 +;
#X obj 81 223 +;
#X obj 181 65 t b f;
#X obj 221 105 t b f;
#X obj 261 155 t b f;
#X obj 181 43 r group_1_level;
#X obj 221 83 r group_2_level;
#X obj 261 133 r group_3_level;
#X obj 34 266 outlet;
#X obj 81 245 min 100;
#X obj 81 267 min 60;
#X floatatom 91 299 5 0 0 0 - - -, f 5;
#X obj 81 319 s motor_speed;
#X connect 0 0 1 0;
#X connect 1 0 2 0;
#X connect 2 0 3 0;
#X connect 3 0 4 0;
#X connect 4 0 11 0;
#X connect 4 0 12 0;
#X connect 5 0 1 0;
#X connect 5 1 2 1;
#X connect 6 0 1 0;
#X connect 6 1 3 1;
#X connect 7 0 1 0;
#X connect 7 1 4 1;
#X connect 8 0 5 0;
#X connect 9 0 6 0;
#X connect 10 0 7 0;
#X connect 12 0 13 0;
#X connect 13 0 14 0;
#X connect 13 0 15 0;
#X restore 203 303 pd overall;
#X obj 203 324 nbx 2 25 -1e+37 1e+37 0 0 empty empty empty 0 -8 0 15
-262144 -1 -1 0 256;
#X obj 23 235 p_proc 5 0;
#X obj 126 332 g_proc 3;
#X obj 56 302 g_proc 0;
#X obj 56 332 g_proc 1;
#X obj 126 302 g_proc 2;
#X obj 23 85 p_proc 0 0;
#X obj 23 115 p_proc 1 0;
#X obj 23 145 p_proc 2 0;
#X obj 23 175 p_proc 3 0;
#X obj 23 205 p_proc 4 0;
#X obj 23 405 p_proc 6 1;
#X obj 23 435 p_proc 7 1;
#X obj 183 85 p_proc 8 2;
#X obj 183 115 p_proc 9 2;
#X obj 183 145 p_proc 10 2;
#X obj 183 175 p_proc 11 2;
#X obj 183 205 p_proc 12 2;
#X obj 183 235 p_proc 13 2;
#X obj 183 405 p_proc 14 3;
#X obj 183 435 p_proc 15 3;
#X obj 329 290 poofer 12;
#X obj 329 348 poofer 10;
#X obj 329 463 poofer 6;
#X obj 329 376 poofer 9;
#X obj 399 481 poofer 14;
#X obj 399 510 poofer 13;
#X obj 329 608 poofer 1;
#X obj 329 492 poofer 5;
#X obj 399 423 poofer 16;
#X obj 329 579 poofer 2;
#X obj 399 452 poofer 15;
#X obj 329 434 poofer 7;
#X obj 399 365 poofer 18;
#X obj 399 336 poofer 19;
#X obj 329 550 poofer 3;
#X obj 329 521 poofer 4;
#X obj 399 394 poofer 17;
#X obj 329 405 poofer 8;
#X obj 399 307 poofer 20;
#X obj 399 278 poofer 21;
#X obj 399 220 poofer 23;
#X obj 399 249 poofer 22;
#X obj 399 190 poofer 23;
#X obj 408 66 poofer 25;
#X obj 312 63 poofer 26;
#X connect 0 0 34 0;
#X connect 6 0 5 0;
#X connect 7 0 6 0;
#X connect 8 0 9 0;
#X connect 9 0 6 0;
#X connect 11 0 12 0;
#X connect 33 0 0 0;
#X connect 34 0 36 0;
#X connect 35 0 40 0;
#X connect 36 0 50 0;
#X connect 37 0 38 0;
#X connect 38 0 33 0;
#X connect 39 0 10 0;
#X connect 40 0 48 0;
#X connect 41 0 43 0;
#X connect 42 0 39 0;
#X connect 43 0 37 0;
#X connect 44 0 35 0;
#X connect 45 0 49 0;
#X connect 46 0 45 0;
#X connect 47 0 42 0;
#X connect 48 0 47 0;
#X connect 49 0 41 0;
#X connect 50 0 44 0;
#X connect 51 0 46 0;
#X connect 52 0 51 0;
#X connect 53 0 54 0;
#X connect 54 0 52 0;
#X connect 55 0 53 0;
#X connect 56 0 55 0;
#X connect 57 0 56 0;
#X restore 58 212 pd vis;
#N canvas 0 247 1024 560 sequence 0;
#X obj 94 22 r #start-sequence;
#X obj 94 44 t b b;
#X obj 121 66 s reset-timebase;
#X msg 94 86 1;
#X obj 42 151 spigot;
#X obj 66 15 bng 15 250 50 0 empty empty empty 17 7 0 10 -262144 -1
-1;
#X obj 253 23 bng 15 250 50 0 empty empty empty 17 7 0 10 -262144 -1
-1;
#X obj 253 43 s #all-off;
#X obj 42 452 s settings-list;
#X obj 841 58 r settings-list;
#X obj 841 384 s mode;
#X obj 841 80 unpack s s f f;
#X obj 154 45 bng 15 250 50 0 empty empty empty 17 7 0 10 -262144 -1
-1;
#X obj 1273 237 symbol;
#X obj 1273 259 s branch;
#X obj 841 362 symbol;
#X obj 428 58 bng 50 250 50 0 empty empty Start 17 -10 0 10 -262144
-1 -1;
#X obj 429 137 s #start-sequence;
#X obj 42 108 r sequence-time-elapsed;
#X floatatom 51 131 5 0 0 0 - - -, f 5;
#X msg 841 218 cycle-up;
#X msg 850 237 cycle-down;
#X msg 856 256 cycle-up-down;
#X obj 841 102 sel any-cycle;
#X obj 42 173 moses 30;
#X obj 310 173 moses 90;
#X obj 951 175 random 8;
#X obj 951 197 + 1;
#X obj 951 269 s #branch-index;
#X msg 855 133 clear \, bang;
#X obj 265 452 s trail-length-ramp;
#X obj 952 406 line;
#X obj 952 384 r trail-length-ramp;
#X obj 952 468 s #trail-length;
#X obj 685 282 s #all-off;
#X obj 518 177 moses 120;
#X obj 957 93 s trail-length-ramp;
#X obj 1072 406 line;
#X obj 1072 384 r auto-speed-ramp;
#X obj 141 452 s auto-speed-ramp;
#X obj 948 116 s auto-speed-ramp;
#X obj 1072 468 s #auto-speed;
#X floatatom 910 470 5 0 0 0 - - -, f 5;
#X floatatom 1052 484 5 0 0 0 - - -, f 5;
#X msg 1033 226 9;
#X msg 1063 226 8;
#X msg 1093 227 3;
#X obj 1033 175 random 3;
#X obj 1033 197 sel 0 1 2;
#X obj 310 290 t b b;
#X obj 337 312 s reset-timebase;
#X obj 951 153 sel any-branch any-cw-branch any-both-branch;
#X msg 1123 226 8;
#X msg 1153 226 6;
#X obj 329 363 t b b;
#X obj 356 385 s reset-timebase;
#X obj 310 247 tgl 15 0 empty empty empty 17 7 0 10 -262144 -1 -1 0
1;
#X obj 310 267 sel 0 1;
#X obj 518 199 - 90;
#X obj 310 195 - 30;
#X obj 685 233 - 120;
#X obj 685 258 sel 0;
#X obj 1123 175 random 4;
#X msg 1183 227 3;
#X msg 1214 228 2;
#X obj 1123 197 sel 0 1 2 4;
#X msg 42 256 cycle-up all 550 700;
#X obj 230 300 sel 20 50;
#X obj 78 282 t a a;
#X msg 54 306 400 \, 100 10000;
#X msg 89 335 left cw-both 200 200;
#X msg 72 386 any-cycle any-cw-branch 200 250;
#X msg 82 406 genome cw-single 200 250;
#X msg 310 336 genome-repeat cw-single 150 250;
#X msg 329 408 euclid any-both-branch 200 150;
#X msg 518 311 any-cycle any-cw-branch 200 125;
#X floatatom 966 455 5 0 0 0 - - -, f 5;
#X obj 952 433 min 250;
#X msg 871 278 spiral;
#X msg 880 297 spiral-2;
#X msg 886 316 spiral-down;
#X msg 896 336 spiral-2-down;
#X obj 841 196 sel 0 1 2 3 4 5 6;
#X obj 841 155 c_urn7;
#X obj 1072 428 max 50;
#X msg 1129 434 50;
#X obj 540 287 t a a a;
#X msg 540 336 75 10000;
#X msg 550 356 150 10000;
#X msg 567 412 all;
#X obj 567 444 symbol;
#X obj 567 390 t a a a;
#X msg 610 413 75;
#X msg 641 413 150;
#X obj 567 468 s branch;
#X obj 310 225 sel 5;
#X obj 42 233 sel 1 8 10 11 12 13 14 15 16 17 18;
#X msg 620 345 left cw-both 150 150;
#X msg 630 369 left cw-both 200 200;
#X obj 518 252 sel 0 7 22 26 27 28 29 30;
#X msg 428 113 1;
#X connect 0 0 1 0;
#X connect 1 0 3 0;
#X connect 1 1 2 0;
#X connect 3 0 4 1;
#X connect 4 0 24 0;
#X connect 5 0 1 0;
#X connect 6 0 7 0;
#X connect 9 0 11 0;
#X connect 11 0 23 0;
#X connect 11 1 51 0;
#X connect 11 2 40 0;
#X connect 11 3 36 0;
#X connect 12 0 2 0;
#X connect 13 0 14 0;
#X connect 15 0 10 0;
#X connect 16 0 100 0;
#X connect 18 0 4 0;
#X connect 18 0 19 0;
#X connect 20 0 15 0;
#X connect 21 0 15 0;
#X connect 22 0 15 0;
#X connect 23 0 83 0;
#X connect 23 1 15 0;
#X connect 24 0 96 0;
#X connect 24 1 25 0;
#X connect 25 0 59 0;
#X connect 25 1 35 0;
#X connect 26 0 27 0;
#X connect 27 0 28 0;
#X connect 29 0 83 0;
#X connect 31 0 42 0;
#X connect 31 0 77 0;
#X connect 32 0 31 0;
#X connect 35 0 58 0;
#X connect 35 1 60 0;
#X connect 37 0 43 0;
#X connect 37 0 84 0;
#X connect 38 0 37 0;
#X connect 44 0 28 0;
#X connect 45 0 28 0;
#X connect 46 0 28 0;
#X connect 47 0 48 0;
#X connect 48 0 44 0;
#X connect 48 1 45 0;
#X connect 48 2 46 0;
#X connect 49 0 73 0;
#X connect 49 1 50 0;
#X connect 51 0 26 0;
#X connect 51 1 47 0;
#X connect 51 2 62 0;
#X connect 51 3 13 0;
#X connect 52 0 28 0;
#X connect 53 0 28 0;
#X connect 54 0 74 0;
#X connect 54 1 55 0;
#X connect 56 0 57 0;
#X connect 57 0 49 0;
#X connect 57 1 54 0;
#X connect 58 0 99 0;
#X connect 59 0 95 0;
#X connect 60 0 61 0;
#X connect 61 0 34 0;
#X connect 62 0 65 0;
#X connect 63 0 28 0;
#X connect 64 0 28 0;
#X connect 65 0 52 0;
#X connect 65 1 53 0;
#X connect 65 2 63 0;
#X connect 65 3 64 0;
#X connect 66 0 8 0;
#X connect 67 0 71 0;
#X connect 67 1 72 0;
#X connect 68 0 69 0;
#X connect 68 1 70 0;
#X connect 69 0 39 0;
#X connect 70 0 8 0;
#X connect 71 0 8 0;
#X connect 72 0 8 0;
#X connect 73 0 8 0;
#X connect 74 0 8 0;
#X connect 75 0 8 0;
#X connect 77 0 33 0;
#X connect 77 0 76 0;
#X connect 78 0 15 0;
#X connect 79 0 15 0;
#X connect 80 0 15 0;
#X connect 81 0 15 0;
#X connect 82 0 20 0;
#X connect 82 1 21 0;
#X connect 82 2 22 0;
#X connect 82 3 78 0;
#X connect 82 4 79 0;
#X connect 82 5 80 0;
#X connect 82 6 81 0;
#X connect 83 0 82 0;
#X connect 83 1 29 0;
#X connect 84 0 41 0;
#X connect 85 0 41 0;
#X connect 86 0 87 0;
#X connect 86 1 88 0;
#X connect 86 2 75 0;
#X connect 87 0 39 0;
#X connect 88 0 30 0;
#X connect 89 0 90 0;
#X connect 90 0 94 0;
#X connect 91 0 89 0;
#X connect 91 1 92 0;
#X connect 91 2 93 0;
#X connect 92 0 39 0;
#X connect 93 0 30 0;
#X connect 95 0 56 0;
#X connect 96 0 66 0;
#X connect 96 2 68 0;
#X connect 96 3 70 0;
#X connect 96 4 70 0;
#X connect 96 5 70 0;
#X connect 96 6 70 0;
#X connect 96 7 70 0;
#X connect 96 8 70 0;
#X connect 96 9 70 0;
#X connect 96 10 70 0;
#X connect 96 11 67 0;
#X connect 97 0 8 0;
#X connect 98 0 8 0;
#X connect 99 0 75 0;
#X connect 99 1 86 0;
#X connect 99 2 91 0;
#X connect 99 3 97 0;
#X connect 99 4 97 0;
#X connect 99 5 97 0;
#X connect 99 6 98 0;
#X connect 99 7 98 0;
#X connect 100 0 17 0;
#X restore 58 233 pd sequence;
#N canvas 572 71 673 738 dmx 0;
#X obj 110 604 sendOSC;
#X obj 110 508 r toDMX;
#X obj 55 54 sel 1;
#X obj 55 207 f;
#X obj 82 207 + 1;
#X obj 55 316 mod 2;
#X obj 55 339 * 255;
#X msg 55 413 send /dmx/universe/1/1 \$1 \, send /dmx/universe/1/2
\$1 \, send /dmx/universe/1/3 \$1 \, send /dmx/universe/1/5 \$1 \,
send /dmx/universe/1/6 \$1 \, send /dmx/universe/1/7 \$1 \, send /dmx/universe/1/9
\$1 \, send /dmx/universe/1/10 \$1 \, send /dmx/universe/1/11 \$1 \,
send /dmx/universe/1/13 \$1 \, send /dmx/universe/1/14 \$1 \, send
/dmx/universe/1/15 \$1;
#X obj 124 143 tgl 15 0 empty empty empty 17 7 0 10 -262144 -1 -1 0
1;
#X obj 55 387 min 255;
#X obj 55 177 metro 50;
#X obj 55 294 f;
#X obj 82 294 + 1;
#X obj 55 268 sel 0;
#X obj 55 243 mod 2;
#X obj 166 237 +~ 1;
#X obj 149 294 snapshot~;
#X obj 166 213 osc~ 0.2;
#X obj 166 262 *~ 128;
#X msg 55 111 1;
#X obj 55 85 t b b;
#X obj 91 107 del 2000;
#X msg 91 132 0;
#X obj 55 364 + 0;
#X obj 126 59 bng 15 250 50 0 empty empty empty 17 7 0 10 -262144 -1
-1;
#X obj 121 533 loadbang;
#X obj 121 555 del 500;
#X obj 110 626 sel 1;
#X text 171 704 Turn all shutters on when we know we're succesfully
connected;
#X obj 55 30 r #start-sequence;
#X msg 191 550 disconnect;
#X msg 146 394 0;
#X msg 172 610 send /dmx/universe/1/1 255 \, send /dmx/universe/1/5
0 \, send /dmx/universe/1/6 0 \, send /dmx/universe/1/9 255 \, send
/dmx/universe/1/13 0 \, send /dmx/universe/1/14 0 \, send /dmx/universe/1/17
255 \, send /dmx/universe/1/21 0 \, send /dmx/universe/1/22 0 \, send
/dmx/universe/1/25 255 \, send /dmx/universe/1/29 0 \, send /dmx/universe/1/30
0;
#X msg 265 570 connect localhost 7770;
#X msg 121 579 connect 192.168.0.52 7770;
#X msg 244 362 send /dmx/universe/1/1 \$1;
#X floatatom 242 321 5 0 0 0 - - -, f 5;
#X msg 201 128 1;
#X obj 288 122 dmx_channels 0 1;
#X obj 288 142 dmx_channels 1 11;
#X obj 288 162 dmx_channels 2 21;
#X obj 288 182 dmx_channels 3 31;
#X text 399 123 Lamp 0 - Ch 1;
#X text 399 143 Lamp 1 - Ch 11;
#X text 399 163 Lamp 2 - Ch 21;
#X text 399 183 Lamp 3 - Ch 31;
#X connect 0 0 27 0;
#X connect 2 0 20 0;
#X connect 3 0 4 0;
#X connect 3 0 14 0;
#X connect 4 0 3 1;
#X connect 5 0 6 0;
#X connect 6 0 23 0;
#X connect 8 0 10 0;
#X connect 9 0 7 0;
#X connect 10 0 3 0;
#X connect 11 0 12 0;
#X connect 11 0 5 0;
#X connect 12 0 11 1;
#X connect 13 0 11 0;
#X connect 14 0 13 0;
#X connect 15 0 18 0;
#X connect 17 0 15 0;
#X connect 18 0 16 0;
#X connect 19 0 10 0;
#X connect 20 0 19 0;
#X connect 20 1 21 0;
#X connect 21 0 22 0;
#X connect 22 0 10 0;
#X connect 23 0 9 0;
#X connect 24 0 20 0;
#X connect 26 0 34 0;
#X connect 27 0 32 0;
#X connect 29 0 2 0;
#X connect 30 0 0 0;
#X connect 31 0 7 0;
#X connect 32 0 0 0;
#X connect 34 0 0 0;
#X connect 35 0 0 0;
#X connect 36 0 35 0;
#X connect 37 0 2 0;
#X restore 58 254 pd dmx;
#N canvas 615 136 967 682 unity 0;
#X obj 86 404 sendOSC;
#X obj 97 333 loadbang;
#X obj 97 355 del 500;
#X obj 86 426 sel 1;
#X floatatom 126 440 5 0 0 0 - - -, f 5;
#X floatatom 142 415 5 0 0 0 - - -, f 5;
#X msg 97 379 disconnect \, connect localhost 55555;
#X obj 60 60 r \$0-tick;
#X obj 60 104 int;
#X obj 60 126 change;
#X obj 60 149 mod 50;
#X obj 60 171 t f f;
#X obj 112 208 div 25;
#X obj 60 207 mod 25;
#X obj 60 251 pack f f;
#X msg 61 282 send /poofer_\$1_\$2 16000;
#X obj 173 217 r #toGPIO;
#X msg 173 241 send /poofer_\$1_0 \$2;
#X msg 191 357 send /motorSpeed \$1;
#X obj 244 271 r #force;
#X obj 254 310 line;
#X floatatom 317 318 5 0 0 0 - - -, f 5;
#X msg 254 289 \$1 5000;
#X obj 254 258 * 10;
#X obj 401 56 r \$0-tick;
#X obj 401 100 int;
#X obj 401 122 change;
#X obj 401 78 / 1;
#X obj 401 189 change;
#X obj 401 145 mod 12;
#X obj 401 167 div 4;
#X obj 401 211 t f b;
#X obj 401 233 sel 0 1 2 3;
#X obj 401 369 pack s f f f;
#X obj 491 264 t b b b;
#X obj 491 286 random 255;
#X obj 501 306 random 255;
#X obj 511 326 random 255;
#X msg 401 255 /light_N;
#X msg 411 275 /light_E;
#X msg 421 296 /light_S;
#X msg 432 315 /light_W;
#X obj 401 391 unpack s f f f;
#X msg 428 442 \$1 \, 0 \$2;
#X obj 428 419 pack f f;
#X obj 428 464 line;
#X msg 488 442 \$1 \, 0 \$2;
#X obj 488 419 pack f f;
#X obj 488 464 line;
#X msg 548 442 \$1 \, 0 \$2;
#X obj 548 419 pack f f;
#X obj 548 464 line;
#X obj 428 486 t b f;
#X msg 401 537 send \$2 \$3 \$4 \$5;
#X obj 393 512 pack f s f f f;
#X obj 532 372 t f;
#X floatatom 568 360 5 0 0 0 - - -, f 5;
#X msg 527 542 send /light_N 0 0 0 \, send /light_E 0 0 0 \, send /light_S
0 0 0 \, send /light_W 0 0 0;
#X msg 591 256 send /light_N \$1 \$2 \$3 \, send /light_E \$1 \$2 \$3
\, send /light_S \$1 \$2 \$3 \, send /light_W \$1 \$2 \$3;
#X obj 590 163 pack f f;
#X obj 590 208 line;
#X obj 650 163 pack f f;
#X obj 650 208 line;
#X obj 710 163 pack f f;
#X obj 710 208 line;
#X obj 590 230 pack f f f;
#X obj 612 53 t b b b;
#X obj 612 75 random 255;
#X obj 622 95 random 255;
#X obj 632 115 random 255;
#X msg 590 186 \$1 \$2;
#X msg 650 186 \$1 \$2;
#X msg 710 187 \$1 \$2;
#X obj 756 105 t f;
#X floatatom 751 73 5 0 0 0 - - -, f 5;
#X obj 60 82 / 2;
#X obj 201 37 r toDMX;
#X obj 201 59 route 0 1 2 3;
#X obj 201 81 list prepend /light_N;
#X obj 201 185 list trim;
#X obj 201 163 list prepend send;
#X obj 211 101 list prepend /light_E;
#X obj 221 121 list prepend /light_S;
#X obj 231 141 list prepend /light_W;
#X msg 312 46 0 255 255 0;
#X obj 191 324 r motor_speed;
#X floatatom 204 346 5 0 0 0 - - -, f 5;
#X connect 0 0 3 0;
#X connect 0 0 4 0;
#X connect 0 1 5 0;
#X connect 1 0 2 0;
#X connect 2 0 6 0;
#X connect 6 0 0 0;
#X connect 7 0 75 0;
#X connect 8 0 9 0;
#X connect 9 0 10 0;
#X connect 10 0 11 0;
#X connect 11 0 13 0;
#X connect 11 1 12 0;
#X connect 12 0 14 1;
#X connect 13 0 14 0;
#X connect 15 0 0 0;
#X connect 16 0 17 0;
#X connect 17 0 0 0;
#X connect 18 0 0 0;
#X connect 19 0 21 0;
#X connect 19 0 23 0;
#X connect 22 0 20 0;
#X connect 23 0 22 0;
#X connect 25 0 26 0;
#X connect 26 0 29 0;
#X connect 27 0 25 0;
#X connect 28 0 31 0;
#X connect 28 0 66 0;
#X connect 29 0 30 0;
#X connect 30 0 28 0;
#X connect 31 0 32 0;
#X connect 31 1 34 0;
#X connect 32 0 38 0;
#X connect 32 1 39 0;
#X connect 32 2 40 0;
#X connect 32 3 41 0;
#X connect 33 0 42 0;
#X connect 34 0 35 0;
#X connect 34 1 36 0;
#X connect 34 2 37 0;
#X connect 35 0 33 1;
#X connect 36 0 33 2;
#X connect 37 0 33 3;
#X connect 38 0 33 0;
#X connect 39 0 33 0;
#X connect 40 0 33 0;
#X connect 41 0 33 0;
#X connect 42 0 54 1;
#X connect 42 1 44 0;
#X connect 42 2 47 0;
#X connect 42 3 50 0;
#X connect 43 0 45 0;
#X connect 44 0 43 0;
#X connect 45 0 52 0;
#X connect 46 0 48 0;
#X connect 47 0 46 0;
#X connect 48 0 54 3;
#X connect 49 0 51 0;
#X connect 50 0 49 0;
#X connect 51 0 54 4;
#X connect 52 0 54 0;
#X connect 52 1 54 2;
#X connect 53 0 0 0;
#X connect 54 0 53 0;
#X connect 55 0 44 1;
#X connect 55 0 47 1;
#X connect 55 0 50 1;
#X connect 56 0 55 0;
#X connect 57 0 0 0;
#X connect 59 0 70 0;
#X connect 60 0 65 0;
#X connect 61 0 71 0;
#X connect 62 0 65 1;
#X connect 63 0 72 0;
#X connect 64 0 65 2;
#X connect 65 0 58 0;
#X connect 66 0 67 0;
#X connect 66 1 68 0;
#X connect 66 2 69 0;
#X connect 67 0 59 0;
#X connect 68 0 61 0;
#X connect 69 0 63 0;
#X connect 70 0 60 0;
#X connect 71 0 62 0;
#X connect 72 0 64 0;
#X connect 73 0 63 1;
#X connect 73 0 61 1;
#X connect 73 0 59 1;
#X connect 74 0 73 0;
#X connect 75 0 8 0;
#X connect 76 0 77 0;
#X connect 77 0 78 0;
#X connect 77 1 81 0;
#X connect 77 2 82 0;
#X connect 77 3 83 0;
#X connect 78 0 80 0;
#X connect 79 0 0 0;
#X connect 80 0 79 0;
#X connect 81 0 80 0;
#X connect 82 0 80 0;
#X connect 83 0 80 0;
#X connect 84 0 77 0;
#X connect 85 0 18 0;
#X connect 85 0 86 0;
#X restore 58 275 pd unity;
#N canvas 0 99 1024 675 helix 0;
#X msg 31 176 chase;
#X msg 61 236 cycle-up-down;
#X obj 31 76 r #mode-index;
#X obj 31 100 swap 16;
#X obj 31 122 -;
#X obj 70 550 t b a;
#X obj 70 608 s #slider;
#X obj 70 584 random 1000;
#X msg 310 202 cw-single;
#X obj 310 404 symbol;
#X msg 330 242 ccw-single;
#X msg 340 262 ccw-both;
#X obj 310 426 s branch;
#N canvas 291 88 909 697 blocks 0;
#X obj 49 256 t b b;
#X obj 49 363 f;
#X obj 75 363 + 1;
#X msg 78 336 0;
#X obj 49 385 t f f;
#X obj 49 497 mod 2;
#X obj 49 621 f;
#X obj 49 519 sel 0;
#X msg 49 429 \$2 \$1;
#X obj 89 497 mod 2;
#X obj 89 519 sel 1;
#X obj 49 407 pack f s;
#X obj 101 385 symbol;
#X msg 99 181 even;
#X msg 59 181 odd;
#X obj 49 643 outlet;
#X obj 49 233 t b a;
#X obj 132 572 sel 1;
#X obj 139 93 r tick;
#X obj 139 158 sel 0;
#X obj 139 136 mod 16;
#X obj 49 22 r mode;
#X obj 49 44 symbol;
#X obj 139 114 spigot;
#X msg 189 88 1;
#X msg 220 89 0;
#X msg 139 181 all;
#X obj 189 66 sel all-flashing;
#X obj 189 44 symbol;
#X obj 178 551 +;
#X obj 178 573 sel 2;
#X obj 178 529 >= 6;
#X obj 208 529 < 12;
#X obj 178 506 t f f;
#X obj 248 551 +;
#X obj 248 573 sel 2;
#X obj 248 506 t f f;
#X obj 248 529 >= 12;
#X obj 328 551 +;
#X obj 328 573 sel 2;
#X obj 288 529 < 18;
#X obj 328 529 >= 18;
#X obj 415 543 sel 1;
#X obj 415 521 < 24;
#X obj 328 506 t f f;
#X obj 368 529 < 24;
#X obj 49 300 until;
#X msg 211 216 bottom6;
#X obj 132 550 < 6;
#X msg 211 195 bottom-middle6;
#X msg 211 153 top6;
#X msg 211 174 top-middle6;
#X msg 49 278 24;
#X msg 321 174 top8;
#X msg 321 195 middle8;
#X msg 321 216 bottom8;
#X obj 463 543 sel 1;
#X obj 510 545 +;
#X obj 510 567 sel 2;
#X obj 510 500 t f f;
#X obj 580 546 +;
#X obj 580 568 sel 2;
#X obj 580 501 t f f;
#X obj 620 524 < 24;
#X obj 463 521 < 8;
#X obj 510 523 >= 8;
#X obj 540 523 < 16;
#X obj 580 524 >= 16;
#X floatatom 244 398 5 0 0 0 - - -, f 5;
#X msg 671 459 0 \, 2 \, 4 \, 6 \, 8 \, 10;
#X msg 681 479 1 \, 3 \, 5 \, 7 \, 9 \, 11;
#X msg 691 499 12 \, 14 \, 16 \, 18 \, 20 \, 22;
#X msg 701 519 13 \, 15 \, 17 \, 19 \, 21 \, 23;
#X msg 393 148 topleft;
#X msg 393 168 topright;
#X msg 393 188 bottomleft;
#X msg 393 208 bottomright;
#X obj 49 451 route odd even bottom6 bottom-middle6 top-middle6 top6
all bottom8 middle8 top8;
#X obj 590 397 route topleft topright bottomleft bottomright;
#X obj 671 541 f;
#X connect 0 0 52 0;
#X connect 0 1 3 0;
#X connect 1 0 2 0;
#X connect 1 0 4 0;
#X connect 2 0 1 1;
#X connect 3 0 1 1;
#X connect 4 0 11 0;
#X connect 4 1 6 1;
#X connect 5 0 7 0;
#X connect 6 0 15 0;
#X connect 7 0 6 0;
#X connect 8 0 77 0;
#X connect 9 0 10 0;
#X connect 10 0 6 0;
#X connect 11 0 8 0;
#X connect 12 0 11 1;
#X connect 13 0 16 0;
#X connect 14 0 16 0;
#X connect 16 0 0 0;
#X connect 16 1 12 0;
#X connect 17 0 6 0;
#X connect 18 0 23 0;
#X connect 19 0 26 0;
#X connect 20 0 19 0;
#X connect 21 0 22 0;
#X connect 21 0 28 0;
#X connect 22 0 16 0;
#X connect 23 0 20 0;
#X connect 24 0 23 1;
#X connect 25 0 23 1;
#X connect 26 0 16 0;
#X connect 27 0 24 0;
#X connect 27 1 25 0;
#X connect 28 0 27 0;
#X connect 29 0 30 0;
#X connect 30 0 6 0;
#X connect 31 0 29 0;
#X connect 32 0 29 1;
#X connect 33 0 31 0;
#X connect 33 1 32 0;
#X connect 34 0 35 0;
#X connect 35 0 6 0;
#X connect 36 0 37 0;
#X connect 36 1 40 0;
#X connect 37 0 34 0;
#X connect 38 0 39 0;
#X connect 39 0 6 0;
#X connect 40 0 34 1;
#X connect 41 0 38 0;
#X connect 42 0 6 0;
#X connect 43 0 42 0;
#X connect 44 0 41 0;
#X connect 44 1 45 0;
#X connect 45 0 38 1;
#X connect 46 0 1 0;
#X connect 47 0 16 0;
#X connect 48 0 17 0;
#X connect 49 0 16 0;
#X connect 50 0 16 0;
#X connect 51 0 16 0;
#X connect 52 0 46 0;
#X connect 53 0 16 0;
#X connect 54 0 16 0;
#X connect 55 0 16 0;
#X connect 56 0 6 0;
#X connect 57 0 58 0;
#X connect 58 0 6 0;
#X connect 59 0 65 0;
#X connect 59 1 66 0;
#X connect 60 0 61 0;
#X connect 61 0 6 0;
#X connect 62 0 67 0;
#X connect 62 1 63 0;
#X connect 63 0 60 1;
#X connect 64 0 56 0;
#X connect 65 0 57 0;
#X connect 66 0 57 1;
#X connect 67 0 60 0;
#X connect 69 0 79 0;
#X connect 70 0 79 0;
#X connect 71 0 79 0;
#X connect 72 0 79 0;
#X connect 73 0 16 0;
#X connect 74 0 16 0;
#X connect 75 0 16 0;
#X connect 76 0 16 0;
#X connect 77 0 5 0;
#X connect 77 1 9 0;
#X connect 77 2 48 0;
#X connect 77 3 33 0;
#X connect 77 4 36 0;
#X connect 77 5 44 0;
#X connect 77 6 43 0;
#X connect 77 7 64 0;
#X connect 77 8 59 0;
#X connect 77 9 62 0;
#X connect 77 10 78 0;
#X connect 78 0 69 0;
#X connect 78 1 70 0;
#X connect 78 2 71 0;
#X connect 78 3 72 0;
#X connect 79 0 15 0;
#X restore 361 462 pd blocks;
#X msg 360 302 opposing-2;
#X obj 310 73 r #branch-index;
#N canvas 667 141 585 542 auto 1;
#X obj 77 346 int;
#X obj 122 153 r mode;
#X obj 77 82 r tick;
#X obj 77 124 spigot;
#X msg 77 218 \$2 \$1;
#X obj 77 196 pack f s;
#N canvas 599 312 304 449 chase 0;
#X obj 171 184 random 2;
#X obj 81 272 f;
#X obj 107 272 + 1;
#X obj 171 206 sel 0 1;
#X msg 171 228 -1;
#X msg 201 228 1;
#X obj 81 78 t b f;
#X obj 108 122 sel 0;
#X obj 108 149 t b b;
#X obj 108 100 mod 10;
#X obj 81 47 inlet;
#X obj 81 374 outlet;
#X obj 159 140 r layers-count;
#X obj 81 294 mod 124;
#X obj 108 184 random 24;
#X connect 0 0 3 0;
#X connect 1 0 2 0;
#X connect 1 0 13 0;
#X connect 2 0 1 1;
#X connect 3 0 4 0;
#X connect 3 1 5 0;
#X connect 4 0 2 1;
#X connect 5 0 2 1;
#X connect 6 0 1 0;
#X connect 6 1 9 0;
#X connect 7 0 8 0;
#X connect 8 0 14 0;
#X connect 8 1 0 0;
#X connect 9 0 7 0;
#X connect 10 0 6 0;
#X connect 12 0 13 1;
#X connect 12 0 14 1;
#X connect 13 0 11 0;
#X connect 14 0 1 1;
#X restore 77 286 pd chase;
#N canvas 825 357 240 369 cycle-up 0;
#X obj 81 47 inlet;
#X obj 81 274 outlet;
#X obj 81 91 mod 24;
#X obj 114 68 r layers-count;
#X connect 0 0 2 0;
#X connect 2 0 1 0;
#X connect 3 0 2 1;
#X restore 237 286 pd cycle-up;
#N canvas 172 56 291 360 cycle-down 0;
#X obj 81 47 inlet;
#X obj 81 274 outlet;
#X obj 81 195 -;
#X obj 139 65 r layers-count;
#X obj 81 91 mod 24;
#X obj 81 173 swap 24;
#X connect 0 0 4 0;
#X connect 2 0 1 0;
#X connect 3 0 4 1;
#X connect 3 0 5 1;
#X connect 4 0 5 0;
#X connect 5 0 2 0;
#X connect 5 1 2 1;
#X restore 147 286 pd cycle-down;
#N canvas 806 477 504 514 cycle-up-down 0;
#X obj 81 47 inlet;
#X obj 81 404 outlet;
#X obj 81 69 t b;
#X obj 81 91 f;
#X obj 107 91 + 1;
#X obj 81 183 t f f;
#X msg 108 367 1;
#X msg 137 367 -1;
#X obj 108 227 pack f s;
#X obj 153 206 r branch;
#X msg 108 249 \$2 \$1;
#X obj 108 279 route cw-both ccw-both cw-single ccw-single all opposing-1
opposing-2 cw-inverse ccw-inverse;
#X obj 108 345 sel 1 7;
#X obj 139 65 r layers-count;
#X obj 81 113 mod 24;
#X obj 168 345 sel 1 22;
#X connect 0 0 2 0;
#X connect 2 0 3 0;
#X connect 3 0 4 0;
#X connect 3 0 14 0;
#X connect 4 0 3 1;
#X connect 5 0 1 0;
#X connect 5 1 8 0;
#X connect 6 0 4 1;
#X connect 7 0 4 1;
#X connect 8 0 10 0;
#X connect 9 0 8 1;
#X connect 10 0 11 0;
#X connect 11 0 12 0;
#X connect 11 1 12 0;
#X connect 11 2 15 0;
#X connect 11 3 15 0;
#X connect 11 4 12 0;
#X connect 11 5 12 0;
#X connect 11 6 12 0;
#X connect 11 7 12 0;
#X connect 11 8 12 0;
#X connect 12 0 6 0;
#X connect 12 1 7 0;
#X connect 13 0 14 1;
#X connect 14 0 5 0;
#X connect 15 0 6 0;
#X connect 15 1 7 0;
#X restore 317 286 pd cycle-up-down;
#X obj 128 29 r mode;
#X msg 128 99 1;
#X msg 399 92 0;
#X obj 77 368 outlet;
#X obj 122 175 symbol;
#X obj 77 241 route chase cycle-down cycle-up cycle-inverse cycle-up-down
;
#X obj 128 52 sel chase cycle-down cycle-up cycle-inverse cycle-up-down
;
#X obj 77 318 mod 24;
#X connect 0 0 13 0;
#X connect 1 0 14 0;
#X connect 2 0 3 0;
#X connect 3 0 5 0;
#X connect 4 0 15 0;
#X connect 5 0 4 0;
#X connect 6 0 17 0;
#X connect 7 0 17 0;
#X connect 8 0 17 0;
#X connect 9 0 17 0;
#X connect 10 0 16 0;
#X connect 11 0 3 1;
#X connect 12 0 3 1;
#X connect 14 0 5 1;
#X connect 15 0 6 0;
#X connect 15 1 8 0;
#X connect 15 2 7 0;
#X connect 15 4 9 0;
#X connect 16 0 11 0;
#X connect 16 1 11 0;
#X connect 16 2 11 0;
#X connect 16 3 11 0;
#X connect 16 4 11 0;
#X connect 16 5 12 0;
#X connect 17 0 0 0;
#X restore 310 462 pd auto;
#X msg 121 365 middle3;
#X obj 219 122 loadbang;
#X obj 909 21 vsl 20 150 0 23 0 0 empty empty empty 0 -9 0 10 -262144
-1 -1 0 1;
#X obj 909 179 int;
#X obj 909 201 change;
#X obj 991 70 hsl 128 15 0 3000 0 0 empty empty empty -2 -8 0 10 -262144
-1 -1 0 1;
#X floatatom 997 90 5 0 0 0 - - -, f 5;
#X obj 991 185 hsl 128 15 1000 20 0 0 empty empty empty -2 -8 0 10
-262144 -1 -1 0 1;
#X floatatom 998 205 5 0 0 0 - - -, f 5;
#X obj 988 160 s #trail-length;
#X obj 988 223 s #auto-speed;
#X obj 909 223 s #slider;
#X obj 988 130 max 100;
#X obj 1027 109 r #auto-speed;
#X symbolatom 534 185 15 0 0 0 - - -, f 15;
#X obj 534 161 symbol;
#X obj 534 137 r mode;
#X msg 150 474 all-flashing;
#X obj 382 120 r mode;
#X obj 310 95 swap 9;
#X obj 310 117 -;
#X obj 310 174 sel 0 1 2 3 4 5 6 7 8;
#X obj 31 148 sel 0 1 2 3 4 5 6 7 8 9 10 11 12 13 14 15;
#X obj 627 23 r #start-sequence;
#X obj 627 45 t a a a;
#X obj 745 157 s #trail-length;
#X msg 662 364 0;
#X obj 731 484 symbol;
#X msg 745 135 500;
#X msg 370 322 cw-inverse;
#X msg 380 342 ccw-inverse;
#X msg 390 362 all;
#X msg 41 196 cycle-up;
#X msg 51 216 cycle-down;
#X obj 662 386 t b f;
#X msg 662 73 1;
#X obj 662 95 metro 1000;
#X msg 627 281 1;
#X obj 662 281 sel 0;
#X obj 745 420 s #time-remaining-label;
#X obj 790 355 mod 60;
#X floatatom 802 381 5 0 0 0 - - -, f 5;
#X floatatom 757 381 5 0 0 0 - - -, f 5;
#X obj 745 355 div 60;
#X obj 745 333 t f f;
#X obj 745 398 pack f f;
#X msg 743 73 0;
#X obj 662 333 t b b;
#X msg 731 462 Running;
#X msg 783 462 Finished;
#X obj 731 505 s #status-label;
#X obj 496 17 r #all-off;
#X obj 496 39 t b b;
#X obj 523 67 s stop-seq;
#X obj 671 305 r stop-seq;
#X msg 496 85 0;
#X obj 496 107 s all-poofers;
#X obj 164 13 declare -path abs;
#X obj 165 507 t b b;
#X msg 192 609 seq;
#X obj 165 528 s #start-sequence;
#X obj 205 557 t b b;
#X obj 205 578 s #all-off;
#X msg 662 409 seq;
#X obj 31 652 symbol;
#X obj 31 674 s mode;
#X obj 662 169 swap 120;
#X obj 662 191 -;
#X obj 701 139 + 1;
#X obj 662 139 f;
#X floatatom 682 213 5 0 0 0 - - -, f 5;
#X obj 743 187 s sequence-time-elapsed;
#N canvas 88 61 1204 609 euclid 0;
#X obj 35 112 r tick;
#X obj 86 4 r mode;
#X msg 86 129 1;
#X obj 86 27 sel euclid;
#X msg 143 129 0;
#X obj 35 276 c_euclid 1 4 0;
#X obj 35 328 f 0;
#X obj 1046 249 pack f f;
#X msg 1046 271 \$2 \$1;
#X obj 135 328 f 1;
#X obj 235 328 f 2;
#X obj 335 328 f 3;
#X obj 435 328 f 4;
#X obj 535 328 f 5;
#X obj 1046 179 f;
#X obj 1071 179 + 1;
#X obj 1046 117 t b b b b b b b;
#X msg 1133 141 0;
#X obj 1046 201 t b f;
#X msg 1132 173 clear;
#X obj 35 151 spigot;
#X obj 35 174 t f f;
#X obj 235 276 c_euclid 2 7 0;
#X obj 335 276 c_euclid 3 8 1;
#X obj 435 276 c_euclid 3 8 2;
#X obj 535 276 c_euclid 4 5 0;
#X obj 916 67 / 32;
#X obj 116 240 >= 0;
#X obj 216 245 >= 1;
#X obj 316 245 >= 2;
#X obj 416 245 >= 3;
#X obj 516 245 >= 4;
#X obj 616 245 >= 5;
#X obj 135 276 c_euclid 1 3 0;
#X obj 635 276 c_euclid 3 8 1;
#X obj 735 276 c_euclid 3 8 2;
#X obj 835 276 c_euclid 4 5 0;
#X obj 635 328 f 6;
#X obj 735 328 f 7;
#X obj 835 328 f 8;
#X obj 716 245 >= 6;
#X obj 816 245 >= 7;
#X obj 916 245 >= 8;
#X obj 1046 293 route 0 1 2 3 4 5 6 7 8;
#X obj 1046 94 t b b;
#X obj 1026 227 c_urn10;
#X obj 916 219 change;
#X obj 916 89 int;
#X obj 916 111 moses 8;
#X obj 955 158 swap 8;
#X obj 955 180 -;
#X floatatom 955 202 5 0 0 0 - - -, f 5;
#X obj 916 43 mod 512;
#X obj 955 134 mod 8;
#X obj 98 54 s new-euclid;
#X obj 246 68 r new-euclid;
#X msg 246 182 number \$1;
#X msg 316 182 number \$1;
#X obj 316 138 random 2;
#X msg 386 182 number \$1;
#X msg 456 182 number \$1;
#X msg 526 182 number \$1;
#X msg 596 182 number \$1;
#X obj 456 138 random 3;
#X obj 456 160 + 2;
#X obj 526 139 random 4;
#X obj 526 160 + 2;
#X obj 596 161 + 2;
#X obj 596 139 random 2;
#X msg 666 182 number \$1;
#X obj 666 161 + 2;
#X msg 736 182 number \$1;
#X obj 736 161 + 2;
#X msg 806 182 number \$1;
#X obj 246 160 + 1;
#X obj 246 138 random 2;
#X obj 316 160 + 1;
#X obj 386 160 + 2;
#X obj 386 138 random 3;
#X obj 666 139 random 4;
#X obj 736 139 random 4;
#X obj 806 161 + 1;
#X obj 806 139 random 3;
#X obj 400 91 s trail-length-ramp;
#X msg 460 68 125;
#X obj 400 23 mod 64;
#X obj 400 46 sel 50 0;
#X msg 400 68 200 2000;
#X obj 435 360 t a a;
#X obj 462 409 pipe 50;
#X obj 501 363 r #auto-speed;
#X obj 501 385 / 2;
#X obj 462 431 - 3;
#X obj 635 360 t a a;
#X obj 662 409 pipe 50;
#X obj 701 363 r #auto-speed;
#X obj 701 385 / 2;
#X obj 662 431 - 3;
#X obj 462 453 spigot;
#X obj 934 437 random 3;
#X obj 934 459 sel 0;
#X msg 934 481 0;
#X msg 961 481 1;
#X obj 934 414 r new-euclid;
#X obj 934 503 f;
#X obj 662 453 spigot;
#X obj 519 464 t a a;
#X obj 546 513 pipe 50;
#X obj 585 467 r #auto-speed;
#X obj 585 489 / 2;
#X obj 546 535 - 3;
#X obj 546 557 spigot;
#X obj 757 456 t a a;
#X obj 784 505 pipe 50;
#X obj 823 459 r #auto-speed;
#X obj 823 481 / 2;
#X obj 784 549 spigot;
#X obj 784 527 + 2;
#X obj 1012 456 sel 0;
#X msg 1012 478 0;
#X msg 1039 478 1;
#X obj 1012 500 f;
#X obj 1012 434 random 2;
#X obj 1068 62 bng 15 250 50 0 empty empty empty 17 7 0 10 -262144
-1 -1;
#X floatatom 969 112 5 0 0 0 - - -, f 5;
#X floatatom 35 134 5 0 0 0 - - -, f 5;
#X msg 185 8 symbol euclid;
#X obj 35 586 outlet;
#X obj 54 551 + 8;
#X obj 35 524 t f f f;
#X obj 84 551 + 16;
#X connect 0 0 20 0;
#X connect 0 0 125 0;
#X connect 1 0 3 0;
#X connect 2 0 20 1;
#X connect 3 0 2 0;
#X connect 3 0 44 0;
#X connect 3 0 54 0;
#X connect 3 1 4 0;
#X connect 4 0 20 1;
#X connect 5 0 6 0;
#X connect 6 0 129 0;
#X connect 7 0 8 0;
#X connect 8 0 43 0;
#X connect 9 0 129 0;
#X connect 10 0 129 0;
#X connect 11 0 129 0;
#X connect 12 0 88 0;
#X connect 13 0 106 0;
#X connect 13 0 129 0;
#X connect 14 0 15 0;
#X connect 14 0 18 0;
#X connect 15 0 14 1;
#X connect 16 0 14 0;
#X connect 16 1 14 0;
#X connect 16 2 14 0;
#X connect 16 3 14 0;
#X connect 16 4 14 0;
#X connect 16 6 17 0;
#X connect 16 6 19 0;
#X connect 17 0 14 1;
#X connect 18 0 45 0;
#X connect 18 1 7 1;
#X connect 19 0 45 0;
#X connect 20 0 21 0;
#X connect 20 0 85 0;
#X connect 21 0 5 0;
#X connect 21 0 22 0;
#X connect 21 0 23 0;
#X connect 21 0 24 0;
#X connect 21 0 25 0;
#X connect 21 0 33 0;
#X connect 21 0 34 0;
#X connect 21 0 35 0;
#X connect 21 0 36 0;
#X connect 21 1 52 0;
#X connect 22 0 10 0;
#X connect 23 0 11 0;
#X connect 24 0 12 0;
#X connect 25 0 13 0;
#X connect 26 0 47 0;
#X connect 27 0 5 2;
#X connect 28 0 33 2;
#X connect 29 0 22 2;
#X connect 30 0 23 2;
#X connect 31 0 24 2;
#X connect 32 0 25 2;
#X connect 33 0 9 0;
#X connect 34 0 37 0;
#X connect 35 0 38 0;
#X connect 36 0 39 0;
#X connect 37 0 93 0;
#X connect 38 0 129 0;
#X connect 39 0 112 0;
#X connect 40 0 34 2;
#X connect 41 0 35 2;
#X connect 42 0 36 2;
#X connect 43 0 6 1;
#X connect 43 1 9 1;
#X connect 43 2 10 1;
#X connect 43 3 11 1;
#X connect 43 4 12 1;
#X connect 43 5 13 1;
#X connect 43 6 37 1;
#X connect 43 7 38 1;
#X connect 43 8 39 1;
#X connect 44 0 16 0;
#X connect 44 1 16 0;
#X connect 45 0 7 0;
#X connect 46 0 27 0;
#X connect 46 0 28 0;
#X connect 46 0 29 0;
#X connect 46 0 30 0;
#X connect 46 0 31 0;
#X connect 46 0 32 0;
#X connect 46 0 40 0;
#X connect 46 0 41 0;
#X connect 46 0 42 0;
#X connect 47 0 48 0;
#X connect 47 0 124 0;
#X connect 48 0 46 0;
#X connect 48 1 53 0;
#X connect 49 0 50 0;
#X connect 49 1 50 1;
#X connect 50 0 46 0;
#X connect 50 0 51 0;
#X connect 52 0 26 0;
#X connect 53 0 49 0;
#X connect 55 0 58 0;
#X connect 55 0 63 0;
#X connect 55 0 65 0;
#X connect 55 0 68 0;
#X connect 55 0 75 0;
#X connect 55 0 78 0;
#X connect 55 0 79 0;
#X connect 55 0 80 0;
#X connect 55 0 82 0;
#X connect 56 0 5 1;
#X connect 57 0 33 1;
#X connect 58 0 76 0;
#X connect 59 0 22 1;
#X connect 60 0 23 1;
#X connect 61 0 24 1;
#X connect 62 0 25 1;
#X connect 63 0 64 0;
#X connect 64 0 60 0;
#X connect 65 0 66 0;
#X connect 66 0 61 0;
#X connect 67 0 62 0;
#X connect 68 0 67 0;
#X connect 69 0 34 1;
#X connect 70 0 69 0;
#X connect 71 0 35 1;
#X connect 72 0 71 0;
#X connect 73 0 36 1;
#X connect 74 0 56 0;
#X connect 75 0 74 0;
#X connect 76 0 57 0;
#X connect 77 0 59 0;
#X connect 78 0 77 0;
#X connect 79 0 70 0;
#X connect 80 0 72 0;
#X connect 81 0 73 0;
#X connect 82 0 81 0;
#X connect 84 0 83 0;
#X connect 85 0 86 0;
#X connect 86 0 87 0;
#X connect 86 1 84 0;
#X connect 87 0 83 0;
#X connect 88 0 129 0;
#X connect 88 1 89 0;
#X connect 89 0 92 0;
#X connect 90 0 91 0;
#X connect 91 0 89 1;
#X connect 92 0 98 0;
#X connect 93 0 129 0;
#X connect 93 1 94 0;
#X connect 94 0 97 0;
#X connect 95 0 96 0;
#X connect 96 0 94 1;
#X connect 97 0 105 0;
#X connect 98 0 129 0;
#X connect 99 0 100 0;
#X connect 100 0 101 0;
#X connect 100 1 102 0;
#X connect 101 0 104 0;
#X connect 102 0 104 0;
#X connect 103 0 99 0;
#X connect 103 0 122 0;
#X connect 104 0 105 1;
#X connect 104 0 98 1;
#X connect 105 0 129 0;
#X connect 106 1 107 0;
#X connect 107 0 110 0;
#X connect 108 0 109 0;
#X connect 109 0 107 1;
#X connect 110 0 111 0;
#X connect 111 0 129 0;
#X connect 112 0 129 0;
#X connect 112 1 113 0;
#X connect 113 0 117 0;
#X connect 114 0 115 0;
#X connect 115 0 113 1;
#X connect 116 0 129 0;
#X connect 117 0 116 0;
#X connect 118 0 119 0;
#X connect 118 1 120 0;
#X connect 119 0 121 0;
#X connect 120 0 121 0;
#X connect 121 0 116 1;
#X connect 121 0 111 1;
#X connect 122 0 118 0;
#X connect 123 0 44 0;
#X connect 126 0 3 0;
#X connect 128 0 127 0;
#X connect 129 0 127 0;
#X connect 129 1 128 0;
#X connect 129 2 130 0;
#X connect 130 0 127 0;
#X restore 495 461 pd euclid;
#X obj 382 142 sel all-flashing;
#X msg 129 389 euclid;
#X obj 662 431 symbol;
#X obj 662 453 s mode;
#X obj 431 40 bng 15 250 50 0 empty empty empty 17 7 0 10 -262144 -1
-1;
#X msg 71 259 spiral;
#X msg 81 280 spiral-2;
#X msg 91 302 spiral-down;
#X msg 101 323 spiral-2-down;
#X obj 586 449 r mode;
#X obj 586 493 s reset-timebase;
#X obj 586 471 t b b;
#X msg 613 517 125;
#X obj 613 538 s #trail-length;
#X msg 677 117 0;
#X msg 137 412 slider;
#X msg 141 447 genome;
#X obj 761 228 r branch;
#X obj 761 250 sel all cw-inverse ccw-inverse opposing-1 opposing-2
;
#X msg 761 272 1;
#X obj 971 516 s ignore-force;
#X obj 971 451 f;
#X obj 971 473 +;
#X obj 971 495 > 0;
#X obj 971 430 t b f;
#X msg 1056 292 0;
#X obj 901 347 sel spiral spiral-2 spiral-down spiral-2-down;
#X obj 901 323 r mode;
#X msg 901 374 1;
#X msg 1161 376 0;
#X floatatom 1019 483 5 0 0 0 - - -, f 5;
#X msg 111 344 knightrider;
#X obj 246 462 bng 15 250 50 0 empty empty empty 17 7 0 10 -262144
-1 -1;
#X obj 310 498 t f;
#X obj 428 462 r #slider;
#X obj 310 520 list prepend;
#X obj 310 542 list trim;
#X obj 379 498 r branch;
#X obj 310 623 s single-on;
#X obj 387 684 s single-on;
#X obj 594 699 s single-on;
#X obj 594 628 t f f;
#X obj 594 672 -;
#X obj 408 617 r layers-count;
#X obj 387 596 mod 12;
#X obj 387 662 + 12;
#X obj 408 639 / 2;
#X obj 511 648 t f f;
#X obj 511 670 + 12;
#X obj 511 692 s single-on;
#X msg 320 222 both;
#X obj 511 626 mod 12;
#X obj 310 565 route cw-single ccw-single both inverse;
#X msg 350 282 inverse;
#X obj 594 606 mod 12;
#X obj 594 650 swap 24;
#X obj 310 600 mod 24;
#X obj 470 391 tgl 15 0 empty empty empty 17 7 0 10 -262144 -1 -1 0
1;
#X obj 470 410 s mic_to_poofer_on;
#X floatatom 68 123 5 0 0 0 - - -, f 5;
#X floatatom 328 148 5 0 0 0 - - -, f 5;
#X obj 264 235 bng 15 250 50 0 empty empty empty 17 7 0 10 -262144
-1 -1;
#X floatatom 482 188 5 0 0 0 - - -, f 5;
#X symbolatom 535 263 15 0 0 0 - - -, f 15;
#X obj 535 239 symbol;
#X obj 535 215 r branch;
#X connect 0 0 81 0;
#X connect 1 0 81 0;
#X connect 2 0 3 0;
#X connect 3 0 4 0;
#X connect 3 1 4 1;
#X connect 4 0 39 0;
#X connect 4 0 149 0;
#X connect 5 0 7 0;
#X connect 5 1 81 0;
#X connect 7 0 6 0;
#X connect 8 0 9 0;
#X connect 9 0 12 0;
#X connect 10 0 9 0;
#X connect 11 0 9 0;
#X connect 13 0 123 0;
#X connect 14 0 9 0;
#X connect 15 0 36 0;
#X connect 16 0 123 0;
#X connect 17 0 5 0;
#X connect 18 0 8 0;
#X connect 19 0 20 0;
#X connect 20 0 21 0;
#X connect 21 0 28 0;
#X connect 22 0 23 0;
#X connect 22 0 29 0;
#X connect 24 0 25 0;
#X connect 24 0 27 0;
#X connect 29 0 26 0;
#X connect 30 0 29 1;
#X connect 32 0 31 0;
#X connect 33 0 32 0;
#X connect 34 0 81 0;
#X connect 35 0 90 0;
#X connect 36 0 37 0;
#X connect 36 1 37 1;
#X connect 37 0 38 0;
#X connect 37 0 150 0;
#X connect 38 0 8 0;
#X connect 38 1 140 0;
#X connect 38 2 10 0;
#X connect 38 3 11 0;
#X connect 38 4 143 0;
#X connect 38 5 14 0;
#X connect 38 6 46 0;
#X connect 38 7 47 0;
#X connect 38 8 48 0;
#X connect 39 0 0 0;
#X connect 39 1 49 0;
#X connect 39 2 50 0;
#X connect 39 3 1 0;
#X connect 39 4 95 0;
#X connect 39 5 96 0;
#X connect 39 6 97 0;
#X connect 39 7 98 0;
#X connect 39 8 121 0;
#X connect 39 9 17 0;
#X connect 39 10 91 0;
#X connect 39 11 105 0;
#X connect 39 12 106 0;
#X connect 39 13 34 0;
#X connect 39 14 75 0;
#X connect 39 15 78 0;
#X connect 39 15 151 0;
#X connect 40 0 41 0;
#X connect 41 0 54 0;
#X connect 41 1 52 0;
#X connect 41 2 45 0;
#X connect 41 2 104 0;
#X connect 43 0 51 0;
#X connect 44 0 67 0;
#X connect 45 0 42 0;
#X connect 46 0 9 0;
#X connect 47 0 9 0;
#X connect 48 0 9 0;
#X connect 49 0 81 0;
#X connect 50 0 81 0;
#X connect 51 0 80 0;
#X connect 52 0 53 0;
#X connect 53 0 86 0;
#X connect 54 0 65 0;
#X connect 55 0 64 0;
#X connect 57 0 58 0;
#X connect 57 0 62 1;
#X connect 60 0 59 0;
#X connect 60 0 62 0;
#X connect 61 0 60 0;
#X connect 61 1 57 0;
#X connect 62 0 56 0;
#X connect 63 0 53 0;
#X connect 64 0 43 0;
#X connect 64 0 66 0;
#X connect 64 1 63 0;
#X connect 65 0 44 0;
#X connect 66 0 44 0;
#X connect 68 0 69 0;
#X connect 69 0 72 0;
#X connect 69 1 70 0;
#X connect 71 0 64 0;
#X connect 72 0 73 0;
#X connect 75 0 77 0;
#X connect 75 1 76 0;
#X connect 76 0 81 0;
#X connect 78 0 79 0;
#X connect 78 1 76 0;
#X connect 80 0 92 0;
#X connect 81 0 82 0;
#X connect 83 0 84 0;
#X connect 83 1 84 1;
#X connect 84 0 87 0;
#X connect 84 0 55 0;
#X connect 84 0 61 0;
#X connect 85 0 86 1;
#X connect 86 0 83 0;
#X connect 86 0 85 0;
#X connect 86 0 88 0;
#X connect 89 0 123 0;
#X connect 90 0 48 0;
#X connect 91 0 81 0;
#X connect 92 0 93 0;
#X connect 94 0 69 0;
#X connect 95 0 5 0;
#X connect 96 0 5 0;
#X connect 97 0 5 0;
#X connect 98 0 5 0;
#X connect 99 0 101 0;
#X connect 101 0 100 0;
#X connect 101 1 102 0;
#X connect 102 0 103 0;
#X connect 104 0 86 1;
#X connect 105 0 81 0;
#X connect 106 0 5 0;
#X connect 107 0 108 0;
#X connect 108 0 109 0;
#X connect 108 1 109 0;
#X connect 108 2 109 0;
#X connect 108 3 109 0;
#X connect 108 4 109 0;
#X connect 108 5 115 0;
#X connect 109 0 111 0;
#X connect 111 0 112 0;
#X connect 112 0 113 0;
#X connect 113 0 110 0;
#X connect 113 0 120 0;
#X connect 114 0 111 0;
#X connect 114 1 112 1;
#X connect 115 0 111 0;
#X connect 116 0 118 0;
#X connect 116 1 118 0;
#X connect 116 2 118 0;
#X connect 116 3 118 0;
#X connect 116 4 119 0;
#X connect 117 0 116 0;
#X connect 118 0 114 0;
#X connect 119 0 114 0;
#X connect 121 0 5 0;
#X connect 122 0 75 0;
#X connect 123 0 125 0;
#X connect 124 0 123 0;
#X connect 125 0 126 0;
#X connect 126 0 142 0;
#X connect 127 0 125 1;
#X connect 131 0 145 0;
#X connect 131 1 130 0;
#X connect 132 0 130 0;
#X connect 133 0 136 0;
#X connect 134 0 135 0;
#X connect 135 0 129 0;
#X connect 136 0 135 1;
#X connect 136 0 138 1;
#X connect 137 0 138 0;
#X connect 137 1 139 0;
#X connect 138 0 139 0;
#X connect 140 0 9 0;
#X connect 141 0 137 0;
#X connect 142 0 146 0;
#X connect 142 1 134 0;
#X connect 142 2 141 0;
#X connect 142 3 144 0;
#X connect 143 0 9 0;
#X connect 144 0 131 0;
#X connect 145 0 132 0;
#X connect 145 1 132 1;
#X connect 146 0 128 0;
#X connect 147 0 148 0;
#X connect 154 0 153 0;
#X connect 155 0 154 0;
#X restore 57 77 pd helix;
#N canvas 325 151 455 310 timebase 0;
#X obj 39 75 loadbang;
#X msg 39 127 1;
#X obj 39 179 metro 100;
#X obj 39 253 s tick;
#X obj 90 155 r #auto-speed;
#X obj 39 231 f;
#X obj 66 231 + 1;
#X msg 67 127 0;
#X obj 108 49 r reset-timebase;
#X msg 54 205 0;
#X obj 67 98 r #all-off;
#X obj 108 71 t b b;
#X obj 114 194 bng 15 250 50 0 empty empty empty 17 7 0 10 -262144
-1 -1;
#X obj 49 273 s \$0-tick;
#X obj 249 130 loadbang;
#X msg 249 152 1;
#X obj 249 174 metro 50;
#X obj 249 196 s gui_tick;
#X obj 311 138 r gui_rate;
#X connect 0 0 1 0;
#X connect 1 0 2 0;
#X connect 2 0 5 0;
#X connect 4 0 2 1;
#X connect 5 0 6 0;
#X connect 5 0 3 0;
#X connect 5 0 13 0;
#X connect 6 0 5 1;
#X connect 7 0 2 0;
#X connect 8 0 11 0;
#X connect 9 0 5 1;
#X connect 10 0 7 0;
#X connect 10 0 12 0;
#X connect 11 0 1 0;
#X connect 11 1 9 0;
#X connect 14 0 15 0;
#X connect 15 0 16 0;
#X connect 16 0 17 0;
#X connect 18 0 16 1;
#X restore 56 106 pd timebase;
#N canvas 0 22 450 300 process-instruments 0;
#X restore 58 160 pd process-instruments;
#X obj 213 16 loadbang;
#N canvas 0 23 457 366 kbd-input 0;
#X obj 223 222 sel 106 107;
#X text 253 203 J K;
#X text 253 63 U I O P [ ];
#X obj 42 82 sel 113 119 101 114 116 121;
#X obj 42 221 sel 97 115;
#X text 72 62 Q W E R T Y;
#X text 72 202 A S;
#X msg 42 104 0;
#X obj 42 160 s kbd_input;
#X msg 62 104 1;
#X msg 82 104 2;
#X msg 102 104 3;
#X msg 122 104 4;
#X msg 142 104 5;
#X obj 222 160 s kbd_input;
#X obj 222 82 sel 117 105 111 112 91 93;
#X msg 222 104 8;
#X msg 242 104 9;
#X msg 262 104 10;
#X msg 282 104 11;
#X msg 302 104 12;
#X msg 322 104 13;
#X obj 42 300 s kbd_input;
#X obj 223 300 s kbd_input;
#X msg 42 244 6;
#X msg 62 244 7;
#X msg 223 244 14;
#X msg 243 244 15;
#X obj 42 33 spigot;
#X obj 42 10 key;
#X obj 75 8 r kbd_input_on;
#X connect 0 0 26 0;
#X connect 0 1 27 0;
#X connect 3 0 7 0;
#X connect 3 1 9 0;
#X connect 3 2 10 0;
#X connect 3 3 11 0;
#X connect 3 4 12 0;
#X connect 3 5 13 0;
#X connect 4 0 24 0;
#X connect 4 1 25 0;
#X connect 7 0 8 0;
#X connect 9 0 8 0;
#X connect 10 0 8 0;
#X connect 11 0 8 0;
#X connect 12 0 8 0;
#X connect 13 0 8 0;
#X connect 15 0 16 0;
#X connect 15 1 17 0;
#X connect 15 2 18 0;
#X connect 15 3 19 0;
#X connect 15 4 20 0;
#X connect 15 5 21 0;
#X connect 16 0 14 0;
#X connect 17 0 14 0;
#X connect 18 0 14 0;
#X connect 19 0 14 0;
#X connect 20 0 14 0;
#X connect 21 0 14 0;
#X connect 24 0 22 0;
#X connect 25 0 22 0;
#X connect 26 0 23 0;
#X connect 27 0 23 0;
#X connect 28 0 3 0;
#X connect 28 0 15 0;
#X connect 28 0 4 0;
#X connect 28 0 0 0;
#X connect 29 0 28 0;
#X connect 30 0 28 1;
#X restore 58 296 pd kbd-input;
#N canvas 15 132 1008 359 osc-in 0;
#X obj 495 248 sendOSC;
#X floatatom 495 270 5 0 0 0 - - -, f 5;
#X msg 506 223 disconnect \, connect 192.168.1.101 2015;
#X obj 496 34 r #toGPIO;
#X msg 495 153 send /pins/\$1 \$2;
#X obj 496 56 unpack f f;
#X obj 495 131 pack f f;
#X obj 50 17 dumpOSC 2017;
#X obj 50 68 s pinsOSCin;
#X obj 54 141 mode-switch 1;
#X obj 54 161 mode-switch 2;
#X obj 54 181 mode-switch 3;
#X obj 54 201 mode-switch 4;
#X obj 54 221 mode-switch 5;
#X obj 54 241 mode-switch 6;
#X obj 54 261 mode-switch 7;
#X obj 54 281 mode-switch 8;
#X obj 144 181 mode-switch 11;
#X obj 144 201 mode-switch 12;
#X obj 144 221 mode-switch 13;
#X obj 144 241 mode-switch 14;
#X obj 144 261 mode-switch 15;
#X obj 144 281 mode-switch 16;
#X obj 144 141 mode-switch 9;
#X obj 144 161 mode-switch 10;
#X obj 141 65 s modeOSCin;
#X obj 264 141 branch-switch 1;
#X obj 264 161 branch-switch 2;
#X obj 264 181 branch-switch 3;
#X obj 264 201 branch-switch 4;
#X obj 264 221 branch-switch 5;
#X obj 264 241 branch-switch 6;
#X obj 264 261 branch-switch 7;
#X obj 264 281 branch-switch 8;
#X obj 221 65 s branchOSCin;
#X obj 312 67 int;
#X obj 312 94 s single-on;
#X obj 456 82 moses 0;
#X obj 495 105 moses 26;
#X obj 748 246 sendOSC;
#X floatatom 748 268 5 0 0 0 - - -, f 5;
#X obj 749 54 unpack f f;
#X obj 748 129 pack f f;
#X obj 709 80 moses 0;
#X obj 748 103 moses 26;
#X msg 760 221 disconnect \, connect 192.168.1.102 2013;
#X text 869 156 iPad TouchOSC;
#X text 612 155 Pi 1;
#X msg 748 151 send /1/led\$1 \$2;
#X obj 50 42 OSCroute /pins /mode-index /branch-index /slider /all-off
;
#X obj 388 70 sel 1;
#X obj 388 93 s #all-off;
#X obj 401 142 bng 15 250 50 0 empty empty empty 17 7 0 10 -262144
-1 -1;
#X obj 506 178 loadbang;
#X obj 506 199 del 1000;
#X connect 0 0 1 0;
#X connect 2 0 0 0;
#X connect 3 0 5 0;
#X connect 3 0 41 0;
#X connect 4 0 0 0;
#X connect 5 0 37 0;
#X connect 5 1 6 1;
#X connect 6 0 4 0;
#X connect 7 0 49 0;
#X connect 35 0 36 0;
#X connect 37 1 38 0;
#X connect 38 0 6 0;
#X connect 39 0 40 0;
#X connect 41 0 43 0;
#X connect 41 1 42 1;
#X connect 42 0 48 0;
#X connect 43 1 44 0;
#X connect 44 0 42 0;
#X connect 45 0 39 0;
#X connect 48 0 39 0;
#X connect 49 0 8 0;
#X connect 49 1 25 0;
#X connect 49 2 34 0;
#X connect 49 3 35 0;
#X connect 49 4 50 0;
#X connect 50 0 51 0;
#X connect 50 0 52 0;
#X connect 53 0 54 0;
#X connect 54 0 2 0;
#X connect 54 0 45 0;
#X restore 58 317 pd osc-in;
#X msg 213 38 \; gui_rate 50 \; strip_length 30 \; kbd_input_on 1 \;
resting_colour_brightness 0.75 \; group_0_colour 255 255 255 \; group_1_colour
255 255 0 \; group_2_colour 255 0 0 \; group_3_colour 0 0 255 \;;
#X connect 10 0 13 0;
