#N canvas 220 349 610 360 10;
#X declare -path abs;
#X obj 59 22 declare -path abs;
#X obj 97 72 tgl 15 0 empty empty empty 17 7 0 10 -262144 -1 -1 0 1
;
#X obj 97 92 sel 0 1;
#X msg 97 114 close;
#X msg 25 112 devices;
#X msg 137 114 open 1;
#X obj 84 145 comport 1 9600;
#X obj 84 167 t f f;
#X obj 129 216 list prepend;
#X obj 129 238 list trim;
#X obj 198 194 moses 10;
#X obj 84 193 moses 10;
#X obj 129 260 route 0 1;
#X obj 129 282 print a;
#X obj 139 302 print b;
#X obj 292 173 sendOSC;
#X obj 292 71 tgl 15 0 empty empty empty 17 7 0 10 -262144 -1 -1 0
1;
#X obj 292 95 metro 1000;
#X msg 303 148 disconnect \, connect 192.168.0.30 5005;
#X msg 292 122 send /direction 0;
#X connect 1 0 2 0;
#X connect 2 0 3 0;
#X connect 2 1 5 0;
#X connect 3 0 6 0;
#X connect 4 0 6 0;
#X connect 5 0 6 0;
#X connect 6 0 7 0;
#X connect 7 0 11 0;
#X connect 7 1 10 0;
#X connect 8 0 9 0;
#X connect 9 0 12 0;
#X connect 10 0 8 1;
#X connect 11 1 8 0;
#X connect 12 0 13 0;
#X connect 12 1 14 0;
#X connect 16 0 17 0;
#X connect 17 0 19 0;
#X connect 18 0 15 0;
#X connect 19 0 15 0;
