#N canvas 278 276 610 360 10;
#X declare -path abs;
#X declare -path oscx;
#X obj 59 22 declare -path abs;
#X obj 97 72 tgl 15 0 empty empty empty 17 7 0 10 -262144 -1 -1 0 1
;
#X obj 97 92 sel 0 1;
#X msg 97 114 close;
#X msg 25 112 devices;
#X obj 84 145 comport 1 9600;
#X obj 84 167 t f f;
#X obj 129 216 list prepend;
#X obj 129 238 list trim;
#X obj 198 194 moses 10;
#X obj 84 193 moses 10;
#X obj 129 260 route 0 1;
#X obj 129 282 print a;
#X obj 139 302 print b;
#X obj 292 203 sendOSC;
#X obj 292 31 tgl 15 0 empty empty empty 17 7 0 10 -262144 -1 -1 1
1;
#X obj 292 55 metro 1000;
#X obj 59 42 declare -path oscx;
#X msg 303 178 disconnect \, connect localhost 5005;
#X obj 292 77 random 30;
#X msg 292 152 send /fillRGB \$1 \$2 \$3 \$4 \$5;
#X text 371 131 r \, g \, b \, start \, end;
#X msg 292 107 255 0 128 0 14;
#X msg 403 91 0 128 255 15 30;
#N canvas 235 180 450 300 debounce 1;
#X obj 91 56 inlet;
#X obj 91 174 outlet;
#X msg 150 101 0;
#X obj 152 145 delay 100;
#X msg 152 167 1;
#X obj 91 122 t a b b b;
#X msg 173 123 stop;
#X obj 91 100 spigot 1;
#X connect 0 0 7 0;
#X connect 2 0 7 1;
#X connect 3 0 4 0;
#X connect 4 0 7 1;
#X connect 5 0 1 0;
#X connect 5 1 2 0;
#X connect 5 2 3 0;
#X connect 5 3 6 0;
#X connect 6 0 3 0;
#X connect 7 0 5 0;
#X restore 257 276 pd debounce;
#N canvas 235 180 450 300 debounce 1;
#X obj 91 56 inlet;
#X obj 91 174 outlet;
#X msg 150 101 0;
#X obj 152 145 delay 100;
#X msg 152 167 1;
#X obj 91 122 t a b b b;
#X msg 173 123 stop;
#X obj 91 100 spigot 1;
#X connect 0 0 7 0;
#X connect 2 0 7 1;
#X connect 3 0 4 0;
#X connect 4 0 7 1;
#X connect 5 0 1 0;
#X connect 5 1 2 0;
#X connect 5 2 3 0;
#X connect 5 3 6 0;
#X connect 6 0 3 0;
#X connect 7 0 5 0;
#X restore 197 307 pd debounce;
#X msg 137 114 open 2;
#X connect 1 0 2 0;
#X connect 2 0 3 0;
#X connect 2 1 26 0;
#X connect 3 0 5 0;
#X connect 4 0 5 0;
#X connect 5 0 6 0;
#X connect 6 0 10 0;
#X connect 6 1 9 0;
#X connect 7 0 8 0;
#X connect 8 0 11 0;
#X connect 9 0 7 1;
#X connect 10 1 7 0;
#X connect 11 0 12 0;
#X connect 11 0 25 0;
#X connect 11 1 13 0;
#X connect 11 1 24 0;
#X connect 15 0 16 0;
#X connect 16 0 19 0;
#X connect 18 0 14 0;
#X connect 20 0 14 0;
#X connect 22 0 20 0;
#X connect 23 0 20 0;
#X connect 24 0 23 0;
#X connect 25 0 22 0;
#X connect 26 0 5 0;
