#N canvas 160 418 1179 573 10;
#X declare -path abs;
#X declare -path oscx;
#X obj 59 22 declare -path abs;
#X obj 289 521 sendOSC;
#X obj 59 42 declare -path oscx;
#X msg 302 493 disconnect \, connect localhost 5005;
#X text 406 384 r \, g \, b \, start \, end;
#X msg 728 39 1 \, 0 1000;
#X obj 728 189 pack f f f;
#X floatatom 728 83 5 0 0 0 - - -, f 5;
#X obj 728 146 int;
#X obj 788 146 int;
#X obj 848 146 int;
#X obj 728 124 * 0;
#X obj 788 124 * 128;
#X obj 848 124 * 255;
#X msg 352 410 send /fillRGB \$1 \$2 \$3 \$4 \$5;
#X msg 267 313 send /singleLED \$1 \$2 \$3 \$4;
#X msg 158 419 send /update;
#X msg 262 385 send /allOff;
#X msg 149 279 \$1 255 0 128;
#X msg 149 258 4;
#N canvas 475 300 420 454 arduino-in 0;
#X obj 85 73 tgl 15 0 empty empty empty 17 7 0 10 -262144 -1 -1 0 1
;
#X obj 85 93 sel 0 1;
#X msg 85 115 close;
#X msg 13 113 devices;
#X obj 72 146 comport 1 9600;
#X obj 72 168 t f f;
#X obj 117 217 list prepend;
#X obj 117 239 list trim;
#X obj 186 195 moses 10;
#X obj 72 194 moses 10;
#N canvas 235 180 450 300 debounce 0;
#X obj 91 56 inlet;
#X obj 91 174 outlet;
#X msg 150 101 0;
#X obj 152 145 delay 100;
#X msg 152 167 1;
#X obj 91 122 t a b b b;
#X msg 173 123 stop;
#X obj 91 100 spigot 1;
#X connect 0 0 7 0;
#X connect 2 0 7 1;
#X connect 3 0 4 0;
#X connect 4 0 7 1;
#X connect 5 0 1 0;
#X connect 5 1 2 0;
#X connect 5 2 3 0;
#X connect 5 3 6 0;
#X connect 6 0 3 0;
#X connect 7 0 5 0;
#X restore 308 208 pd debounce;
#N canvas 235 180 450 300 debounce 0;
#X obj 91 56 inlet;
#X obj 91 174 outlet;
#X msg 150 101 0;
#X obj 152 145 delay 100;
#X msg 152 167 1;
#X obj 91 122 t a b b b;
#X msg 173 123 stop;
#X obj 91 100 spigot 1;
#X connect 0 0 7 0;
#X connect 2 0 7 1;
#X connect 3 0 4 0;
#X connect 4 0 7 1;
#X connect 5 0 1 0;
#X connect 5 1 2 0;
#X connect 5 2 3 0;
#X connect 5 3 6 0;
#X connect 6 0 3 0;
#X connect 7 0 5 0;
#X restore 248 239 pd debounce;
#X msg 125 115 open 2;
#X obj 117 261 s piezo_input;
#X obj 109 346 piezo_processing 0;
#X obj 109 366 piezo_processing 1;
#X connect 0 0 1 0;
#X connect 1 0 2 0;
#X connect 1 1 12 0;
#X connect 2 0 4 0;
#X connect 3 0 4 0;
#X connect 4 0 5 0;
#X connect 5 0 9 0;
#X connect 5 1 8 0;
#X connect 6 0 7 0;
#X connect 7 0 13 0;
#X connect 8 0 6 1;
#X connect 9 1 6 0;
#X connect 12 0 4 0;
#X restore 58 170 pd arduino-in;
#X obj 187 218 r singleLED;
#X obj 262 364 r allOff;
#X obj 229 452 spigot;
#X obj 262 407 t b a;
#X msg 262 429 1;
#X obj 229 474 t a b;
#X msg 277 463 0;
#N canvas 109 401 450 300 timebase 0;
#X obj 50 38 tgl 15 0 empty empty empty 17 7 0 10 -262144 -1 -1 0 1
;
#X obj 50 60 metro 16;
#X obj 50 83 s \$0-update_tick;
#X obj 190 38 tgl 15 0 empty empty empty 17 7 0 10 -262144 -1 -1 0
1;
#X obj 190 82 f;
#X obj 217 82 + 1;
#X obj 190 104 s \$0-tick;
#X obj 190 60 metro 60;
#X msg 236 32 60;
#X msg 272 51 120;
#X connect 0 0 1 0;
#X connect 1 0 2 0;
#X connect 3 0 7 0;
#X connect 4 0 5 0;
#X connect 4 0 6 0;
#X connect 5 0 4 1;
#X connect 7 0 4 0;
#X connect 8 0 7 1;
#X connect 9 0 7 1;
#X restore 58 120 pd timebase;
#X obj 158 397 r \$0-update_tick;
#X msg 356 442 send /fillRGB 255 0 0 0 15 \, send /update;
#X obj 728 16 r piezo_0_hit;
#X text 361 295 r \, g \, b \, index;
#X obj 228 35 loadbang;
#X msg 228 57 30;
#X obj 228 79 s strip_length;
#X msg 357 133 send /singleLED 255 0 128 \$1;
#X msg 728 210 send /multipleLED \$1 \$2 \$3 0 2 4 6 8 10 12 14 16
18 20 22 24 26 28;
#X msg 729 483 send /multipleLED \$1 \$2 \$3 1 3 5 7 9 11 13 15 17
19 21 23 25 27 29;
#X obj 728 168 min 255;
#X obj 788 168 min 255;
#X obj 848 168 min 255;
#X obj 728 61 line 16;
#X obj 729 461 pack f f f;
#X obj 729 418 int;
#X obj 789 418 int;
#X obj 849 418 int;
#X obj 849 396 * 255;
#X obj 729 440 min 255;
#X obj 789 440 min 255;
#X obj 849 440 min 255;
#X obj 729 396 * 255;
#X obj 789 396 * 0;
#X obj 728 102 t f f;
#X msg 729 308 1 \, 0 1000;
#X floatatom 729 352 5 0 0 0 - - -, f 5;
#X obj 729 330 line 16;
#X obj 729 371 t f f;
#X obj 729 285 r piezo_1_hit;
#N canvas 0 22 450 300 animations 0;
#N canvas 759 125 636 900 dot-chase 0;
#X obj 102 139 t a b;
#X obj 185 183 s allOff;
#X msg 102 161 \$1 255 255 0;
#X obj 102 183 s singleLED;
#X floatatom 106 101 5 0 0 0 - - -, f 5;
#X obj 274 181 until;
#X obj 274 106 f 30;
#X obj 274 128 max 1;
#X obj 274 233 f;
#X obj 300 233 + 1;
#X msg 289 211 0;
#X obj 274 150 t f b;
#X msg 261 81 30;
#X obj 295 83 r \$0-led_count;
#X obj 274 275 t f f;
#X obj 301 304 -;
#X obj 360 21 r \$0-dot_centre;
#X obj 360 43 t b f;
#X obj 301 626 / 30;
#X obj 322 584 r \$0-led_count;
#X obj 301 670 -;
#X msg 301 648 1 \$1;
#X obj 274 833 s singleLED;
#X obj 274 811 pack f f f f;
#X obj 301 784 int;
#X obj 301 723 pow 3;
#X floatatom 421 159 5 0 0 0 - - -, f 5;
#X msg 428 108 12;
#X obj 301 752 * 128;
#X obj 301 535 abs;
#X obj 301 421 moses 0;
#X obj 301 398 * -1;
#X obj 301 348 list trim;
#X obj 301 370 route -1 1 0;
#X msg 301 443 bang;
#X obj 322 468 r \$0-led_count;
#X obj 301 510 f 30;
#X obj 461 731 * 1;
#X msg 529 685 1;
#X obj 529 642 r \$0-direction;
#X obj 529 664 sel 0;
#X obj 381 305 r \$0-direction;
#X msg 501 102 -1;
#X msg 532 102 0;
#X msg 561 102 1;
#X obj 501 124 s \$0-direction;
#X msg 559 685 0.5;
#X obj 47 375 r \$0-tick;
#X obj 47 419 s \$0-dot_centre;
#X obj 529 707 t b f;
#X obj 461 614 r \$0-trail_length;
#X obj 461 701 pow 2;
#X msg 461 636 1 \$1;
#X obj 461 658 -;
#X obj 461 680 * 17;
#X floatatom 475 168 5 0 0 0 - - -, f 5;
#X obj 474 188 s \$0-trail_length;
#X obj 335 713 print;
#X obj 359 498 r oversampling;
#X obj 359 613 r oversampling;
#X msg 458 408 2;
#X obj 458 430 s oversampling;
#X obj 499 511 s \$0-led_count;
#X msg 499 482 30;
#X msg 434 391 1;
#X obj 322 490 * 1;
#X obj 322 605 * 1;
#X obj 301 557 mod 30;
#X obj 337 529 r \$0-led_count;
#X obj 47 397 * 1;
#X obj 301 326 list prepend 0;
#X connect 0 0 2 0;
#X connect 0 1 1 0;
#X connect 2 0 3 0;
#X connect 4 0 0 0;
#X connect 5 0 8 0;
#X connect 6 0 7 0;
#X connect 7 0 11 0;
#X connect 8 0 9 0;
#X connect 8 0 14 0;
#X connect 9 0 8 1;
#X connect 10 0 8 1;
#X connect 11 0 5 0;
#X connect 11 1 10 0;
#X connect 12 0 6 0;
#X connect 13 0 6 1;
#X connect 14 0 23 0;
#X connect 14 1 15 0;
#X connect 15 0 70 0;
#X connect 16 0 17 0;
#X connect 17 0 12 0;
#X connect 17 1 15 1;
#X connect 18 0 21 0;
#X connect 19 0 66 0;
#X connect 20 0 25 0;
#X connect 21 0 20 0;
#X connect 23 0 22 0;
#X connect 24 0 23 1;
#X connect 24 0 23 2;
#X connect 24 0 23 3;
#X connect 25 0 28 0;
#X connect 26 0 17 0;
#X connect 27 0 17 0;
#X connect 28 0 24 0;
#X connect 29 0 67 0;
#X connect 30 0 34 0;
#X connect 30 1 29 0;
#X connect 31 0 30 0;
#X connect 32 0 33 0;
#X connect 33 0 31 0;
#X connect 33 1 30 0;
#X connect 33 2 29 0;
#X connect 34 0 36 0;
#X connect 35 0 65 0;
#X connect 36 0 29 0;
#X connect 37 0 25 1;
#X connect 38 0 49 0;
#X connect 39 0 40 0;
#X connect 40 0 38 0;
#X connect 40 1 46 0;
#X connect 41 0 70 1;
#X connect 42 0 45 0;
#X connect 43 0 45 0;
#X connect 44 0 45 0;
#X connect 46 0 49 0;
#X connect 47 0 69 0;
#X connect 49 0 37 0;
#X connect 49 1 37 1;
#X connect 50 0 52 0;
#X connect 51 0 37 0;
#X connect 52 0 53 0;
#X connect 53 0 54 0;
#X connect 54 0 51 0;
#X connect 55 0 56 0;
#X connect 58 0 65 1;
#X connect 59 0 66 1;
#X connect 60 0 61 0;
#X connect 63 0 62 0;
#X connect 64 0 61 0;
#X connect 65 0 36 1;
#X connect 66 0 18 1;
#X connect 67 0 18 0;
#X connect 68 0 67 1;
#X connect 69 0 48 0;
#X connect 70 0 32 0;
#X restore 68 77 pd dot-chase;
#N canvas 591 341 450 300 even/odd 0;
#X obj 135 54 inlet;
#X obj 135 129 f 30;
#X obj 156 107 r strip_length;
#X obj 135 173 max 1;
#X obj 135 195 until;
#X obj 135 217 f;
#X obj 161 217 + 2;
#X obj 135 151 / 2;
#X obj 135 239 + 0;
#X obj 135 78 t b f b;
#X msg 174 129 0;
#X obj 135 261 outlet;
#X connect 0 0 9 0;
#X connect 1 0 7 0;
#X connect 2 0 1 1;
#X connect 3 0 4 0;
#X connect 4 0 5 0;
#X connect 5 0 6 0;
#X connect 5 0 8 0;
#X connect 6 0 5 1;
#X connect 7 0 3 0;
#X connect 8 0 11 0;
#X connect 9 0 1 0;
#X connect 9 1 8 1;
#X connect 9 2 10 0;
#X connect 10 0 5 1;
#X restore 175 153 pd even/odd;
#X obj 174 135 tgl 15 0 empty empty empty 17 7 0 10 -262144 -1 -1 0
1;
#X connect 2 0 1 0;
#X restore 58 191 pd animations;
#X floatatom 366 100 5 0 0 0 - - -, f 5;
#N canvas 17 31 489 969 vis 0;
#X obj 304 715 +;
#X obj 304 659 t b f;
#X obj 94 715 +;
#X obj 94 659 t b f;
#X obj 94 737 * -1;
#X obj 201 790 +;
#X obj 201 736 t b f;
#X obj 304 690 f;
#X obj 94 685 f;
#X obj 201 763 f;
#X obj 367 209 poofer 6;
#X obj 201 812 spigot 1;
#X obj 201 914 s #force;
#X obj 257 744 r ignore-force;
#X obj 257 770 t b a;
#X obj 316 892 line;
#X obj 349 781 > 0;
#X msg 349 825 -1;
#X obj 349 803 sel 0;
#X obj 316 848 *;
#X msg 316 801 20;
#X msg 316 870 \$1 5000;
#X obj 367 593 poofer 0;
#X obj 367 17 poofer 9;
#X obj 246 338 poofer 14;
#X obj 246 402 poofer 13;
#X obj 367 529 poofer 1;
#X obj 30 414 poofer 33;
#X obj 246 530 poofer 11;
#X obj 367 273 poofer 5;
#X obj 246 210 poofer 16;
#X obj 367 465 poofer 2;
#X obj 246 274 poofer 15;
#X obj 367 145 poofer 7;
#X obj 246 82 poofer 18;
#X obj 246 18 poofer 19;
#X obj 151 157 poofer 27;
#X obj 367 401 poofer 3;
#X obj 367 337 poofer 4;
#X obj 246 146 poofer 17;
#X obj 367 81 poofer 8;
#X obj 246 594 poofer 10;
#X obj 246 466 poofer 12;
#X obj 151 605 poofer 20;
#X obj 151 541 poofer 21;
#X obj 151 413 poofer 23;
#X obj 151 477 poofer 22;
#X obj 151 349 poofer 24;
#X obj 151 285 poofer 25;
#X obj 151 221 poofer 26;
#X obj 151 93 poofer 28;
#X obj 151 29 poofer 29;
#X obj 30 606 poofer 30;
#X obj 30 542 poofer 31;
#X obj 30 478 poofer 32;
#X obj 30 350 poofer 34;
#X obj 30 286 poofer 35;
#X obj 30 222 poofer 36;
#X obj 30 158 poofer 37;
#X obj 30 94 poofer 38;
#X obj 30 30 poofer 39;
#X connect 0 0 6 0;
#X connect 1 0 7 0;
#X connect 1 1 0 1;
#X connect 2 0 4 0;
#X connect 3 0 8 0;
#X connect 3 1 2 1;
#X connect 4 0 9 0;
#X connect 5 0 11 0;
#X connect 5 0 16 0;
#X connect 6 0 9 0;
#X connect 6 1 5 1;
#X connect 7 0 0 0;
#X connect 8 0 2 0;
#X connect 9 0 5 0;
#X connect 10 0 29 0;
#X connect 11 0 12 0;
#X connect 13 0 14 0;
#X connect 14 0 20 0;
#X connect 14 1 11 1;
#X connect 15 0 12 0;
#X connect 16 0 18 0;
#X connect 17 0 19 1;
#X connect 18 0 17 0;
#X connect 18 1 19 1;
#X connect 19 0 21 0;
#X connect 20 0 19 0;
#X connect 21 0 15 0;
#X connect 22 0 1 0;
#X connect 23 0 40 0;
#X connect 24 0 25 0;
#X connect 25 0 42 0;
#X connect 26 0 22 0;
#X connect 27 0 54 0;
#X connect 28 0 41 0;
#X connect 29 0 38 0;
#X connect 30 0 32 0;
#X connect 31 0 26 0;
#X connect 32 0 24 0;
#X connect 33 0 10 0;
#X connect 34 0 39 0;
#X connect 35 0 34 0;
#X connect 36 0 49 0;
#X connect 37 0 31 0;
#X connect 38 0 37 0;
#X connect 39 0 30 0;
#X connect 40 0 33 0;
#X connect 41 0 7 0;
#X connect 42 0 28 0;
#X connect 43 0 3 0;
#X connect 44 0 43 0;
#X connect 45 0 46 0;
#X connect 46 0 44 0;
#X connect 47 0 45 0;
#X connect 48 0 47 0;
#X connect 49 0 48 0;
#X connect 50 0 36 0;
#X connect 51 0 50 0;
#X connect 52 0 8 0;
#X connect 53 0 52 0;
#X connect 54 0 53 0;
#X connect 55 0 27 0;
#X connect 56 0 55 0;
#X connect 57 0 56 0;
#X connect 58 0 57 0;
#X connect 59 0 58 0;
#X connect 60 0 59 0;
#X restore 59 217 pd vis;
#N canvas 133 71 1499 560 sequence 0;
#X obj 94 22 r #start-sequence;
#X obj 94 44 t b b;
#X obj 121 66 s reset-timebase;
#X msg 94 86 1;
#X obj 42 151 spigot;
#X obj 66 15 bng 15 250 50 0 empty empty empty 17 7 0 10 -262144 -1
-1;
#X obj 253 23 bng 15 250 50 0 empty empty empty 17 7 0 10 -262144 -1
-1;
#X obj 253 43 s #all-off;
#X obj 42 452 s settings-list;
#X obj 841 58 r settings-list;
#X obj 841 384 s mode;
#X obj 841 80 unpack s s f f;
#X obj 154 45 bng 15 250 50 0 empty empty empty 17 7 0 10 -262144 -1
-1;
#X obj 1273 237 symbol;
#X obj 1273 259 s branch;
#X obj 841 362 symbol;
#X obj 428 58 bng 50 250 50 0 empty empty Start 17 -10 0 10 -262144
-1 -1;
#X obj 427 112 s #start-sequence;
#X obj 42 108 r sequence-time-elapsed;
#X floatatom 51 131 5 0 0 0 - - -, f 5;
#X msg 841 218 cycle-up;
#X msg 850 237 cycle-down;
#X msg 856 256 cycle-up-down;
#X obj 841 102 sel any-cycle;
#X obj 42 173 moses 30;
#X obj 310 173 moses 90;
#X obj 951 175 random 8;
#X obj 951 197 + 1;
#X obj 951 269 s #branch-index;
#X msg 855 133 clear \, bang;
#X obj 265 452 s trail-length-ramp;
#X obj 952 406 line;
#X obj 952 384 r trail-length-ramp;
#X obj 952 468 s #trail-length;
#X obj 685 282 s #all-off;
#X obj 518 177 moses 120;
#X obj 957 93 s trail-length-ramp;
#X obj 1072 406 line;
#X obj 1072 384 r auto-speed-ramp;
#X obj 141 452 s auto-speed-ramp;
#X obj 948 116 s auto-speed-ramp;
#X obj 1072 468 s #auto-speed;
#X floatatom 910 470 5 0 0 0 - - -, f 5;
#X floatatom 1052 484 5 0 0 0 - - -, f 5;
#X msg 1033 226 9;
#X msg 1063 226 8;
#X msg 1093 227 3;
#X obj 1033 175 random 3;
#X obj 1033 197 sel 0 1 2;
#X obj 310 290 t b b;
#X obj 337 312 s reset-timebase;
#X obj 951 153 sel any-branch any-cw-branch any-both-branch;
#X msg 1123 226 8;
#X msg 1153 226 6;
#X obj 329 363 t b b;
#X obj 356 385 s reset-timebase;
#X obj 310 247 tgl 15 0 empty empty empty 17 7 0 10 -262144 -1 -1 0
1;
#X obj 310 267 sel 0 1;
#X obj 518 199 - 90;
#X obj 310 195 - 30;
#X obj 685 233 - 120;
#X obj 685 258 sel 0;
#X obj 1123 175 random 4;
#X msg 1183 227 3;
#X msg 1214 228 2;
#X obj 1123 197 sel 0 1 2 4;
#X msg 42 256 cycle-up all 550 700;
#X obj 230 300 sel 20 50;
#X obj 78 282 t a a;
#X msg 54 306 400 \, 100 10000;
#X msg 89 335 left cw-both 200 200;
#X msg 72 386 any-cycle any-cw-branch 200 250;
#X msg 82 406 genome cw-single 200 250;
#X msg 310 336 genome-repeat cw-single 150 250;
#X msg 329 408 euclid any-both-branch 200 150;
#X msg 518 311 any-cycle any-cw-branch 200 125;
#X floatatom 966 455 5 0 0 0 - - -, f 5;
#X obj 952 433 min 250;
#X msg 871 278 spiral;
#X msg 880 297 spiral-2;
#X msg 886 316 spiral-down;
#X msg 896 336 spiral-2-down;
#X obj 841 196 sel 0 1 2 3 4 5 6;
#X obj 841 155 c_urn7;
#X obj 1072 428 max 50;
#X msg 1129 434 50;
#X obj 540 287 t a a a;
#X msg 540 336 75 10000;
#X msg 550 356 150 10000;
#X msg 567 412 all;
#X obj 567 444 symbol;
#X obj 567 390 t a a a;
#X msg 610 413 75;
#X msg 641 413 150;
#X obj 567 468 s branch;
#X obj 310 225 sel 5;
#X obj 42 233 sel 1 8 10 11 12 13 14 15 16 17 18;
#X msg 620 345 left cw-both 150 150;
#X msg 630 369 left cw-both 200 200;
#X obj 518 252 sel 0 7 22 26 27 28 29 30;
#X connect 0 0 1 0;
#X connect 1 0 3 0;
#X connect 1 1 2 0;
#X connect 3 0 4 1;
#X connect 4 0 24 0;
#X connect 5 0 1 0;
#X connect 6 0 7 0;
#X connect 9 0 11 0;
#X connect 11 0 23 0;
#X connect 11 1 51 0;
#X connect 11 2 40 0;
#X connect 11 3 36 0;
#X connect 12 0 2 0;
#X connect 13 0 14 0;
#X connect 15 0 10 0;
#X connect 16 0 17 0;
#X connect 18 0 4 0;
#X connect 18 0 19 0;
#X connect 20 0 15 0;
#X connect 21 0 15 0;
#X connect 22 0 15 0;
#X connect 23 0 83 0;
#X connect 23 1 15 0;
#X connect 24 0 96 0;
#X connect 24 1 25 0;
#X connect 25 0 59 0;
#X connect 25 1 35 0;
#X connect 26 0 27 0;
#X connect 27 0 28 0;
#X connect 29 0 83 0;
#X connect 31 0 42 0;
#X connect 31 0 77 0;
#X connect 32 0 31 0;
#X connect 35 0 58 0;
#X connect 35 1 60 0;
#X connect 37 0 43 0;
#X connect 37 0 84 0;
#X connect 38 0 37 0;
#X connect 44 0 28 0;
#X connect 45 0 28 0;
#X connect 46 0 28 0;
#X connect 47 0 48 0;
#X connect 48 0 44 0;
#X connect 48 1 45 0;
#X connect 48 2 46 0;
#X connect 49 0 73 0;
#X connect 49 1 50 0;
#X connect 51 0 26 0;
#X connect 51 1 47 0;
#X connect 51 2 62 0;
#X connect 51 3 13 0;
#X connect 52 0 28 0;
#X connect 53 0 28 0;
#X connect 54 0 74 0;
#X connect 54 1 55 0;
#X connect 56 0 57 0;
#X connect 57 0 49 0;
#X connect 57 1 54 0;
#X connect 58 0 99 0;
#X connect 59 0 95 0;
#X connect 60 0 61 0;
#X connect 61 0 34 0;
#X connect 62 0 65 0;
#X connect 63 0 28 0;
#X connect 64 0 28 0;
#X connect 65 0 52 0;
#X connect 65 1 53 0;
#X connect 65 2 63 0;
#X connect 65 3 64 0;
#X connect 66 0 8 0;
#X connect 67 0 71 0;
#X connect 67 1 72 0;
#X connect 68 0 69 0;
#X connect 68 1 70 0;
#X connect 69 0 39 0;
#X connect 70 0 8 0;
#X connect 71 0 8 0;
#X connect 72 0 8 0;
#X connect 73 0 8 0;
#X connect 74 0 8 0;
#X connect 75 0 8 0;
#X connect 77 0 33 0;
#X connect 77 0 76 0;
#X connect 78 0 15 0;
#X connect 79 0 15 0;
#X connect 80 0 15 0;
#X connect 81 0 15 0;
#X connect 82 0 20 0;
#X connect 82 1 21 0;
#X connect 82 2 22 0;
#X connect 82 3 78 0;
#X connect 82 4 79 0;
#X connect 82 5 80 0;
#X connect 82 6 81 0;
#X connect 83 0 82 0;
#X connect 83 1 29 0;
#X connect 84 0 41 0;
#X connect 85 0 41 0;
#X connect 86 0 87 0;
#X connect 86 1 88 0;
#X connect 86 2 75 0;
#X connect 87 0 39 0;
#X connect 88 0 30 0;
#X connect 89 0 90 0;
#X connect 90 0 94 0;
#X connect 91 0 89 0;
#X connect 91 1 92 0;
#X connect 91 2 93 0;
#X connect 92 0 39 0;
#X connect 93 0 30 0;
#X connect 95 0 56 0;
#X connect 96 0 66 0;
#X connect 96 2 68 0;
#X connect 96 3 70 0;
#X connect 96 4 70 0;
#X connect 96 5 70 0;
#X connect 96 6 70 0;
#X connect 96 7 70 0;
#X connect 96 8 70 0;
#X connect 96 9 70 0;
#X connect 96 10 70 0;
#X connect 96 11 67 0;
#X connect 97 0 8 0;
#X connect 98 0 8 0;
#X connect 99 0 75 0;
#X connect 99 1 86 0;
#X connect 99 2 91 0;
#X connect 99 3 97 0;
#X connect 99 4 97 0;
#X connect 99 5 97 0;
#X connect 99 6 98 0;
#X connect 99 7 98 0;
#X restore 59 239 pd sequence;
#N canvas 524 159 604 825 dmx 0;
#X obj 110 604 sendOSC;
#X obj 110 508 r toDMX;
#X obj 55 54 sel 1;
#X obj 55 207 f;
#X obj 82 207 + 1;
#X obj 55 316 mod 2;
#X obj 55 339 * 255;
#X msg 55 413 send /dmx/universe/1/1 \$1 \, send /dmx/universe/1/2
\$1 \, send /dmx/universe/1/3 \$1 \, send /dmx/universe/1/5 \$1 \,
send /dmx/universe/1/6 \$1 \, send /dmx/universe/1/7 \$1 \, send /dmx/universe/1/9
\$1 \, send /dmx/universe/1/10 \$1 \, send /dmx/universe/1/11 \$1 \,
send /dmx/universe/1/13 \$1 \, send /dmx/universe/1/14 \$1 \, send
/dmx/universe/1/15 \$1;
#X obj 124 143 tgl 15 0 empty empty empty 17 7 0 10 -262144 -1 -1 0
1;
#X obj 55 387 min 255;
#X obj 55 177 metro 50;
#X obj 55 294 f;
#X obj 82 294 + 1;
#X obj 55 268 sel 0;
#X obj 55 243 mod 2;
#X obj 166 237 +~ 1;
#X obj 149 294 snapshot~;
#X obj 166 213 osc~ 0.2;
#X obj 166 262 *~ 128;
#X msg 55 111 1;
#X obj 55 85 t b b;
#X obj 91 107 del 2000;
#X msg 91 132 0;
#X obj 55 364 + 0;
#X obj 126 59 bng 15 250 50 0 empty empty empty 17 7 0 10 -262144 -1
-1;
#X obj 121 533 loadbang;
#X obj 121 555 del 500;
#X obj 110 626 sel 1;
#X text 171 704 Turn all shutters on when we know we're succesfully
connected;
#X obj 55 30 r #start-sequence;
#X msg 191 550 disconnect;
#X msg 146 394 0;
#X text 347 266 Lamp 1 - Ch 1;
#X text 347 286 Lamp 2 - Ch 9;
#X text 347 306 Lamp 3 - Ch 17;
#X text 347 326 Lamp 4 - Ch 25;
#X msg 172 610 send /dmx/universe/1/1 255 \, send /dmx/universe/1/5
0 \, send /dmx/universe/1/6 0 \, send /dmx/universe/1/9 255 \, send
/dmx/universe/1/13 0 \, send /dmx/universe/1/14 0 \, send /dmx/universe/1/17
255 \, send /dmx/universe/1/21 0 \, send /dmx/universe/1/22 0 \, send
/dmx/universe/1/25 255 \, send /dmx/universe/1/29 0 \, send /dmx/universe/1/30
0;
#X msg 265 570 connect localhost 7770;
#X msg 121 579 connect 192.168.0.52 7770;
#X msg 244 362 send /dmx/universe/1/1 \$1;
#X floatatom 242 321 5 0 0 0 - - -, f 5;
#X msg 201 128 1;
#X connect 0 0 27 0;
#X connect 1 0 0 0;
#X connect 2 0 20 0;
#X connect 3 0 4 0;
#X connect 3 0 14 0;
#X connect 4 0 3 1;
#X connect 5 0 6 0;
#X connect 6 0 23 0;
#X connect 7 0 0 0;
#X connect 8 0 10 0;
#X connect 9 0 7 0;
#X connect 10 0 3 0;
#X connect 11 0 12 0;
#X connect 11 0 5 0;
#X connect 12 0 11 1;
#X connect 13 0 11 0;
#X connect 14 0 13 0;
#X connect 15 0 18 0;
#X connect 17 0 15 0;
#X connect 18 0 16 0;
#X connect 19 0 10 0;
#X connect 20 0 19 0;
#X connect 20 1 21 0;
#X connect 21 0 22 0;
#X connect 22 0 10 0;
#X connect 23 0 9 0;
#X connect 24 0 20 0;
#X connect 25 0 26 0;
#X connect 26 0 38 0;
#X connect 27 0 36 0;
#X connect 29 0 2 0;
#X connect 30 0 0 0;
#X connect 31 0 7 0;
#X connect 36 0 0 0;
#X connect 38 0 0 0;
#X connect 39 0 0 0;
#X connect 40 0 39 0;
#X connect 41 0 2 0;
#X restore 58 274 pd dmx;
#X connect 3 0 1 0;
#X connect 5 0 42 0;
#X connect 6 0 37 0;
#X connect 7 0 53 0;
#X connect 8 0 39 0;
#X connect 9 0 40 0;
#X connect 10 0 41 0;
#X connect 11 0 8 0;
#X connect 12 0 9 0;
#X connect 13 0 10 0;
#X connect 15 0 24 0;
#X connect 16 0 23 0;
#X connect 17 0 24 0;
#X connect 18 0 15 0;
#X connect 19 0 18 0;
#X connect 21 0 15 0;
#X connect 22 0 17 0;
#X connect 23 0 26 0;
#X connect 24 0 25 0;
#X connect 24 1 1 0;
#X connect 25 0 23 1;
#X connect 26 0 1 0;
#X connect 26 1 27 0;
#X connect 27 0 23 1;
#X connect 29 0 16 0;
#X connect 30 0 1 0;
#X connect 31 0 5 0;
#X connect 33 0 34 0;
#X connect 34 0 35 0;
#X connect 36 0 24 0;
#X connect 37 0 24 0;
#X connect 38 0 24 0;
#X connect 39 0 6 0;
#X connect 40 0 6 1;
#X connect 41 0 6 2;
#X connect 42 0 7 0;
#X connect 43 0 38 0;
#X connect 44 0 48 0;
#X connect 45 0 49 0;
#X connect 46 0 50 0;
#X connect 47 0 46 0;
#X connect 48 0 43 0;
#X connect 49 0 43 1;
#X connect 50 0 43 2;
#X connect 51 0 44 0;
#X connect 52 0 45 0;
#X connect 53 0 11 0;
#X connect 53 1 12 0;
#X connect 53 1 13 0;
#X connect 54 0 56 0;
#X connect 55 0 57 0;
#X connect 56 0 55 0;
#X connect 57 0 51 0;
#X connect 57 1 52 0;
#X connect 57 1 47 0;
#X connect 58 0 54 0;
#X connect 60 0 36 0;
